<svg width="126" height="127" xmlns="http://www.w3.org/2000/svg" xmlns:xlink="http://www.w3.org/1999/xlink" overflow="hidden"><defs><clipPath id="clip0"><rect x="256" y="157" width="126" height="127"/></clipPath></defs><g clip-path="url(#clip0)" transform="translate(-256 -157)"><path d="M63 26.25C65.5371 26.25 67.5938 24.1933 67.5938 21.6562 67.5938 19.1192 65.5371 17.0625 63 17.0625L62.8688 17.0625C60.3716 17.1071 58.3784 19.1588 58.4062 21.6562 58.4106 24.1915 60.4648 26.2457 63 26.25ZM61.5667 20.265C61.9209 19.901 62.4056 19.6931 62.9134 19.6875L63 19.6875C64.0873 19.6875 64.9688 20.569 64.9686 21.6564 64.9686 22.7437 64.0871 23.625 62.9997 23.625 61.9125 23.625 61.0311 22.7435 61.0311 21.6561 61.0311 21.6497 61.0312 21.6431 61.0312 21.6366 61.0193 21.1276 61.2117 20.6351 61.5654 20.2689Z" transform="matrix(1 0 0 1.00794 256 157)"/><path d="M54.4136 45.5503 52.5577 43.6944 42.9857 53.2652 38.6636 48.9444 36.8078 50.8003 42.9857 56.9782 54.4136 45.5503Z" transform="matrix(1 0 0 1.00794 256 157)"/><path d="M61.6888 48.5599 89.2513 48.5599 89.2513 51.1849 61.6888 51.1849Z" transform="matrix(1 0 0 1.00794 256 157)"/><path d="M54.4136 61.3029 52.5577 59.4471 42.9857 69.0191 38.6636 64.6971 36.8078 66.5529 42.9857 72.7309 54.4136 61.3029Z" transform="matrix(1 0 0 1.00794 256 157)"/><path d="M61.6888 64.3125 89.2513 64.3125 89.2513 66.9375 61.6888 66.9375Z" transform="matrix(1 0 0 1.00794 256 157)"/><path d="M54.4136 77.0529 52.5577 75.1971 42.9857 84.7691 38.6636 80.4471 36.8078 82.3029 42.9857 88.4809 54.4136 77.0529Z" transform="matrix(1 0 0 1.00794 256 157)"/><path d="M61.6888 80.0625 89.2513 80.0625 89.2513 82.6875 61.6888 82.6875Z" transform="matrix(1 0 0 1.00794 256 157)"/><path d="M54.4136 92.8029 52.5577 90.9471 42.9857 100.519 38.6636 96.1971 36.8078 98.0529 42.9857 104.231 54.4136 92.8029Z" transform="matrix(1 0 0 1.00794 256 157)"/><path d="M61.6888 95.8125 89.2513 95.8125 89.2513 98.4375 61.6888 98.4375Z" transform="matrix(1 0 0 1.00794 256 157)"/><path d="M102.375 24.9099C102.375 22.0105 100.024 19.6599 97.125 19.6599L77.4375 19.6599 77.4375 17.0349C77.4332 13.4123 74.4976 10.4768 70.875 10.4724L55.125 10.4724C51.5024 10.4768 48.5668 13.4123 48.5625 17.0349L48.5625 19.6599 28.875 19.6599C25.9756 19.6599 23.625 22.0105 23.625 24.9099L23.625 110.25C23.625 113.149 25.9756 115.5 28.875 115.5L97.125 115.5C100.024 115.5 102.375 113.149 102.375 110.25ZM45.9375 22.2849 51.1875 22.2849 51.1875 17.0349C51.1875 14.8603 52.9503 13.0974 55.125 13.0974L70.875 13.0974C73.0497 13.0974 74.8125 14.8603 74.8125 17.0349L74.8125 22.2849 80.0625 22.2849 80.0625 32.8125 45.9375 32.8125ZM97.125 112.875 28.875 112.875C27.4252 112.875 26.25 111.7 26.25 110.25L26.25 24.9099C26.25 23.4601 27.4252 22.2849 28.875 22.2849L43.3125 22.2849 43.3125 35.4375 82.6875 35.4375 82.6875 22.2849 97.125 22.2849C98.5748 22.2849 99.75 23.4601 99.75 24.9099L99.75 110.25C99.75 111.7 98.5748 112.875 97.125 112.875Z" transform="matrix(1 0 0 1.00794 256 157)"/></g></svg>