<svg xmlns="http://www.w3.org/2000/svg" width="260" height="260" viewBox="0 0 260 260"><defs><style>.a{fill:#c7c7ec;}.b{fill:#f7850b;}.c{fill:#bdbde6;}.d{fill:#6264a7;}.e{fill:#7577b9;}.f,.h{fill:none;}.f{stroke:#6264a7;}.g{stroke:none;}</style></defs><g transform="translate(-663 -321)"><g transform="translate(-7 2)"><g transform="translate(196.373 15.19)"><g transform="translate(535.627 414.532)"><path class="a" d="M76.677,80.16c-3.3-1.29-8.686-1.355-11.071-2.355-1.649-.71-4.269-1.484-5.123-2.613S59.629,66,59.629,66a14.843,14.843,0,0,0,2.915-4.516c.854-2.355,1.413-8.87,1.413-8.87s1.943.9,2.709-3.354c.648-3.677,1.884-5.612,1.561-8.322-.353-2.709-1.708-2.064-1.708-2.064s1.708-2.742,1.708-12.063c0-9.612-6.625-19.062-19.021-19.062-12.366,0-19.05,9.483-19.05,19.062,0,9.322,1.678,12.063,1.678,12.063s-1.384-.645-1.708,2.064c-.353,2.709.883,4.645,1.561,8.322.766,4.29,2.709,3.354,2.709,3.354s.559,6.483,1.413,8.87A14.843,14.843,0,0,0,38.724,66s0,8.064-.854,9.193-3.474,1.9-5.123,2.58c-2.355,1-7.744,1.129-11.071,2.419-3.3,1.29-13.485,7.161-13.485,21.675H90.133C90.162,87.32,79.975,81.45,76.677,80.16Z" transform="translate(19.225 -7.582)"/><path class="b" d="M34.581,52.042s-7.709-.258-10.773-3c5-7.58,2.29-16.418,3.322-24.675,1.032-8.225,5.709-13.16,15.063-13.16h.129c9.031,0,13.9,4.9,14.934,13.16,1.032,8.225-1.839,18.063,3.29,24.675C57.482,51.816,49.74,51.72,49.74,51.72h0s-.323,4.645.323,5.419a8.145,8.145,0,0,0,3.871,1.774,74.839,74.839,0,0,1,8.354,2.322c2.516.871,7.29,5.548,7.29,12h-25.9c-.71-2.58-5.58-7.193-10.321-9.612-2.9-1.484-5.774-1.387-7.967-1.677,0,0-1.226-1.935,2.806-2.677,0,0,5.548-1.387,6.193-2.161C35,56.4,34.581,52.042,34.581,52.042Z" transform="translate(67.423 4.828)"/><path class="c" d="M100.158,80.079c-3.613-1.29-9.515-1.355-12.128-2.355-1.806-.71-4.677-1.484-5.612-2.613s-.935-9.193-.935-9.193A14.85,14.85,0,0,0,84.676,61.4c.935-2.355,1.548-8.87,1.548-8.87s2.129.9,2.967-3.354c.71-3.677,2.064-5.612,1.709-8.322-.387-2.709-1.871-2.064-1.871-2.064S90.9,36.051,90.9,26.73c0-9.612-8.669-24.8-30.981-17.144-.5,8.8,24.756,92.2,24.756,92.2H114.9A22.718,22.718,0,0,0,100.158,80.079Z" transform="translate(-3.133 -7.501)"/><g transform="translate(0 16.036)"><path class="d" d="M37.211,52.042s7.709-.258,10.773-3c-5-7.58-2.29-16.418-3.322-24.675-1.032-8.225-5.709-13.16-15.063-13.16H29.47c-9.031,0-13.9,4.9-14.934,13.16-1.032,8.225,1.839,18.063-3.29,24.675,3.064,2.774,10.805,2.677,10.805,2.677h0s.323,4.645-.323,5.419a8.145,8.145,0,0,1-3.871,1.774A74.838,74.838,0,0,0,9.5,61.235c-2.516.871-7.29,5.548-7.29,12h25.9c.71-2.58,5.58-7.193,10.321-9.612,2.9-1.484,5.774-1.387,7.967-1.677,0,0,1.226-1.935-2.806-2.677,0,0-5.548-1.387-6.193-2.161C36.792,56.4,37.211,52.042,37.211,52.042Z" transform="translate(-2.215 -11.208)"/><path class="e" d="M32.823,11.4l-1.817-.193H29.47c-9.031,0-13.9,4.9-14.934,13.16-1.032,8.225,1.839,18.063-3.29,24.675,3.064,2.774,10.805,2.677,10.805,2.677h0s.323,4.645-.323,5.419a8.145,8.145,0,0,1-3.871,1.774A74.838,74.838,0,0,0,9.5,61.235c-2.516.871-7.29,5.548-7.29,12H17.858a150.908,150.908,0,0,0,6.354-17.869c4.046-14.653,7.943-34.458,8.209-40.233C32.46,14.331,33.056,11.563,32.823,11.4Z" transform="translate(-2.215 -11.208)"/></g><g transform="translate(91.231 16.036)"><path class="e" d="M12.988,52.042s-7.709-.258-10.773-3c5-7.58,2.29-16.418,3.322-24.675,1.032-8.225,5.709-13.16,15.063-13.16h.129c9.031,0,13.9,4.9,14.934,13.16,1.032,8.225-1.839,18.063,3.29,24.675-3.064,2.774-10.805,2.677-10.805,2.677h0s-.323,4.645.323,5.419a8.145,8.145,0,0,0,3.871,1.774,74.839,74.839,0,0,1,8.354,2.322c2.516.871,7.29,5.548,7.29,12h-25.9c-.71-2.58-5.58-7.193-10.321-9.612-2.9-1.484-5.774-1.387-7.967-1.677,0,0-1.226-1.935,2.806-2.677,0,0,5.548-1.387,6.193-2.161C13.407,56.4,12.988,52.042,12.988,52.042Z" transform="translate(-2.215 -11.208)"/><path class="d" d="M2.269,11.4l1.817-.193H5.622c9.031,0,13.9,4.9,14.934,13.16,1.032,8.225-1.839,18.063,3.29,24.675C20.781,51.816,13.04,51.72,13.04,51.72h0s-.323,4.645.323,5.419a8.145,8.145,0,0,0,3.871,1.774,74.839,74.839,0,0,1,8.354,2.322c2.516.871,7.29,5.548,7.29,12H17.233a150.908,150.908,0,0,1-6.354-17.869C6.833,40.711,2.936,20.906,2.67,15.132,2.632,14.331,2.035,11.563,2.269,11.4Z" transform="translate(12.892 -11.208)"/></g></g><g transform="translate(580.352 357.809)"><circle class="c" cx="23.496" cy="23.496" r="23.496"/><path class="d" d="M30.8,15.282H20.141V4.62a2.37,2.37,0,0,0-2.37-2.37H15.4a2.37,2.37,0,0,0-2.37,2.37V15.282H2.37A2.37,2.37,0,0,0,0,17.652v2.37a2.37,2.37,0,0,0,2.37,2.37H13.032V33.054a2.37,2.37,0,0,0,2.37,2.37h2.37a2.37,2.37,0,0,0,2.37-2.37V22.391H30.8a2.37,2.37,0,0,0,2.37-2.37v-2.37A2.37,2.37,0,0,0,30.8,15.282Z" transform="translate(7.002 4.256)"/></g></g></g><g class="f" transform="translate(663 321)"><rect class="g" width="260" height="260" rx="8"/><rect class="h" x="0.5" y="0.5" width="259" height="259" rx="7.5"/></g></g></svg>