<svg xmlns="http://www.w3.org/2000/svg" xmlns:xlink="http://www.w3.org/1999/xlink" width="17.005" height="17.005" viewBox="0 0 17.005 17.005">
  <defs>
    <clipPath id="clip-path">
      <rect id="Rectangle_26890" data-name="Rectangle 26890" width="9.964" height="10.804" fill="none"/>
    </clipPath>
  </defs>
  <g id="Group_19256" data-name="Group 19256" transform="translate(5083.452 4649.134)">
    <g id="Group_19253" data-name="Group 19253" transform="translate(-42 -9)">
      <path id="Union_5" data-name="Union 5" d="M8,0A8,8,0,1,1,0,8,8,8,0,0,1,8,0Z" transform="translate(-5040.952 -4639.634)" fill="#bdbde6" stroke="#bdbde6" stroke-width="1"/>
      <g id="Group_19125" data-name="Group 19125" transform="translate(-5038.945 -4637.182)">
        <g id="Group_19124" data-name="Group 19124" transform="translate(0 0)">
          <g id="Group_19127" data-name="Group 19127" transform="translate(0 0)">
            <g id="Group_19120" data-name="Group 19120">
              <g id="Group_19118" data-name="Group 19118" clip-path="url(#clip-path)">
                <path id="Path_49225" data-name="Path 49225" d="M44.388,1.309A1.115,1.115,0,0,1,45.047,0H45.3V.619c-.357.067-.326.341-.317.6a1.182,1.182,0,0,1-.592.089" transform="translate(-40.316 0.122)" fill="#7577b9"/>
                <path id="Path_49226" data-name="Path 49226" d="M55.593.619q0-.309-.005-.619h.326a1.2,1.2,0,0,1,.593,1.3,1.625,1.625,0,0,1-.624-.086c0-.248.042-.512-.289-.6" transform="translate(-50.606 0.122)" fill="#6264a7"/>
                <path id="Path_49227" data-name="Path 49227" d="M55.879,14.766a1.624,1.624,0,0,0,.624.087A4.118,4.118,0,0,1,58.1,16a3.391,3.391,0,0,1,.663,1.926,13.86,13.86,0,0,0,.062,1.745,4.8,4.8,0,0,0,1.091,2.365c.14.166.3.323.247.571-.117.173-.293.164-.473.164q-1.3,0-2.6,0l-1.5-.006,0-7.986.291-.022" transform="translate(-50.602 -13.428)" fill="#7577b9"/>
                <path id="Path_49228" data-name="Path 49228" d="M4.667,14.843q0,3.993,0,7.986h0l-1.485,0q-1.282,0-2.564,0c-.191,0-.395.021-.49-.2-.089-.2.053-.326.169-.462a4.77,4.77,0,0,0,1.2-3.243,6.03,6.03,0,0,1,.131-1.779A3.136,3.136,0,0,1,3.48,15.068c.1-.045.188-.1.281-.154a1.182,1.182,0,0,0,.592-.089l.315.017" transform="translate(0.315 -13.482)" fill="#6264a7"/>
                <path id="Path_49230" data-name="Path 49230" d="M55.517,111.986l1.5.006a1.475,1.475,0,0,1-1.5,1.208c0-.4-.008-.81-.01-1.214Z" transform="translate(-50.535 -102.64)" fill="#6264a7"/>
                <path id="Path_49231" data-name="Path 49231" d="M39.034,111.984q0,.606,0,1.213a1.486,1.486,0,0,1-1.49-1.208l1.485,0" transform="translate(-34.057 -102.639)" fill="#7577b9"/>
              </g>
            </g>
            <g id="Group_19123" data-name="Group 19123" transform="translate(6.123 0.907)">
              <g id="Group_19126" data-name="Group 19126" transform="translate(0 0)">
                <g id="Group_19121" data-name="Group 19121">
                  <g id="Ellipse_2819" data-name="Ellipse 2819" fill="#fff" stroke="#fff" stroke-width="1">
                    <circle cx="2.898" cy="2.898" r="2.898" stroke="none"/>
                    <circle cx="2.898" cy="2.898" r="2.398" fill="none"/>
                  </g>
                  <g id="Ellipse_2820" data-name="Ellipse 2820" transform="translate(0.446 0.446)" fill="red" stroke="red" stroke-width="1">
                    <circle cx="2.452" cy="2.452" r="2.452" stroke="none"/>
                    <circle cx="2.452" cy="2.452" r="1.952" fill="none"/>
                  </g>
                </g>
                <g id="Group_19122" data-name="Group 19122" transform="translate(2.695 1.515)">
                  <path id="Path_49233" data-name="Path 49233" d="M-16267.2-9314h.4v.976l-.08,1.118h-.226l-.094-1.118Z" transform="translate(16267.199 9314.004)" fill="#fff"/>
                  <path id="Path_49234" data-name="Path 49234" d="M-16267.2-9309.721h.377v.406h-.377Z" transform="translate(16267.199 9312.078)" fill="#fff"/>
                </g>
              </g>
            </g>
          </g>
        </g>
      </g>
    </g>
  </g>
</svg>
