<svg xmlns="http://www.w3.org/2000/svg" width="260" height="260" viewBox="0 0 260 260"><defs><style>.a{fill:#bdbde6;}.b{fill:#6264a7;}.c{opacity:0.32;mix-blend-mode:overlay;isolation:isolate;}.d{fill:#7174be;}.e,.g{fill:none;}.e{stroke:#6264a7;}.f{stroke:none;}</style></defs><g transform="translate(-330 -321)"><g transform="translate(392.307 381.088)"><path class="a" d="M640.638,374.648l9.189,81.652,9.189-81.652Z" transform="translate(-581.327 -318.144)"/><g transform="translate(26.437 82.086)"><path class="a" d="M690.542,405.418c-17.5,7.62-33.648,27.914-35.665,56.071,7.369-21.917,22.914-36.785,39.414-42.421A42.662,42.662,0,0,1,690.542,405.418Z" transform="translate(-610.165 -405.418)"/><path class="a" d="M604.846,405.418c17.5,7.62,33.648,27.914,35.665,56.071C633.143,439.572,617.6,424.7,601.1,419.068A42.659,42.659,0,0,0,604.846,405.418Z" transform="translate(-601.097 -405.418)"/></g><g transform="translate(0 52.878)"><g transform="translate(83.585)"><path class="b" d="M714.689,388.081l19.324-3.3-23.759,17.234Z" transform="translate(-680.597 -374.032)"/><path class="a" d="M734.012,384.782l-9.136,17.344-14.624-.11Z" transform="translate(-680.597 -374.032)"/><path class="b" d="M724.877,405.621l9.108,17.358-23.732-17.469Z" transform="translate(-680.597 -377.528)"/><path class="b" d="M695.735,391.249l2.834-19.4,9.236,27.983Z" transform="translate(-678.149 -371.852)"/><path class="a" d="M699.143,371.852,712.816,385.9l-4.436,13.935Z" transform="translate(-678.724 -371.852)"/><path class="a" d="M698.522,433.678l-2.8-19.4,12.084-8.765Z" transform="translate(-678.146 -377.528)"/><path class="a" d="M704.238,403.77l-29.656.076,17.586-8.662Z" transform="translate(-674.582 -375.786)"/><path class="a" d="M733.985,422.98l-19.318-3.329-4.414-14.14Z" transform="translate(-680.597 -377.528)"/><path class="b" d="M692.154,414.276l-17.572-8.689,29.656-.076Z" transform="translate(-674.582 -377.528)"/><path class="b" d="M712.785,419.651l-13.694,14.027,9.28-28.167Z" transform="translate(-678.715 -377.528)"/></g><path class="b" d="M583.874,388.081l-19.324-3.3,23.76,17.234Z" transform="translate(-564.55 -374.032)"/><path class="a" d="M564.55,384.782l9.136,17.344,14.624-.11-7.033-5.1Z" transform="translate(-564.55 -374.032)"/><path class="b" d="M573.692,405.621l-9.109,17.358,23.732-17.469Z" transform="translate(-564.556 -377.528)"/><path class="b" d="M605.2,391.249l-2.834-19.4-9.236,27.983Z" transform="translate(-569.369 -371.852)"/><path class="a" d="M601.465,371.852,587.793,385.9l4.436,13.935Z" transform="translate(-568.47 -371.852)"/><path class="a" d="M602.409,433.678l2.8-19.4-12.084-8.765Z" transform="translate(-569.369 -377.528)"/><path class="a" d="M593.129,403.77l29.656.076L605.2,395.183Z" transform="translate(-569.369 -375.786)"/><path class="a" d="M564.583,422.98l19.318-3.329,4.414-14.14Z" transform="translate(-564.556 -377.528)"/><path class="b" d="M605.213,414.276l17.572-8.689-29.656-.076Z" transform="translate(-569.369 -377.528)"/><path class="b" d="M587.82,419.651l13.694,14.027-9.28-28.167Z" transform="translate(-568.474 -377.528)"/></g><g class="c" transform="translate(59.578 56.504)"><path class="a" d="M640.638,374.648l9.189,81.652V374.648Z" transform="translate(-640.638 -374.648)"/></g><g transform="translate(31.42 0)"><path class="a" d="M663.149,334.139l-11.458-23.217v38.766Z" transform="translate(-614.611 -310.922)"/><path class="b" d="M649.367,310.922l-11.458,23.217,11.458,15.549Z" transform="translate(-612.287 -310.922)"/><path class="a" d="M632.712,338.848l-25.622,3.723,37.08,11.826Z" transform="translate(-607.091 -315.631)"/><path class="a" d="M670.231,361.4l18.54-18.072-37.08,11.826Z" transform="translate(-614.611 -316.386)"/><path class="b" d="M688.771,342.571l-25.622-3.723L651.691,354.4Z" transform="translate(-614.611 -315.631)"/><path class="b" d="M624.126,389.314l22.917-12.048V357.55Z" transform="translate(-609.963 -318.784)"/><path class="b" d="M651.691,357.55l22.917,31.764L670.231,363.8Z" transform="translate(-614.611 -318.784)"/><path class="b" d="M607.091,343.326l18.54,18.072,18.54-6.246Z" transform="translate(-607.091 -316.386)"/><path class="a" d="M651.691,377.266l22.917,12.048L651.691,357.55Z" transform="translate(-614.611 -318.784)"/><path class="a" d="M628.5,363.8l-4.377,25.518,22.917-31.764Z" transform="translate(-609.963 -318.784)"/></g><rect class="d" width="32.804" height="13.343" transform="translate(52.603 126.657)"/><rect class="b" width="40.805" height="6.672" transform="translate(48.6 133.328)"/></g><g class="e" transform="translate(330 321)"><rect class="f" width="260" height="260" rx="8"/><rect class="g" x="0.5" y="0.5" width="259" height="259" rx="7.5"/></g></g></svg>