<svg xmlns="http://www.w3.org/2000/svg" width="260" height="260" viewBox="0 0 260 260"><defs><style>.a,.f{fill:none;}.a{stroke:#6264a7;}.b{fill:#7577b9;}.c{fill:#6264a7;}.d{fill:#bdbde6;}.e{stroke:none;}</style></defs><g transform="translate(-330 -706)"><g class="a" transform="translate(330 706)"><rect class="e" width="260" height="260" rx="8"/><rect class="f" x="0.5" y="0.5" width="259" height="259" rx="7.5"/></g><g transform="translate(140.777 18.129)"><path class="b" d="M59.6,15.766c.147-5.869.033-12.173.016-12.391H15.029c0,.217-.131,6.521.016,12.391H3.375C3.375,30.548,4.993,38,6.807,43.308A38.172,38.172,0,0,0,16.4,58.59c4.92,5.065,15.609,11.652,17.048,12.521v6.152c-.752,2.174-3.841,6.13-13.615,6.13H16.451V93.827H58.293V83.393h-4.2c-9.921,0-12.259-4.152-12.8-6.13V71.111c1.52-1,13.223-8.76,17.064-12.5A44.516,44.516,0,0,0,67.953,43.33c1.275-4.087,3.416-14.086,3.416-27.564ZM13.443,39a45.57,45.57,0,0,1-2.566-13.456h4.691c.114,1.3.229,2.456.376,3.543a122.265,122.265,0,0,0,4.2,20.977A31.193,31.193,0,0,1,13.443,39ZM61.3,39a31.335,31.335,0,0,1-6.8,11.152,120.539,120.539,0,0,0,4.217-21.064c.131-1.087.262-2.239.376-3.543h4.789A45.553,45.553,0,0,1,61.3,39Z" transform="translate(281.931 731.496)"/><rect class="c" width="35" height="14" rx="7" transform="translate(249.223 847.604)"/><rect class="c" width="35" height="13" rx="6.5" transform="translate(249.223 868.604)"/><rect class="c" width="35" height="13" rx="6.5" transform="translate(249.223 888.604)"/><rect class="d" width="98" height="14" rx="7" transform="translate(291.223 847.604)"/><rect class="d" width="98" height="13" rx="6.5" transform="translate(291.223 868.604)"/><rect class="d" width="98" height="13" rx="6.5" transform="translate(291.223 888.604)"/><path class="c" d="M50.471,15.766c.14-5.869.031-12.173.016-12.391H27.675c0,.152.7,79.545,0,90.452H49.226V83.393h-4c-9.443,0-11.668-4.152-12.181-6.13V71.111c1.447-1,12.586-8.76,16.242-12.5A44.918,44.918,0,0,0,58.42,43.33c1.213-4.087,3.251-14.086,3.251-27.564ZM52.089,39a31.645,31.645,0,0,1-6.472,11.152,125.912,125.912,0,0,0,4.014-21.064c.124-1.087.249-2.239.358-3.543h4.558A47.588,47.588,0,0,1,52.089,39Z" transform="translate(291.629 731.496)"/></g></g></svg>