<svg xmlns="http://www.w3.org/2000/svg" xmlns:xlink="http://www.w3.org/1999/xlink" width="146" height="146" viewBox="0 0 146 146"><defs><style>.a{fill:#fff;}.b{fill:#c7c7ec;}.c{fill:#464775;}.d{clip-path:url(#a);}.e{fill:#bdbde6;}</style><clipPath id="a"><rect class="a" width="125" height="124" rx="62" transform="translate(0.023 0.497)"/></clipPath></defs><g transform="translate(-33 -161)"><g transform="translate(-4 8)"><circle class="b" cx="73" cy="73" r="73" transform="translate(37 153)"/><g transform="translate(9 -29)"><g transform="translate(-2.384 95.633)"><g transform="translate(32 89)"><rect class="c" width="142" height="141" rx="70.5" transform="translate(0.384 0.367)"/><rect class="a" width="131" height="131" rx="65.5" transform="translate(5.384 5.367)"/></g></g><g class="d" transform="translate(37.977 197.503)"><g transform="translate(11.575 13.87)"><g transform="translate(0 0.196)"><path class="b" d="M96.494,92.976c-4.252-1.519-11.2-1.594-14.274-2.771-2.126-.835-5.5-1.746-6.606-3.075s-1.1-10.819-1.1-10.819a17.478,17.478,0,0,0,3.758-5.315c1.1-2.771,1.822-10.44,1.822-10.44s2.506,1.063,3.493-3.948c.835-4.328,2.43-6.606,2.012-9.794-.456-3.189-2.2-2.43-2.2-2.43s2.2-3.227,2.2-14.2c0-11.313-8.542-22.436-24.524-22.436-15.944,0-24.562,11.161-24.562,22.436,0,10.971,2.164,14.2,2.164,14.2s-1.784-.759-2.2,2.43c-.456,3.189,1.139,5.467,2.012,9.794.987,5.049,3.493,3.948,3.493,3.948s.721,7.631,1.822,10.44a17.478,17.478,0,0,0,3.758,5.315s0,9.491-1.1,10.819-4.48,2.24-6.606,3.037c-3.037,1.177-9.984,1.329-14.274,2.847A26.792,26.792,0,0,0,8.191,118.525H113.843A26.739,26.739,0,0,0,96.494,92.976Z" transform="translate(-8.191 -7.748)"/></g><path class="e" d="M107.281,92.924c-4.252-1.519-11.2-1.594-14.274-2.771-2.126-.835-5.5-1.746-6.606-3.075s-1.1-10.819-1.1-10.819a17.478,17.478,0,0,0,3.758-5.315c1.1-2.771,1.822-10.44,1.822-10.44s2.506,1.063,3.493-3.948c.835-4.328,2.43-6.606,2.012-9.794-.456-3.189-2.2-2.43-2.2-2.43s2.2-3.227,2.2-14.2c0-11.313-10.2-29.189-36.464-20.178-.592,10.354,29.137,108.519,29.137,108.519H124.63A26.739,26.739,0,0,0,107.281,92.924Z" transform="translate(-18.979 -7.501)"/></g></g></g></g></g></svg>