<svg xmlns="http://www.w3.org/2000/svg" xmlns:xlink="http://www.w3.org/1999/xlink" width="260" height="260" viewBox="0 0 260 260"><defs><style>.a,.i{fill:#fff;}.b,.k{fill:none;}.b{stroke:#6264a7;}.c{clip-path:url(#a);}.d{fill:#7577b9;}.e{fill:#bdbde6;}.f{fill:#ffc300;}.g{fill:#464775;}.h{fill:#ddddf2;}.i{stroke:#fff;}.j{stroke:none;}</style><clipPath id="a"><rect class="a" width="139" height="163"/></clipPath></defs><g transform="translate(-330 -1050)"><g class="b" transform="translate(330 1050)"><rect class="j" width="260" height="260" rx="8"/><rect class="k" x="0.5" y="0.5" width="259" height="259" rx="7.5"/></g><g transform="translate(-4 -23)"><g transform="translate(16 17.979)"><g class="c" transform="translate(379 1102.021)"><g transform="translate(0 -5.002)"><path class="d" d="M1200.256-579.183q-.6,10.46-1.2,20.921a11.872,11.872,0,0,1-.662,3.191q-6.073,17.734-12.147,35.468c-.805,2.356-.6,4.841-.762,7.266-.847,12.325-1.61,24.656-2.409,36.984a2.393,2.393,0,0,1-2.583,2.515q-16.142-.086-32.282-.227c-1.5-.013-2.365-.968-2.476-2.648-.374-5.662-.728-11.326-1.091-16.99-.541-8.452-1.071-16.9-1.638-25.355a18.526,18.526,0,0,0-1.389-4.613q-5.5-16.205-11.045-32.392a20.515,20.515,0,0,1-.747-5.689c-.586-11.118-1.126-22.237-1.68-33.357-.1-1.919-.216-3.837-.261-5.757a5.283,5.283,0,0,1,5.152-5.475,5.312,5.312,0,0,1,5.649,4.979c.461,7.888.855,15.781,1.275,23.672q.485,9.09.976,18.179a17.481,17.481,0,0,0,1.534,6.591c4.148,6.882,5.993,13.025,16.872,15.562,1.884,5.29,11.724,1.146,13.551,6.457.209.608,2.142,8.736,1.9,9.362-1.733,4.52-12.2,2.429-8.417,5.324,3.7,2.833.092-.063,3.868-2.843s3.962,3.121,2.346-1.372c-.243-.676.84.647,1.071,0,2.92-8.2-8.979-8.723-6.067-16.929,7.3-.825,14.368-7.051,15.416-8.969,3.977-4.755,5.221-10,5.55-15.87.716-12.77,1.6-25.531,2.437-38.295.218-3.327,1.59-5.156,4.177-5.7a5.069,5.069,0,0,1,6.218,5.089c-.134,4.1-.416,8.2-.643,12.294-.159,2.877-.334,5.753-.5,8.629Z" transform="translate(-1127.88 659.99)"/><path class="d" d="M1190.463-515.285a15.037,15.037,0,0,1-14.788-15.3,15.015,15.015,0,0,1,15.491-14.713,15,15,0,0,1,14.508,15.417A15.028,15.028,0,0,1,1190.463-515.285Z" transform="translate(-1154.71 639.591)"/><g transform="translate(66.495 96.818)"><path class="e" d="M1290.29-382.141q0-10.61,0-21.221a7.867,7.867,0,0,0-.032-1.177,1.5,1.5,0,0,0-1.62-1.386,1.474,1.474,0,0,0-1.56,1.3,8.651,8.651,0,0,0-.064,1.436q0,20.3.023,40.607c0,1.087-.25,1.468-1.349,1.351a17.1,17.1,0,0,1-3.629-.273,5.4,5.4,0,0,1-3.855-5.061c-.023-12.575-.2-25.155.072-37.724.164-7.5,4.073-13.066,10.569-16.8,2.492-1.756,11.649-2.532,11.963-1.851,2.564,5.578,14.31-3.416,16.935,2.132.29.612-2.594,1.791-2.778,2.321-1.825,5.254-10,13.982-4.721,15.715,5.234,1.721-5.217,2.162-3.6-3.158.606-1.989.69-1.571,0-3.516-.238-.668,3.292-1.923,3.6-2.57,2.56-5.435,1.106-5.647,3.594-11.115,4.574-.7,10.9,1.916,11.563,2.322,6.432,3.939,10.037,9.631,10.117,17.217.129,12.224.04,24.451.022,36.677a5.45,5.45,0,0,1-5.567,5.661c-3.2.077-3.2.077-3.2-3.1q0-19.518,0-39.036a5.617,5.617,0,0,0-.1-1.3,1.5,1.5,0,0,0-1.613-1.244,1.557,1.557,0,0,0-1.6,1.436,7.86,7.86,0,0,0-.024,1.177q0,21.221,0,42.442c0,2.531-.726,3.269-3.249,3.292q-13.263.122-26.527.237c-2.613.021-3.373-.744-3.373-3.318Q1290.289-371.4,1290.29-382.141Z" transform="translate(-1278.125 447.534)"/><path class="e" d="M1326.03-469a13.075,13.075,0,0,1-13.015-13.206,13.11,13.11,0,0,1,13.088-13.023,13.165,13.165,0,0,1,13.1,13.162A13.121,13.121,0,0,1,1326.03-469Z" transform="translate(-1297.379 495.226)"/></g><path class="e" d="M1326.3-426.093h13.817c.232.319-.017.53-.116.744q-2.991,6.442-6.007,12.874c-.156.333-.18.863-.664.866s-.518-.526-.673-.858C1330.562-416.946,1328.476-421.431,1326.3-426.093Z" transform="translate(-1237.861 546.971)"/><path class="d" d="M1205.847-456.037l-4.216,11.067c-.093.243-.176.491-.287.727-.123.263-.136.658-.52.676s-.461-.361-.56-.632c-1.473-3.994-2.935-7.992-4.464-12.166a39.584,39.584,0,0,0,4.977.644A32.1,32.1,0,0,0,1205.847-456.037Z" transform="translate(-1164.858 579.026)"/><path class="f" d="M1176.554-465.691l-.179.011.049-.158.106.18Z" transform="translate(-1154.282 584.174)"/><path class="f" d="M1236.4-462.777l.146-.169c.009.042.036.091.023.125-.048.121-.118.122-.191.011Z" transform="translate(-1186.949 582.603)"/><g transform="translate(52.283 0) rotate(49)"><path class="g" d="M42.567,9.423c.106-4.441.015-9.211,0-9.375L8.821.01c0,.164-.093,4.934.023,9.375L.01,9.375C.023,20.56,1.254,26.2,2.631,30.218A28.966,28.966,0,0,0,9.906,41.789c3.728,3.837,11.824,8.829,12.914,9.488l.005,4.655c-.567,1.644-2.9,4.635-10.3,4.627l-2.561,0,.009,7.9,31.67.035-.009-7.9-3.179,0c-7.509-.008-9.282-3.152-9.692-4.649l-.005-4.655c1.15-.755,10-6.617,12.9-9.443a33.582,33.582,0,0,0,7.249-11.555A75.772,75.772,0,0,0,51.474,9.433ZM7.651,26.967A34.514,34.514,0,0,1,5.7,16.783l3.551,0c.088.987.175,1.859.288,2.681a92.606,92.606,0,0,0,3.2,15.876A23.67,23.67,0,0,1,7.651,26.967Zm36.223.04a23.64,23.64,0,0,1-5.137,8.432A91.063,91.063,0,0,0,41.91,19.5c.1-.822.2-1.694.282-2.681l3.625,0A34.415,34.415,0,0,1,43.873,27.007Z" transform="translate(0 0)"/><path class="d" d="M17.264,9.395c.1-4.441.013-9.211,0-9.375L0,0C0,.115.594,60.188.076,68.441l16.312.018-.009-7.9-3.026,0c-7.147-.008-8.835-3.151-9.225-4.649l-.005-4.655c1.094-.755,9.519-6.618,12.283-9.444a33.887,33.887,0,0,0,6.9-11.555A79.373,79.373,0,0,0,25.742,9.4Zm.892,17.389c-1.424,3.309-2.456,5.746-4.526,7.981A86.324,86.324,0,0,0,16.64,19.477c.093-.822.187-1.694.268-2.681l3.164.056A34.086,34.086,0,0,1,18.157,26.784Z" transform="translate(25.732 0.029)"/></g><g transform="translate(22.168 119.281)"><g transform="translate(0 0)"><path class="g" d="M1197.844-406.565a7.3,7.3,0,0,1-7.218-7.269,7.343,7.343,0,0,1,7.328-7.315,7.35,7.35,0,0,1,7.222,7.292A7.309,7.309,0,0,1,1197.844-406.565Z" transform="translate(-1184.21 440.608)"/><path class="g" d="M1176.64-465.477c1.809.893,3.374,2.2,5.272,2.941.525.2.632.69.795,1.12,2,5.306,3.975,10.624,6.018,15.915.336.87.317,1.277-.659,1.628a12.309,12.309,0,0,0-3.337,2.079c-1.4-3.956-2.75-7.754-4.086-11.557q-1.9-5.425-3.774-10.861c-.143-.416-.527-.814-.2-1.306Z" transform="translate(-1176.541 465.517)"/><path class="g" d="M1226.964-462.648c.28.316.052.63-.043.908q-3.709,10.93-7.446,21.85a3.705,3.705,0,0,1-.229.453c-.666-.484-1.291-.981-1.955-1.413-2.226-1.45-2.228-1.44-1.257-4.089,1.671-4.556,3.368-9.1,4.983-13.681a3.024,3.024,0,0,1,1.869-1.993c1.4-.571,2.739-1.32,4.1-1.993Z" transform="translate(-1199.729 463.16)"/></g></g><g transform="translate(81.336 120.949)"><g transform="translate(0 0)"><path class="g" d="M1333.825-387.039a6.457,6.457,0,0,1,6.444,6.633,6.473,6.473,0,0,1-6.566,6.385,6.547,6.547,0,0,1-6.48-6.5A6.545,6.545,0,0,1,1333.825-387.039Z" transform="translate(-1319.698 404.799)"/><path class="g" d="M1314.538-425.919c.582-.1.8.277,1,.7q4.126,8.868,8.266,17.728c.3.636.282,1.008-.446,1.255a6.162,6.162,0,0,0-1.171.634c-2.092,1.28-2.088,1.281-3.1-.9-2.683-5.759-5.346-11.527-8.075-17.264-.478-1.005-.5-1.479.75-1.609C1312.691-425.47,1313.611-425.732,1314.538-425.919Z" transform="translate(-1310.702 425.937)"/><path class="g" d="M1363.233-424.522c-.131.3-.233.555-.348.8-2.841,6.094-5.7,12.18-8.506,18.29-.439.956-.8,1.167-1.539.324a4.239,4.239,0,0,0-.93-.664c-1.9-1.215-1.9-1.211-.9-3.35,2.311-4.954,4.693-9.875,6.878-14.883.666-1.525,1.431-1.969,2.926-1.446.615.215,1.276.291,1.9.475C1362.94-424.908,1363.276-424.858,1363.233-424.522Z" transform="translate(-1334.918 425.785)"/></g></g><g transform="translate(32.657 142.817)"><path class="h" d="M4.365.218l-.8,1.627-1.789.262a.394.394,0,0,0-.217.671L2.854,4.045,2.548,5.833a.392.392,0,0,0,.568.414l1.6-.844,1.6.844a.392.392,0,0,0,.568-.414L6.579,4.045,7.873,2.779a.394.394,0,0,0-.217-.671L5.868,1.846,5.068.218A.391.391,0,0,0,4.365.218Z" transform="translate(-1.441 0.001)"/></g><g transform="translate(92.22 141.918)"><path class="h" d="M4.365.218l-.8,1.627-1.789.262a.394.394,0,0,0-.217.671L2.854,4.045,2.548,5.833a.392.392,0,0,0,.568.414l1.6-.844,1.6.844a.392.392,0,0,0,.568-.414L6.579,4.045,7.873,2.779a.394.394,0,0,0-.217-.671L5.868,1.846,5.068.218A.391.391,0,0,0,4.365.218Z" transform="translate(-1.441 0.001)"/></g></g></g><g class="i" transform="translate(479 1233.021)"><circle class="j" cx="18" cy="18" r="18"/><circle class="k" cx="18" cy="18" r="17.5"/></g><g transform="translate(484.317 1236.584)"><path class="g" d="M1872.852,420.862a12.951,12.951,0,0,1-25.811,1.816,12.131,12.131,0,0,1,4.04-10.595,2.2,2.2,0,0,1,3.19.123,2.172,2.172,0,0,1-.041,3.248,8.064,8.064,0,0,0,3.721,13.524,8.039,8.039,0,0,0,8.9-3.767,7.819,7.819,0,0,0-1.036-9.415c-.17-.183-.344-.363-.5-.555-1.084-1.319-1.14-2.415-.179-3.415.992-1.032,2.154-1.055,3.5.034a10.925,10.925,0,0,1,4.006,6.659A10.724,10.724,0,0,1,1872.852,420.862Z" transform="translate(-1846.946 -405.82)"/><path class="g" d="M1903.395,390.781c0-1.589-.007-3.179,0-4.768.009-1.661.9-2.7,2.3-2.717s2.342,1.03,2.348,2.666q.016,4.908,0,9.815a2.342,2.342,0,1,1-4.643-.042C1903.386,394.084,1903.4,392.432,1903.395,390.781Z" transform="translate(-1892.756 -383.296)"/></g></g></g></g></svg>