<svg xmlns="http://www.w3.org/2000/svg" width="260" height="260" viewBox="0 0 260 260"><defs><style>.a,.f{fill:none;}.a{stroke:#6264a7;}.b{fill:#6264a7;}.c{fill:#7577b9;}.d{fill:#bdbde6;}.e{stroke:none;}</style></defs><g transform="translate(-1004 -709)"><g class="a" transform="translate(1004 709)"><rect class="e" width="260" height="260" rx="8"/><rect class="f" x="0.5" y="0.5" width="259" height="259" rx="7.5"/></g><g transform="translate(821.45 721.856)"><path class="b" d="M284.511,78.181l.028-1.083c12.313-.038,24.626-.024,36.938-.158,2.425-.026,3.884.385,3.419,3.205a1.2,1.2,0,0,0,.973,1.492c.694,3.915,3.521,6.068,6.924,6.9,2.133.52,4.382-1.026,6.088-2.675a7.686,7.686,0,0,0,2.024-3.646c.992-.262,1.032-1.087.9-1.82-.574-3.192,1.158-3.59,3.752-3.432,2.947.179,5.913.062,8.87.073,6.911,2.244,10.774,7,11.7,14.185-1.22.842-1.292,1.647.078,2.405q0,11.614,0,23.227c-1.213.75-1.539,1.5,0,2.25.087,1.737-.943,1.574-2.033,1.144-1.746-.69-3.467-1.442-5.2-2.168l-.553-.574c-.531-3.483-.133-6.988-.232-10.481-.11-3.869-1.5-5.321-5.394-5.323q-47.357-.022-94.715,0c-3.87,0-5.334,1.466-5.338,5.349q-.028,30.009,0,60.017c0,4.092,1.385,5.444,5.507,5.447q26.878.017,53.757.01c1.035,0,2.07.112,3.106.172.117.293.276.444.56.161l3.536,4.826c-.371,2.047-2.011,1.364-3.187,1.366q-30.41.055-60.82.043c-1.1,0-2.288-.364-3.285.466-4.76-1.5-7.322-4.715-7.328-9.574q-.052-38.559.012-77.118a16.433,16.433,0,0,1,14.154-16.343,10.982,10.982,0,0,0,.89.668c1.948,1.184,3.845-.091,5.758-.195,2.24-.122,3.349.452,3.1,2.928-.1.962-.661,2.355.966,2.845,2.019,4.007,4.62,5.753,8.068,5.417,3.578-.348,5.876-2.7,6.951-7.113C285.907,80.122,285.883,79.157,284.511,78.181Z" transform="translate(0 -8.336)"/><path class="b" d="M434.66,189.288a31.59,31.59,0,1,1-31.2-31.8A31.51,31.51,0,0,1,434.66,189.288Zm-6.3-4.051a25.58,25.58,0,0,0-17.639-20.554c-4.425-1.366-4.439-1.374-5.041,2.991-.213,1.539-1.013,2.481-2.576,2.479a2.444,2.444,0,0,1-2.608-2.449,7.889,7.889,0,0,1,0-1.988c.309-1.988-.6-2.17-2.254-1.781-9.728,2.287-16.321,8.03-19.516,17.553-.511,1.522-1.434,3.3-.747,4.632.492.953,2.469.223,3.775.364a2.587,2.587,0,0,1-.056,5.168,7.828,7.828,0,0,1-1.705,0c-2.234-.321-2.417.61-1.949,2.562q3.511,14.657,17.756,19.33c4.19,1.374,4.242,1.29,4.678-2.883.175-1.674.973-2.708,2.687-2.655s2.521,1.112,2.516,2.806a9.606,9.606,0,0,1-.008,1.421c-.318,2.055.557,2.363,2.393,1.93,9.75-2.3,16.273-8.108,19.43-17.629.473-1.426,1.38-3.086.731-4.371-.607-1.2-2.41-.25-3.655-.508-.092-.019-.19-.007-.283-.023a2.579,2.579,0,0,1,.095-5.131,18.778,18.778,0,0,1,2.842-.027C428.3,186.541,428.557,186.039,428.358,185.237Z" transform="translate(-54.6 -43.162)"/><path class="c" d="M290.624,153.9c-2.551,0-5.106-.081-7.652.032-1.632.072-2.173-.538-2.115-2.12.09-2.454.067-4.914.01-7.37-.034-1.451.528-1.99,2-1.973q8.078.093,16.157,0c1.392-.014,1.818.563,1.792,1.858-.05,2.55-.068,5.1.01,7.653.045,1.478-.509,1.992-1.985,1.942C296.106,153.834,293.364,153.9,290.624,153.9Z" transform="translate(-15.615 -36.704)"/><path class="c" d="M290.868,185.867c-2.645,0-5.292-.05-7.936.021-1.382.037-2.127-.307-2.079-1.871.079-2.548.067-5.1,0-7.652-.038-1.5.611-1.937,2.045-1.921,5.291.061,10.583.08,15.873-.009,1.69-.028,2.109.656,2.054,2.182-.084,2.359-.117,4.729.014,7.084.1,1.809-.631,2.279-2.321,2.2C295.975,185.777,293.419,185.867,290.868,185.867Z" transform="translate(-15.614 -50.453)"/><path class="c" d="M290.737,205.6c2.657,0,5.315.071,7.969-.026,1.642-.06,2.178.6,2.122,2.175-.083,2.369-.116,4.748.007,7.113.094,1.81-.665,2.237-2.339,2.209-5.122-.087-10.247-.1-15.368.006-1.764.035-2.361-.57-2.29-2.286.1-2.368.087-4.745,0-7.114-.059-1.646.654-2.153,2.213-2.1C285.612,205.662,288.176,205.6,290.737,205.6Z" transform="translate(-15.607 -63.846)"/><path class="c" d="M343.379,153.905c-2.646,0-5.294-.051-7.938.018-1.352.036-1.868-.484-1.842-1.818.051-2.645.032-5.293.006-7.939-.012-1.195.507-1.684,1.708-1.679,5.482.028,10.964.04,16.446-.01,1.368-.013,1.834.515,1.8,1.842-.064,2.551-.08,5.106.006,7.655.051,1.481-.475,2.01-1.964,1.96C348.864,153.842,346.12,153.907,343.379,153.905Z" transform="translate(-38.304 -36.706)"/><path class="c" d="M343.812,174.457c2.556,0,5.117.085,7.669-.027,1.66-.073,1.988.6,2.113,2.147.264,3.251-1.886,5.686-2.557,8.6-.238,1.033-1.23.671-1.924.675-4.45.026-8.9-.033-13.351.039-1.549.025-2.257-.407-2.184-2.08.107-2.458.075-4.925.006-7.385-.041-1.459.5-2.038,1.99-2C338.318,174.51,341.065,174.454,343.812,174.457Z" transform="translate(-38.293 -50.449)"/><path class="d" d="M400.964,66.757c0,1.889.075,3.781-.018,5.665a4.383,4.383,0,1,1-8.766-.069c-.1-3.681-.177-7.374.03-11.046.188-3.327,1.523-4.159,5.1-4.163,2.409,0,3.579,1.853,3.651,4.23.055,1.793.011,3.588.011,5.383Z" transform="translate(-63.461)"/><path class="d" d="M301.53,74.712a3.95,3.95,0,0,1-5.088,1.874,4.334,4.334,0,0,1-3.043-4.6c.039-3.4.01-6.8.015-10.2,0-2.194.785-4.134,3.084-4.412,2.249-.274,4.9-.457,5.514,2.837a2.609,2.609,0,0,0-.531,2.11Q301.5,68.52,301.53,74.712Z" transform="translate(-21.012 -0.043)"/><path class="b" d="M257.477,255.92c1-.83,2.185-.465,3.285-.466q30.41-.033,60.82-.043c1.176,0,2.816.681,3.187-1.366,1.19,1.179.908,1.99-.662,2.336a9.409,9.409,0,0,1-1.982.032q-30.375,0-60.75,0A8.052,8.052,0,0,1,257.477,255.92Z" transform="translate(-5.56 -84.698)"/><path class="b" d="M356.054,81.23a1.2,1.2,0,0,1-.973-1.492c.465-2.82-.994-3.232-3.419-3.205-12.312.134-24.625.12-36.938.158.491-1.616,1.855-1,2.852-1,11.65-.044,23.3.065,34.95-.093,2.875-.039,4.078.748,3.6,3.652A14.981,14.981,0,0,0,356.054,81.23Z" transform="translate(-30.185 -7.929)"/><path class="b" d="M427.16,76.706c-2.957-.011-5.923.107-8.87-.073-2.593-.158-4.326.24-3.752,3.432.132.733.092,1.558-.9,1.82.229-6.129.229-6.132,6.365-6.129C422.43,75.756,424.872,75.657,427.16,76.706Z" transform="translate(-72.734 -8.005)"/><path class="b" d="M280.188,82.432c-1.627-.49-1.064-1.882-.966-2.845.251-2.476-.858-3.05-3.1-2.928-1.913.1-3.81,1.378-5.758.195a10.982,10.982,0,0,1-.89-.668c2.867-.794,5.8-.256,8.7-.407,1.315-.068,1.846.576,1.846,1.871C280.016,79.244,280.126,80.838,280.188,82.432Z" transform="translate(-10.722 -7.999)"/><path class="d" d="M307.628,76.956q-.025-6.192-.048-12.385a2.609,2.609,0,0,1,.53-2.11C308.539,67.313,309.3,72.175,307.628,76.956Z" transform="translate(-27.11 -2.287)"/><path class="b" d="M314.656,79.432c1.372.977,1.4,1.941-.025,2.893Q314.643,80.879,314.656,79.432Z" transform="translate(-30.145 -9.587)"/><g transform="translate(325.704 105.788)"><path class="c" d="M407.042,145.23a44.887,44.887,0,0,0-18.069,6.489c-1.13-3.074-1.27-6.1.44-9.036l16.683,0C405.716,143.791,406.5,144.467,407.042,145.23Z" transform="translate(-387.464 -142.584)"/><path class="c" d="M388.914,142.608c-1.71,2.936-1.57,5.962-.44,9.036-.61.541-1.424,1.922-1.483-.264-.064-2.42.011-4.843-.02-7.264C386.953,142.7,387.634,142.3,388.914,142.608Z" transform="translate(-386.964 -142.508)"/><path class="c" d="M420.532,145.231c-.545-.763-1.326-1.438-.945-2.545C421.494,142.942,421.1,144.056,420.532,145.231Z" transform="translate(-400.953 -142.585)"/></g><path class="b" d="M457.26,149.549c-1.539-.75-1.213-1.5,0-2.25Z" transform="translate(-91.053 -38.781)"/><path class="b" d="M457.278,104.723c-1.369-.758-1.3-1.563-.078-2.405Q457.239,103.521,457.278,104.723Z" transform="translate(-91.072 -19.432)"/><g transform="translate(295.265 141.691)"><path class="c" d="M334.647,205.823l2.212-.013c.49,1.208,1.56.812,2.432.827,3.37.058,6.742.06,10.112.083.023,3-.228,6.017.455,8.981.341,1.479-.452,1.572-1.554,1.342-.652-.75-1.539-.577-2.367-.576-4.039,0-8.079.027-12.118.043a56.282,56.282,0,0,1-.117-9.761A1.076,1.076,0,0,0,334.647,205.823Z" transform="translate(-333.548 -205.641)"/><path class="c" d="M334.026,224.541c4.039-.016,8.079-.039,12.118-.043.828,0,1.715-.174,2.367.576q-6.567.077-13.134.15C334.818,225.23,334.235,225.246,334.026,224.541Z" transform="translate(-333.754 -213.672)"/><path class="c" d="M351.9,206.592c-3.371-.023-6.742-.025-10.112-.083-.872-.015-1.942.381-2.432-.827,3.72-.054,7.44-.119,11.16-.154C351.212,205.522,352.15,205.321,351.9,206.592Z" transform="translate(-336.048 -205.513)"/><path class="c" d="M334.762,205.829a1.076,1.076,0,0,1-.944.927C333.773,206.081,334.1,205.789,334.762,205.829Z" transform="translate(-333.662 -205.648)"/></g><path class="d" d="M444.38,148.441l.553.574C444.55,149.015,444.351,148.838,444.38,148.441Z" transform="translate(-85.957 -39.272)"/><path class="d" d="M368.939,245.455c-.283.283-.442.133-.56-.161Z" transform="translate(-53.265 -80.934)"/><path class="d" d="M433.076,189.982c.2.8-.06,1.3-1.136,1.242a18.777,18.777,0,0,0-2.842.027,2.579,2.579,0,0,0-.095,5.131c.093.016.191,0,.283.023,1.245.258,3.048-.694,3.655.508.649,1.284-.258,2.944-.731,4.371-3.157,9.521-9.68,15.333-19.43,17.629-1.835.433-2.711.125-2.393-1.93a9.6,9.6,0,0,0,.008-1.421c.005-1.694-.807-2.754-2.516-2.806s-2.512.981-2.687,2.655c-.436,4.173-.488,4.257-4.678,2.883q-14.261-4.674-17.756-19.33c-.467-1.952-.284-2.883,1.949-2.562a7.826,7.826,0,0,0,1.705,0,2.587,2.587,0,0,0,.056-5.168c-1.307-.14-3.283.59-3.775-.364-.687-1.331.237-3.11.747-4.632,3.2-9.523,9.788-15.266,19.516-17.553,1.654-.389,2.563-.206,2.254,1.781a7.893,7.893,0,0,0,0,1.988,2.444,2.444,0,0,0,2.608,2.449c1.563,0,2.363-.94,2.576-2.479.6-4.365.616-4.357,5.041-2.991A25.58,25.58,0,0,1,433.076,189.982Zm-26.723,5.706c4.657,2.307,9.324,4.592,13.965,6.931,1.518.765,2.995,1.088,3.914-.658,1.04-1.974-.379-2.935-1.924-3.693-3.4-1.664-6.772-3.369-10.206-4.947a2.705,2.705,0,0,1-1.9-3c.164-2.451-.005-4.923.06-7.383.048-1.833-.291-3.215-2.552-3.1-2.289.121-2.5,1.567-2.177,3.371-.063,3.677-.12,7.354-.2,11.031A1.237,1.237,0,0,0,406.353,195.688Z" transform="translate(-59.317 -47.907)"/><g transform="translate(346.013 131.928)"><path class="b" d="M422.857,191.758c-.328-1.8-.112-3.249,2.177-3.371,2.261-.12,2.6,1.262,2.552,3.1-.065,2.46.1,4.931-.06,7.383a2.705,2.705,0,0,0,1.9,3c3.434,1.578,6.811,3.283,10.206,4.947,1.545.757,2.964,1.719,1.924,3.693-.92,1.746-2.4,1.423-3.914.658-4.641-2.339-9.308-4.624-13.965-6.931-.033-2.734.012-5.472-.13-8.2C423.479,194.6,424.206,192.995,422.857,191.758Z" transform="translate(-422.661 -188.38)"/><path class="b" d="M422.8,194.308c1.348,1.237.621,2.844.7,4.276.142,2.728.1,5.466.13,8.2a1.237,1.237,0,0,1-1.022-1.445C422.68,201.662,422.737,197.985,422.8,194.308Z" transform="translate(-422.604 -190.93)"/></g></g></g></svg>