<svg xmlns="http://www.w3.org/2000/svg" width="260" height="260" viewBox="0 0 260 260"><defs><style>.a,.o{fill:none;}.a{stroke:#6264a7;}.b{fill:#6264a7;}.c{fill:#353535;}.d{fill:#1f1f1f;}.e{fill:#f0f0f0;}.f{fill:#f2f2f2;}.g{fill:#f9f9f9;}.h{fill:#f7f7f7;}.i{fill:#f4f4f4;}.j{fill:#fff;}.k{fill:#fbfbfb;}.l{fill:#bdbde6;}.m{fill:#7577b9;}.n{stroke:none;}</style></defs><g transform="translate(-677 -709)"><g class="a" transform="translate(677 709)"><rect class="n" width="260" height="260" rx="8"/><rect class="o" x="0.5" y="0.5" width="259" height="259" rx="7.5"/></g><g transform="translate(256.822 651.645)"><path class="b" d="M619.189,161v1.654c-1.311,1.407-.72,3.147-.723,4.73q-.1,56.32-.132,112.641H483.124l-.707-.745c-.031-38.329-.009-76.659-.174-114.987-.017-3.785,2.151-3.012,4.222-3.012q64.328-.014,128.655-.018C616.477,161.263,617.833,161.092,619.189,161Zm-97.711,14.579c-4.945,0-9.891.074-14.834-.03-2.689-.057-4.062.759-4.031,3.752.105,10.195.073,20.391.017,30.587-.013,2.41.9,3.566,3.373,3.558q15.452-.052,30.9.01c2.649.015,3.711-1.191,3.7-3.752-.03-10.057-.062-20.116.018-30.173.025-3.116-1.425-4.065-4.318-3.988C531.37,175.673,526.423,175.579,521.478,175.579ZM521.5,228c-4.935,0-9.874.124-14.8-.045-3.07-.106-4.109,1.132-4.077,4.123q.158,14.849,0,29.7c-.029,2.918.9,4.288,4,4.256,10.006-.1,20.014-.082,30.021-.011,2.812.02,3.98-1.212,3.971-3.958-.034-10.038-.049-20.076.008-30.114.017-3.052-1.385-4.082-4.316-3.993C531.369,228.107,526.431,228,521.5,228Zm58.563.012c-5.084,0-10.171.1-15.252-.039-3.06-.085-4.144,1.225-4.119,4.186q.125,14.885,0,29.772c-.026,3.075,1.35,4.11,4.268,4.085q14.84-.125,29.679,0c3.053.028,4.079-1.266,4.046-4.241q-.167-14.885,0-29.771c.037-3.118-1.249-4.121-4.2-4.031C589.68,228.116,584.868,228.01,580.059,228.01Zm18.584-33.505c0-4.958-.128-9.921.047-14.872.11-3.121-1.2-4.1-4.149-4.071q-14.826.146-29.654,0c-2.918-.027-4.246.961-4.211,4.063.11,9.914.088,19.832.01,29.747-.022,2.73.9,4.082,3.786,4.064q15.24-.1,30.479,0c2.923.022,3.8-1.324,3.73-4.065C598.55,204.423,598.643,199.462,598.643,194.505Z" transform="translate(-0.011 -9.782)"/><path class="b" d="M502.883,105.355h5.774c8.208,4.408,10.558,10.431,7.741,19.838-3.32,1.594-4.745.619-4.411-3.117a35.286,35.286,0,0,0-.017-5.783c-.27-3.554-2.424-5.6-5.818-5.813-3.452-.213-5.745,1.779-6.446,5.165-1.782,8.6-.52,10.135,8.034,10.146a10.141,10.141,0,0,0,1.646-.012c2.307-.377,2.754.8,2.649,2.818-.135,2.611-.076,5.236.007,7.852a2.522,2.522,0,0,0,2.548,2.693,2.136,2.136,0,0,0,2.4-2.26c-.163-3.922.953-7.928-.7-11.759,4.95,1.433,10.035.1,15,.72,4.084.507,5.218-1.032,4.784-4.921-.807-7.251,1.443-12.942,8.868-15.567h5.774c6.319,3.2,8.756,8.419,8.078,15.35a32.715,32.715,0,0,0,.157,4.49c-1.868.54-3.726.847-5.53-.224a88.712,88.712,0,0,0-.078-9.415c-.359-3.319-2.76-5.053-5.953-5.083a5.531,5.531,0,0,0-5.9,4.677c-.632,3.34-1.418,7.211.292,9.976,1.175,1.9,4.839.46,7.383.623a28.428,28.428,0,0,0,4.04-.294q.118,5.108.238,10.218c.044,1.772.506,3.476,2.562,3.535,2.273.065,2.857-1.667,2.879-3.638q.056-5.116.119-10.231c4.747.936,9.565-.007,14.305.5,3.711.395,4.9-.893,4.448-4.529-.885-7.211,1.031-13.074,8.425-15.953h5.774c6.249,2.9,9,7.718,8.328,14.649a14.981,14.981,0,0,0,.316,6.46,6.132,6.132,0,0,0-5.775-.116c.821-3.382.452-6.825.285-10.216a5.8,5.8,0,0,0-5.146-5.6,5.536,5.536,0,0,0-6.44,3.283c-1.555,3.493-.683,7.294-.587,10.952.042,1.576,1.7.916,2.674,1.007,3.1.289,6.25-.52,9.322.48.1,3.11.244,6.228.249,9.347,0,1.827.381,3.459,2.453,3.5,2.051.045,2.566-1.51,2.617-3.373.084-3.108-.4-6.238.31-9.325,5.9-1.284,11.854-.532,17.791-.405q-.008,10.329-.016,20.658c-10.013.059-20.026.163-30.04.169-33.9.022-67.8-.066-101.7.112-3.768.02-4.72-1.042-4.352-4.547a83.309,83.309,0,0,0,.061-8.668c0-7.936.013-8.211,7.808-7.834,4.079.2,4.935-1.368,4.486-4.868C493.687,113.873,495.946,108.359,502.883,105.355Z" transform="translate(0)"/><path class="c" d="M646.964,280.469l-.858-.112q.052-56.321.132-112.641c0-1.583-.59-3.323.725-4.73Z" transform="translate(-27.786 -10.114)"/><path class="d" d="M646.148,130.156l.82.034v20.683l-.836-.059Q646.141,140.486,646.148,130.156Z" transform="translate(-27.79 -4.151)"/><path class="e" d="M525.683,178.5c4.958,0,9.918.095,14.871-.036,2.9-.077,4.354.873,4.329,3.988-.081,10.057-.048,20.116-.018,30.173.008,2.56-1.057,3.767-3.713,3.752q-15.491-.086-30.983-.01c-2.48.008-3.395-1.147-3.381-3.558.056-10.2.088-20.392-.018-30.587-.031-2.993,1.346-3.808,4.042-3.752C515.767,178.576,520.726,178.5,525.683,178.5Zm.067,32.677c3.844,0,7.691-.08,11.532.035,1.814.054,2.334-.586,2.316-2.355-.08-7.555-.093-15.112.007-22.666.027-1.962-.543-2.591-2.536-2.564q-11.324.157-22.653,0c-2.027-.03-2.526.645-2.5,2.575q.148,11.332,0,22.666c-.02,1.77.455,2.414,2.3,2.352C518.059,211.088,521.906,211.178,525.75,211.178Z" transform="translate(-4.116 -12.459)"/><path class="f" d="M525.7,241.456c4.947,0,9.9.109,14.841-.041,2.938-.089,4.344.942,4.327,3.993-.057,10.037-.042,20.076-.008,30.114.009,2.746-1.162,3.978-3.981,3.958-10.032-.071-20.066-.092-30.1.011-3.111.032-4.038-1.338-4.009-4.256q.151-14.85,0-29.7c-.032-2.991,1.01-4.229,4.087-4.123C515.8,241.58,520.755,241.456,525.7,241.456Zm.005,5.071c-3.718,0-7.438.084-11.151-.036-1.873-.06-2.686.37-2.655,2.465.112,7.575.088,15.153.012,22.729-.018,1.862.381,2.708,2.492,2.675q11.357-.172,22.717-.006c2.122.028,2.5-.917,2.485-2.736-.062-7.438-.09-14.878.016-22.316.03-2.113-.542-2.925-2.765-2.823C533.147,246.65,529.425,246.526,525.707,246.526Z" transform="translate(-4.117 -23.239)"/><path class="g" d="M596.117,241.471c4.821,0,9.646.106,14.463-.039,2.958-.09,4.247.913,4.21,4.031q-.179,14.884,0,29.771c.033,2.975-1,4.269-4.057,4.241q-14.876-.132-29.755,0c-2.926.025-4.3-1.01-4.279-4.085q.124-14.885,0-29.772c-.025-2.962,1.062-4.271,4.13-4.186C585.92,241.574,591.02,241.471,596.117,241.471Zm-.047,32.872c3.571,0,7.149-.138,10.71.049,2.375.124,3.019-.7,2.975-3.016-.138-7.28-.191-14.57.022-21.848.08-2.743-.951-3.114-3.312-3.067-7.14.139-14.285.151-21.424-.005-2.481-.054-3.343.569-3.278,3.183.179,7.142.15,14.293.012,21.437-.047,2.43.522,3.477,3.172,3.322C588.643,274.183,592.362,274.344,596.071,274.343Z" transform="translate(-16.169 -23.243)"/><path class="h" d="M614.746,197.432c0,4.957-.094,9.918.037,14.872.072,2.741-.809,4.087-3.739,4.065q-15.278-.114-30.557,0c-2.893.018-3.818-1.334-3.8-4.064.078-9.915.1-19.832-.01-29.747-.035-3.1,1.3-4.09,4.222-4.063q14.865.134,29.73,0c2.954-.029,4.27.95,4.16,4.071C614.618,187.511,614.746,192.474,614.746,197.432ZM595.817,183.65c-3.571,0-7.149.129-10.711-.045-2.388-.117-3.415.393-3.34,3.11.2,7.141.142,14.291.022,21.436-.037,2.222.429,3.165,2.908,3.112,7.414-.155,14.834-.127,22.249-.011,2.086.032,2.848-.445,2.8-2.694q-.215-11.127,0-22.26c.043-2.252-.723-2.777-2.809-2.69C603.239,183.761,599.526,183.65,595.817,183.65Z" transform="translate(-16.166 -12.464)"/><path class="i" d="M519.877,126.22l-.093-.063c1.642,3.823.523,7.83.686,11.752a2.139,2.139,0,0,1-2.405,2.26,2.525,2.525,0,0,1-2.555-2.693c-.082-2.615-.142-5.241-.007-7.852.1-2.02-.343-3.195-2.656-2.818a10.193,10.193,0,0,1-1.65.012c-8.576-.012-9.842-1.543-8.055-10.146.7-3.385,3-5.378,6.463-5.165,3.4.209,5.562,2.258,5.833,5.813a35.188,35.188,0,0,1,.018,5.783C515.12,126.84,516.548,127.815,519.877,126.22Z" transform="translate(-3.391 -1.027)"/><path class="h" d="M565.195,126.484a28.572,28.572,0,0,1-4.05.294c-2.55-.163-6.224,1.276-7.4-.623-1.715-2.765-.927-6.636-.293-9.976a5.542,5.542,0,0,1,5.917-4.677c3.2.03,5.609,1.764,5.968,5.083a88.469,88.469,0,0,1,.078,9.415l-.268.17Z" transform="translate(-11.969 -1.029)"/><path class="j" d="M567.7,129.4l-.05-.314.268-.17c1.808,1.071,3.671.764,5.544.224l.052.143q-.06,5.116-.119,10.231c-.022,1.971-.608,3.7-2.887,3.638-2.062-.058-2.525-1.763-2.569-3.535Q567.807,134.507,567.7,129.4Z" transform="translate(-14.494 -3.943)"/><path class="k" d="M617.82,130.434a6.161,6.161,0,0,1,5.789.116c0,.005-.051-.066-.043-.059-.705,3.092-.22,6.222-.3,9.33-.051,1.863-.567,3.418-2.624,3.373-2.077-.046-2.457-1.678-2.46-3.5-.005-3.119-.152-6.237-.25-9.347C617.917,130.351,617.82,130.434,617.82,130.434Z" transform="translate(-23.052 -4.086)"/><path class="l" d="M526.785,212.215c-3.844,0-7.692-.09-11.532.04-1.844.062-2.32-.582-2.3-2.352q.128-11.332,0-22.666c-.025-1.929.475-2.6,2.5-2.575q11.324.17,22.653,0c1.993-.027,2.563.6,2.536,2.564-.1,7.554-.087,15.111-.007,22.666.018,1.768-.5,2.409-2.316,2.355C534.476,212.135,530.629,212.215,526.785,212.215Z" transform="translate(-5.232 -13.498)"/><path class="l" d="M526.737,247.545c3.718,0,7.44.124,11.151-.047,2.223-.1,2.8.709,2.765,2.823-.106,7.438-.077,14.878-.016,22.316.015,1.819-.362,2.764-2.484,2.736q-11.358-.152-22.717.006c-2.111.033-2.51-.813-2.492-2.675.076-7.576.1-15.154-.012-22.729-.031-2.095.782-2.525,2.655-2.465C519.3,247.629,523.02,247.545,526.737,247.545Z" transform="translate(-5.229 -24.258)"/><path class="l" d="M597.088,275.354c-3.709,0-7.427-.161-11.123.054-2.65.155-3.219-.893-3.172-3.322.137-7.144.167-14.295-.012-21.437-.065-2.614.8-3.237,3.278-3.183,7.139.156,14.285.144,21.424.005,2.361-.047,3.392.325,3.312,3.067-.212,7.278-.16,14.568-.022,21.848.044,2.32-.6,3.14-2.975,3.016C604.237,275.215,600.659,275.354,597.088,275.354Z" transform="translate(-17.105 -24.253)"/><path class="m" d="M596.839,184.676c3.708,0,7.421.111,11.123-.043,2.086-.087,2.852.438,2.809,2.69q-.215,11.127,0,22.26c.043,2.249-.719,2.727-2.805,2.694-7.415-.116-14.835-.144-22.249.011-2.48.052-2.946-.89-2.908-3.112.12-7.145.176-14.3-.022-21.436-.075-2.717.953-3.226,3.341-3.11C589.69,184.8,593.268,184.675,596.839,184.676Zm8.1,10.345a2.5,2.5,0,0,0-1.358-2.366,2.062,2.062,0,0,0-2.655.231c-1.423,1.282-2.811,2.61-4.137,3.992-1.2,1.25-2.184,2.373-3.812.368-.993-1.223-2.441-1.164-3.584.075s-.86,2.535.191,3.656c4.874,5.208,5.351,5.412,9.586.823,1.393-1.51,2.891-2.923,4.341-4.381A3.616,3.616,0,0,0,604.939,195.021Z" transform="translate(-17.106 -13.49)"/><path class="e" d="M606.121,196.559a3.624,3.624,0,0,1-1.43,2.4c-1.45,1.458-2.948,2.871-4.341,4.381-4.235,4.589-4.712,4.385-9.586-.823-1.051-1.122-1.344-2.4-.191-3.656s2.59-1.3,3.584-.075c1.628,2,2.612.882,3.812-.368,1.326-1.381,2.714-2.709,4.137-3.992a2.062,2.062,0,0,1,2.655-.231A2.5,2.5,0,0,1,606.121,196.559Z" transform="translate(-18.277 -15.032)"/></g></g></svg>