<svg xmlns="http://www.w3.org/2000/svg" xmlns:xlink="http://www.w3.org/1999/xlink" width="260" height="260" viewBox="0 0 260 260">
  <defs>
    <clipPath id="clip-path">
      <rect id="Rectangle_26864" data-name="Rectangle 26864" width="126.951" height="137" fill="none"/>
    </clipPath>
  </defs>
  <g id="Group_18999" data-name="Group 18999" transform="translate(-1004 -1050)">
    <g id="Group_18998" data-name="Group 18998">
      <g id="Group_18996" data-name="Group 18996" transform="translate(327)">
        <g id="Rectangle_25712" data-name="Rectangle 25712" transform="translate(677 1050)" fill="none" stroke="#6264a7" stroke-width="1">
          <rect width="260" height="260" rx="4" stroke="none"/>
          <rect x="0.5" y="0.5" width="259" height="259" rx="3.5" fill="none"/>
        </g>
      </g>
      <g id="Group_18997" data-name="Group 18997">
        <g id="Group_18994" data-name="Group 18994" transform="translate(1071 1112)" clip-path="url(#clip-path)">
          <path id="Path_48907" data-name="Path 48907" d="M80.6,0c3.6.957,6.311,3.468,9.383,5.337,3.743,2.277,7.4,4.7,11.081,7.071,3.9,2.515,3.9,6.615,0,9.089q-8.7,5.525-17.426,11.021c-2.309,1.451-4.665,1.277-6.4-.4a4.848,4.848,0,0,1-1.546-3.552c-.017-1.67-.012-3.34,0-5.011,0-.5.024-.9-.711-.887-6.59.12-13.2-.312-19.755.719a52.249,52.249,0,0,0-42.44,39.682,56.359,56.359,0,0,0-1.3,11.454A5.856,5.856,0,0,1,6.1,80.134,5.649,5.649,0,0,1,.228,75.9,19.293,19.293,0,0,1,.157,70.52C1.69,42.147,23.632,17.58,51.805,12.542c6.163-1.1,12.354-1.036,18.559-1.042,1.294,0,2.594-.08,3.88.024,1.135.092,1.38-.351,1.319-1.375-.084-1.408-.025-2.826-.02-4.239C75.556,2.7,76.651,1.221,79.721.283c.17-.052.329-.077.362-.283Z" transform="translate(0)" fill="#6264a7"/>
          <path id="Path_48909" data-name="Path 48909" d="M176.906,495.407a39.886,39.886,0,0,1-9.236-1.892,5.508,5.508,0,0,1-3.2-6.541,5.394,5.394,0,0,1,5.92-4.236,75.6,75.6,0,0,1,8.715,1.718,5.665,5.665,0,0,1,3.9,6.324c-.483,2.86-2.705,4.651-6.1,4.628" transform="translate(-121.681 -358.407)" fill="#6264a7"/>
          <path id="Path_48910" data-name="Path 48910" d="M382.262,424.993a5.67,5.67,0,0,1-1.513,4.08,47.866,47.866,0,0,1-6.261,5.739,5.629,5.629,0,0,1-7.683-.779,5.509,5.509,0,0,1,.449-7.837c1.8-1.662,3.551-3.37,5.382-4.993a5.573,5.573,0,0,1,6.356-.906,5.159,5.159,0,0,1,3.27,4.7" transform="translate(-270.597 -311.638)" fill="#6264a7"/>
          <path id="Path_48911" data-name="Path 48911" d="M83.274,447.278a5.156,5.156,0,0,1-3.255-1.126,68.785,68.785,0,0,1-5.9-4.786,5.621,5.621,0,0,1-.5-8.229c2.187-2.388,5.563-2.449,8.162-.13,1.666,1.487,3.427,2.855,5.22,4.187a5.292,5.292,0,0,1,1.888,6.278,5.575,5.575,0,0,1-5.622,3.806" transform="translate(-53.371 -320.255)" fill="#6264a7"/>
          <path id="Path_48912" data-name="Path 48912" d="M28.218,355.506a5.416,5.416,0,0,1-3.823,5.214,5.5,5.5,0,0,1-6.574-2.166,34.628,34.628,0,0,1-3.864-8.632,5.453,5.453,0,0,1,3.2-6.432,5.611,5.611,0,0,1,6.98,2.295c1.327,2.573,2.4,5.279,3.781,7.835a4.01,4.01,0,0,1,.3,1.886" transform="translate(-10.189 -254.744)" fill="#6264a7"/>
          <path id="Path_48913" data-name="Path 48913" d="M453.97,234.14c.19,3.876-1.939,6.429-4.954,6.778a5.611,5.611,0,0,1-6.207-4.724c-.422-2.529-.828-5.061-1.183-7.6a5.808,5.808,0,0,1,4.861-6.152,5.642,5.642,0,0,1,6.368,4.366c.508,2.686.828,5.407,1.115,7.333" transform="translate(-327.031 -165.118)" fill="#6264a7"/>
          <path id="Path_48914" data-name="Path 48914" d="M428.254,339.948c1.191-2.874,1.817-6.653,3.859-9.825a5.4,5.4,0,0,1,6.935-1.6,5.466,5.466,0,0,1,2.754,6.524A57.5,57.5,0,0,1,438.938,343a5.407,5.407,0,0,1-6.3,3.051c-2.637-.576-4.38-2.742-4.382-6.1" transform="translate(-317.16 -243.48)" fill="#6264a7"/>
          <path id="Path_48915" data-name="Path 48915" d="M275.482,491.09a5.773,5.773,0,0,1-5.668-5,5.456,5.456,0,0,1,3.818-5.852c2.539-.793,5.1-1.53,7.681-2.176a5.532,5.532,0,0,1,3.587,10.455,42.99,42.99,0,0,1-9.418,2.572" transform="translate(-199.773 -354.847)" fill="#6264a7"/>
          <path id="Path_48916" data-name="Path 48916" d="M401.686,127.336a5.527,5.527,0,0,1,4.2,2.309,71.725,71.725,0,0,1,4.577,6.518,5.5,5.5,0,0,1-1.387,7.334,5.4,5.4,0,0,1-7.6-1.02c-1.61-2.217-3.191-4.457-4.773-6.693a4.793,4.793,0,0,1-.356-5.547,5.8,5.8,0,0,1,5.341-2.9" transform="translate(-292.993 -94.55)" fill="#6264a7"/>
        </g>
      </g>
      <circle id="Ellipse_2809" data-name="Ellipse 2809" cx="33" cy="33" r="33" transform="translate(1101 1154)" fill="#bdbde6"/>
      <path id="Path_48917" data-name="Path 48917" d="M-17058.436,7498.054l12.2,12.169s13.963-28.261,21.508-30.153" transform="translate(18175.58 -6308.146)" fill="none" stroke="#6264a7" stroke-linecap="round" stroke-width="6"/>
    </g>
  </g>
</svg>
