<svg xmlns="http://www.w3.org/2000/svg" xmlns:xlink="http://www.w3.org/1999/xlink" width="260" height="260" viewBox="0 0 260 260">
  <defs>
    <clipPath id="clip-path">
      <rect id="Rectangle_25587" data-name="Rectangle 25587" width="67.385" height="137" fill="#7577b9"/>
    </clipPath>
    <clipPath id="clip-path-2">
      <rect id="Rectangle_25588" data-name="Rectangle 25588" width="74.837" height="137" fill="#bdbde6"/>
    </clipPath>
    <clipPath id="clip-path-3">
      <rect id="Rectangle_26890" data-name="Rectangle 26890" width="22.349" height="24.234" fill="none"/>
    </clipPath>
  </defs>
  <g id="Group_19128" data-name="Group 19128" transform="translate(-1331 -710)">
    <g id="Group_18097" data-name="Group 18097" transform="translate(1 1)">
      <g id="Group_18079" data-name="Group 18079">
        <g id="Rectangle_25565" data-name="Rectangle 25565" transform="translate(1330 709)" fill="none" stroke="#6264a7" stroke-width="1">
          <rect width="260" height="260" rx="4" stroke="none"/>
          <rect x="0.5" y="0.5" width="259" height="259" rx="3.5" fill="none"/>
        </g>
        <g id="Group_15829" data-name="Group 15829" transform="translate(163 24)">
          <g id="Group_15828" data-name="Group 15828" transform="translate(1227 747)">
            <g id="Group_15827" data-name="Group 15827" transform="translate(0 0)">
              <g id="Mask_Group_2" data-name="Mask Group 2" transform="translate(72.615 0)" clip-path="url(#clip-path)">
                <g id="Group_15825" data-name="Group 15825" transform="translate(-47.448 0.038)">
                  <path id="Path_48370" data-name="Path 48370" d="M410.382-175.108c-1.2,2.1,2.723,2.484,7.418-.913a14.449,14.449,0,0,1,12.3-2.187c4.872,1.134,8.65-.595,11.353-4.8a15.637,15.637,0,0,1,10.839-7.438c5.083-.889,8.251-3.922,9.1-9.187a15.4,15.4,0,0,1,7.06-10.808c4.4-2.924,6.209-6.861,4.917-12.3a15.008,15.008,0,0,1,2.528-12.445c2.961-4.212,3.16-8.533.217-12.741a16.573,16.573,0,0,1-2.572-13.615c1-4.712-.542-8.5-4.5-11.03a16.545,16.545,0,0,1-7.8-11.734c-.81-4.779-3.69-7.6-8.277-8.433-5.418-.983-9.234-3.987-12.178-8.592a8.305,8.305,0,0,0-9.27-3.969,19.078,19.078,0,0,1-15.7-3.258c-1.832-.973-1.963-2.873-5.055-1.32-.085.044.044,6.886-.389,14.6-1.38,24.587-.983,81.54,0,107.537C410.661-180.358,409.931-172.86,410.382-175.108Zm6.246-55.218c-.054.289-.1.83-.165.832-4.476.177-9,1.131-13.354-.815-2.444-1.537-1.863-3.969-1.793-6.249v-10.618c-.349-6.1,1-7.883,6.109-8.077a22.34,22.34,0,0,1,3.92-.176c1.747.216,3.711-.943,5.239.765Q416.606-242.5,416.628-230.326Zm-51.663-20.063q-2.857-5.113,2.281-5.122c2.149,0,4.3.059,6.447-.022,1.311-.049,1.748.372,1.736,1.759q-.1,11.374,0,22.75c.009,1.352-.4,1.835-1.741,1.8-2.762-.078-5.526-.016-8.289-.029-.692,0-1.376.1-1.7-.875-.9-2.753.223-4.4,3.11-4.437.611-.007,1.221-.074,1.832-.115a30.571,30.571,0,0,1,.035-3.42c.2-1.753-.4-2.52-2.162-2.2-1.917.343-2.178-.712-2.1-2.336.07-1.5-.232-3.073,2.087-2.662,1.755.311,2-.522,2.252-2.187C369.308-251.239,366.712-250.109,364.965-250.389Zm59.693-4.835c2.684-.081,5.37-.14,8.052-.253,1.344-.057,1.418.774,1.336,1.773,1.33,7.123,2.08,14.326,2.9,21.519.154.874.964,2.148.2,2.554-1.822.964-3.971.54-5.913.275-1.417-.194-.832-1.8-.882-2.853-.169-2.15-1.161-2.409-2.773-1.242-.125,4.238-.131,4.094-4.288,4.28-2.511.112-3.364-.551-2.281-3,.569-4.09,1.062-8.192,1.729-12.265C423.326-248.041,423.365-251.749,424.658-255.224Zm-43.688,9.41c-.846-1.387-.274-2.849-.121-4.244.418-3.836,3.209-5.957,7.652-5.985,4.319-.028,7.016,1.932,7.45,5.756a93.554,93.554,0,0,1,.1,15.581,3.255,3.255,0,0,1-.906,2.564c-2.475,3.65-5.526,4.337-8.717,1.962-.678-.5-.956-.236-1.571.361-1.225,1.19-4.267.7-4.227-.49.147-4.384-.532-8.794.337-13.156Q380.968-244.64,380.97-245.815Zm60.966,4.27c.168-1.2,1.718-.974,2.091-2.04-3.392-1.706-2.747-4.647-2.245-7.494a4.852,4.852,0,0,1,4.939-4.248c2.752-.172,5.518-.105,8.276-.182,1.065-.03,1.674.142,1.663,1.5-.06,7.68-.047,15.361-.011,23.04.005,1.144-.255,1.762-1.511,1.717-3.472-.124-6.948-.132-10.416-.312a3.2,3.2,0,0,1-3.383-3.253C441.025-235.762,440.416-238.728,441.937-241.544Z" transform="translate(-363.394 310.46)" fill="#7577b9"/>
                  <path id="Path_48371" data-name="Path 48371" d="M409.191-195.219a9.608,9.608,0,0,0,.211,1.555,1.335,1.335,0,0,0,1.38,1.009c.917,0,.732-.774.737-1.352.011-1.337.059-2.679-.03-4.01-.045-.677.6-1.826-.812-1.86-1.008-.024-1.4.729-1.473,1.623C409.142-197.54,409.191-196.816,409.191-195.219Z" transform="translate(-324.979 269.201)" fill="#7577b9"/>
                  <path id="Path_48372" data-name="Path 48372" d="M409.852-210.2l.6.237,1.211-.117c.017-1.409.045-2.819.048-4.227.006-2.239-.994-1.734-2.143-.8A7.609,7.609,0,0,0,409.852-210.2Z" transform="translate(-325.165 275.171)" fill="#7577b9"/>
                  <path id="Path_48373" data-name="Path 48373" d="M442.116-210.773c-.254,2.624-.5,5.249-.769,7.871-.086.83.064,1.412,1.03,1.484,1.131.084,1.4-.523,1.282-1.517-.3-2.613-.594-5.228-.89-7.843Z" transform="translate(-376.879 273.265)" fill="#7577b9"/>
                  <path id="Path_48374" data-name="Path 48374" d="M0,.812V108.354c29.275,0,51.255-24.655,51.255-54.472S29.275.812,0,.812Z" transform="translate(46.777 15.146)" fill="#7577b9"/>
                </g>
              </g>
              <g id="Mask_Group_3" data-name="Mask Group 3" transform="translate(0 0)" clip-path="url(#clip-path-2)">
                <g id="Group_15826" data-name="Group 15826" transform="translate(0 0.038)">
                  <path id="Path_48375" data-name="Path 48375" d="M438.742-175.108c1.336,2.1-3.024,2.484-8.238-.913-4.132-2.693-8.749-3.218-13.666-2.187-5.411,1.134-9.607-.595-12.609-4.8a17.489,17.489,0,0,0-12.038-7.438c-5.645-.889-9.163-3.922-10.105-9.187-.84-4.7-3.51-8.214-7.841-10.808-4.883-2.924-6.9-6.861-5.461-12.3a13.835,13.835,0,0,0-2.807-12.445c-3.289-4.212-3.509-8.533-.241-12.741a15.25,15.25,0,0,0,2.856-13.615c-1.112-4.712.6-8.5,5-11.03,4.848-2.783,7.7-6.634,8.657-11.734.9-4.779,4.1-7.6,9.192-8.433a19.732,19.732,0,0,0,13.525-8.592,9.652,9.652,0,0,1,10.3-3.969,23.067,23.067,0,0,0,17.434-3.258c2.034-.973,2.18-2.873,5.614-1.32.094.044-.049,6.886.432,14.6,1.533,24.587,1.092,81.54,0,107.537C438.432-180.358,439.243-172.86,438.742-175.108Zm-6.937-55.218c.06.289.11.83.183.832,4.971.177,10,1.131,14.831-.815,2.715-1.537,2.069-3.969,1.992-6.249v-10.618c.388-6.1-1.114-7.883-6.784-8.077a27.529,27.529,0,0,0-4.354-.176c-1.94.216-4.121-.943-5.818.765Q431.83-242.5,431.805-230.326Zm57.377-20.063q3.173-5.113-2.534-5.122c-2.387,0-4.776.059-7.16-.022-1.456-.049-1.941.372-1.928,1.759q.108,11.374,0,22.75c-.01,1.352.443,1.835,1.934,1.8,3.067-.078,6.137-.016,9.206-.029.769,0,1.528.1,1.884-.875,1-2.753-.247-4.4-3.454-4.437-.678-.007-1.357-.074-2.034-.115a27.528,27.528,0,0,0-.038-3.42c-.227-1.753.444-2.52,2.4-2.2,2.129.343,2.419-.712,2.335-2.336-.077-1.5.258-3.073-2.318-2.662-1.949.311-2.224-.522-2.5-2.187C484.359-251.239,487.243-250.109,489.182-250.389Zm-66.3-4.835c-2.981-.081-5.963-.14-8.943-.253-1.493-.057-1.575.774-1.483,1.773-1.477,7.123-2.31,14.326-3.222,21.519-.171.874-1.07,2.148-.22,2.554,2.024.964,4.411.54,6.567.275,1.574-.194.924-1.8.979-2.853.188-2.15,1.289-2.409,3.08-1.242.139,4.238.146,4.094,4.762,4.28,2.788.112,3.736-.551,2.534-3-.632-4.09-1.179-8.192-1.92-12.265C424.367-248.041,424.323-251.749,422.887-255.224Zm48.52,9.41c.94-1.387.3-2.849.135-4.244-.464-3.836-3.564-5.957-8.5-5.985-4.8-.028-7.792,1.932-8.274,5.756a84.265,84.265,0,0,0-.109,15.581,3.067,3.067,0,0,0,1.006,2.564c2.748,3.65,6.137,4.337,9.681,1.962.754-.5,1.062-.236,1.745.361,1.361,1.19,4.739.7,4.695-.49-.163-4.384.59-8.794-.374-13.156Q471.41-244.64,471.407-245.815Zm-67.709,4.27c-.186-1.2-1.908-.974-2.322-2.04,3.768-1.706,3.051-4.647,2.493-7.494-.538-2.755-2.591-4.084-5.485-4.248-3.056-.172-6.128-.105-9.191-.182-1.183-.03-1.859.142-1.847,1.5.067,7.68.052,15.361.012,23.04-.006,1.144.283,1.762,1.678,1.717,3.856-.124,7.717-.132,11.568-.312,2.151-.1,3.61-1.1,3.757-3.253C404.71-235.762,405.387-238.728,403.7-241.544Z" transform="translate(-363.394 310.46)" fill="#bdbde6"/>
                  <path id="Path_48376" data-name="Path 48376" d="M411.847-195.219a8.7,8.7,0,0,1-.234,1.555,1.474,1.474,0,0,1-1.532,1.009c-1.019,0-.813-.774-.819-1.352-.012-1.337-.065-2.679.033-4.01.05-.677-.669-1.826.9-1.86,1.119-.024,1.552.729,1.636,1.623C411.9-197.54,411.847-196.816,411.847-195.219Z" transform="translate(-377.841 269.201)" fill="#bdbde6"/>
                  <path id="Path_48377" data-name="Path 48377" d="M411.36-210.2l-.664.237-1.345-.117c-.019-1.409-.05-2.819-.054-4.227-.007-2.239,1.1-1.734,2.38-.8A6.9,6.9,0,0,1,411.36-210.2Z" transform="translate(-377.88 275.171)" fill="#bdbde6"/>
                  <path id="Path_48378" data-name="Path 48378" d="M443.068-210.773c.283,2.624.553,5.249.854,7.871.1.83-.071,1.412-1.144,1.484-1.256.084-1.552-.523-1.423-1.517.338-2.613.66-5.228.988-7.843Z" transform="translate(-387.987 273.265)" fill="#bdbde6"/>
                  <path id="Path_48379" data-name="Path 48379" d="M56.923.812V108.354C24.411,108.354,0,83.7,0,53.882S24.411.812,56.923.812Z" transform="translate(18.658 15.146)" fill="#bdbde6"/>
                </g>
              </g>
              <path id="Path_48363" data-name="Path 48363" d="M8.054-22.466-11.614-37-17.733-28.7l29.5,21.807L65.4-79.693l-9.834-7.269L8.054-22.466" transform="translate(48.765 115.427)" fill="#7577b9"/>
              <path id="Path_48381" data-name="Path 48381" d="M21.043-46.811v20.074L54.355-73.35l-9.492-7.045L21.043-46.811" transform="translate(53.798 115.427)" fill="#bdbde6"/>
            </g>
          </g>
        </g>
      </g>
    </g>
    <path id="Union_5" data-name="Union 5" d="M17.95,0A17.95,17.95,0,1,1,0,17.95,17.95,17.95,0,0,1,17.95,0Z" transform="translate(1499.5 779.5)" fill="#bdbde6" stroke="#bdbde6" stroke-width="1"/>
    <g id="Group_19125" data-name="Group 19125" transform="translate(-290 1.365)">
      <g id="Group_19124" data-name="Group 19124" transform="translate(1795.266 783.967)">
        <g id="Group_19127" data-name="Group 19127" transform="translate(-1.265 -0.333)">
          <g id="Group_19120" data-name="Group 19120">
            <g id="Group_19118" data-name="Group 19118" transform="translate(0 0)" clip-path="url(#clip-path-3)">
              <path id="Path_49225" data-name="Path 49225" d="M44.432,2.937A2.5,2.5,0,0,1,45.909,0h.562c0,.463,0,.926,0,1.388-.8.151-.731.765-.711,1.351a2.651,2.651,0,0,1-1.328.2" transform="translate(-35.297 0.273)" fill="#7577b9"/>
              <path id="Path_49226" data-name="Path 49226" d="M55.6,1.388Q55.595.694,55.588,0h.731a2.7,2.7,0,0,1,1.33,2.923,3.646,3.646,0,0,1-1.4-.194c.011-.557.094-1.149-.649-1.34" transform="translate(-44.414 0.273)" fill="#6264a7"/>
              <path id="Path_49227" data-name="Path 49227" d="M56.246,14.766a3.642,3.642,0,0,0,1.4.195,9.238,9.238,0,0,1,3.573,2.583,7.607,7.607,0,0,1,1.488,4.32,31.09,31.09,0,0,0,.138,3.914,10.763,10.763,0,0,0,2.448,5.305c.315.373.666.724.553,1.28-.262.387-.658.368-1.06.368-1.944,0-3.888.006-5.833.01l-3.369-.013q.005-8.956.01-17.913l.653-.049" transform="translate(-44.408 -11.765)" fill="#7577b9"/>
              <path id="Path_49228" data-name="Path 49228" d="M10.351,14.865q-.005,8.956-.01,17.913h0l-3.332.011q-2.876,0-5.752-.009c-.429,0-.885.048-1.1-.438-.2-.45.118-.732.378-1.036a10.7,10.7,0,0,0,2.7-7.275,13.526,13.526,0,0,1,.293-3.99,7.035,7.035,0,0,1,4.16-4.671c.219-.1.421-.229.631-.345a2.652,2.652,0,0,0,1.328-.2l.707.038" transform="translate(0.823 -11.812)" fill="#6264a7"/>
              <path id="Path_49230" data-name="Path 49230" d="M55.526,111.986,58.9,112a3.309,3.309,0,0,1-3.369,2.71c0-.906-.018-1.817-.022-2.723Z" transform="translate(-44.351 -91.023)" fill="#6264a7"/>
              <path id="Path_49231" data-name="Path 49231" d="M40.88,111.984q.005,1.36.011,2.72a3.334,3.334,0,0,1-3.342-2.709l3.332-.011" transform="translate(-29.716 -91.022)" fill="#7577b9"/>
            </g>
          </g>
          <g id="Group_19123" data-name="Group 19123" transform="translate(13.257 2.512)">
            <g id="Group_19126" data-name="Group 19126">
              <g id="Group_19121" data-name="Group 19121" transform="translate(0.478 -0.478)">
                <g id="Ellipse_2819" data-name="Ellipse 2819" fill="#fff" stroke="#fff" stroke-width="1">
                  <circle cx="6.5" cy="6.5" r="6.5" stroke="none"/>
                  <circle cx="6.5" cy="6.5" r="6" fill="none"/>
                </g>
                <g id="Ellipse_2820" data-name="Ellipse 2820" transform="translate(1 1)" fill="red" stroke="red" stroke-width="1">
                  <circle cx="5.5" cy="5.5" r="5.5" stroke="none"/>
                  <circle cx="5.5" cy="5.5" r="5" fill="none"/>
                </g>
              </g>
              <g id="Group_19122" data-name="Group 19122" transform="translate(6.528 2.92)">
                <path id="Path_49233" data-name="Path 49233" d="M-16267.2-9314h.9v2.186l-.18,2.51h-.506l-.213-2.51Z" transform="translate(16267.196 9314)" fill="#fff"/>
                <path id="Path_49234" data-name="Path 49234" d="M-16267.2-9309.716h.846v.914h-.846Z" transform="translate(16267.196 9315.008)" fill="#fff"/>
              </g>
            </g>
          </g>
        </g>
      </g>
    </g>
  </g>
</svg>
