<svg xmlns="http://www.w3.org/2000/svg" xmlns:xlink="http://www.w3.org/1999/xlink" width="206" height="206" viewBox="0 0 206 206"><defs><style>.a,.e,.g,.h{fill:#fff;}.b{fill:#464775;}.c{fill:#7577b9;}.d{fill:#ffc206;}.e,.h{font-size:14px;}.e,.g{font-family:SegoeUIVariableStatic-2bc0000-240000, Segoe UI Variable Static Display;}.f{fill:none;stroke:#fff;stroke-width:0.5px;}.g{font-size:18px;}.h{font-family:Segoe UI Variable;}.i{filter:url(#a);}</style><filter id="a" x="0" y="0" width="206" height="206" filterUnits="userSpaceOnUse"><feOffset dx="3" dy="6" input="SourceAlpha"/><feGaussianBlur stdDeviation="6" result="b"/><feFlood flood-color="#fff" flood-opacity="0.161"/><feComposite operator="in" in2="b"/><feComposite in="SourceGraphic"/></filter></defs><g transform="translate(-6 -378)"><g transform="translate(11 70)"><g class="i" transform="matrix(1, 0, 0, 1, -5, 308)"><circle class="a" cx="85" cy="85" r="85" transform="translate(15 12)"/></g><g transform="translate(12.648 322.53)"><rect class="b" width="164" height="164" rx="82" transform="translate(0.352 0.47)"/><rect class="c" width="153" height="154" rx="76.5" transform="translate(6.352 5.47)"/></g></g><g transform="translate(3.042 63)"><path class="d" d="M12.377.815,9.387,6.878,2.7,7.853a1.466,1.466,0,0,0-.811,2.5l4.84,4.717L5.581,21.734a1.465,1.465,0,0,0,2.125,1.543l5.985-3.146,5.985,3.146A1.466,1.466,0,0,0,21.8,21.734l-1.145-6.663,4.84-4.717a1.466,1.466,0,0,0-.811-2.5L18,6.878,15.006.815a1.467,1.467,0,0,0-2.629,0Z" transform="translate(89.517 359.551)"/><text class="e" transform="translate(67.958 398)"><tspan x="0" y="0">140</tspan></text><text class="e" transform="translate(92.958 398)"><tspan x="0" y="0">Points</tspan></text></g><path class="f" d="M7991.632,3661.221h118.8" transform="translate(-7945.133 -3186.221)"/><g transform="translate(-5 82)"><text class="g" transform="translate(65 420)"><tspan x="0" y="0">1</tspan></text><text class="h" transform="translate(80 419)"><tspan x="0" y="0">Global Rank</tspan></text><text class="h" transform="translate(65 438)"><tspan x="0" y="0">of 8 champions</tspan></text></g></g></svg>