<svg xmlns="http://www.w3.org/2000/svg" width="63.977" height="63.755" viewBox="0 0 63.977 63.755"><defs><style>.a{fill:#c8c6c4;}</style></defs><g transform="translate(-679.295 764.937)"><path class="a" d="M679.465-474.015h-.17v-9.259c.449.209.4.622.415,1.01a.229.229,0,0,0-.135-.007.228.228,0,0,0-.019-.06c-.005-.008-.027-.006-.041-.008l.071.057c-.135,1.981-.015,3.965-.062,5.946A14.578,14.578,0,0,1,679.465-474.015Z" transform="translate(0 -241.439)"/><path class="a" d="M679.295-655.815c.4.115.379.439.377.754-.355.058-.19.335-.191.511-.01,2.3,0,4.6-.018,6.9,0,.313.216.644-.037.948l-.066.019-.066-.02Z" transform="translate(0 -93.538)"/><path class="a" d="M679.424-559.928l-.065.022-.065-.022v-9.116c.4.117.376.441.377.755-.308.039-.2.277-.2.443,0,2.348.006,4.7-.011,7.045C679.463-560.514,679.676-560.206,679.424-559.928Z" transform="translate(0 -167.916)"/><path class="a" d="M680.773-752.478q0-.65,0-1.3a8.318,8.318,0,0,1,3.29-5.156,26.445,26.445,0,0,1,10.757-4.783,47.023,47.023,0,0,1,8.513-1.2l5.6-.025a45.053,45.053,0,0,1,13.15,2.51,19.066,19.066,0,0,1,7.5,4.5c1.882,1.976,2.874,4.236,1.818,6.992a9.056,9.056,0,0,1-2.882,3.727,22.2,22.2,0,0,1-7.81,3.972,50.316,50.316,0,0,1-26.97.55,26.013,26.013,0,0,1-8.338-3.529,9.848,9.848,0,0,1-4.416-5.289C680.882-751.823,680.839-752.154,680.773-752.478Z" transform="translate(-1.266)"/><path class="a" d="M680.186-643.35c.253-.3.034-.635.037-.948.021-2.3.008-4.6.018-6.9,0-.176-.163-.452.191-.511.628,2.524,2.389,4.156,4.442,5.512a30.819,30.819,0,0,0,11.665,4.276,51.772,51.772,0,0,0,14.248.572,37.017,37.017,0,0,0,14.43-3.97,12.086,12.086,0,0,0,5.356-4.937c.267-.519.445-1.084.673-1.65a1.047,1.047,0,0,1,.072.654c.006,2.183-.072,4.37.022,6.549a7.937,7.937,0,0,1-3.365,6.786,25.618,25.618,0,0,1-10.83,4.785,50.285,50.285,0,0,1-25.324-.691,21.567,21.567,0,0,1-9.184-4.926,10.026,10.026,0,0,1-2.421-4.033A2,2,0,0,1,680.186-643.35Z" transform="translate(-0.76 -96.886)"/><path class="a" d="M955.893-470.435a1.985,1.985,0,0,1,.665-1.355c1.823-1.8,3.619-3.63,5.449-5.424.379-.372.441-.578.02-.986-1.838-1.786-3.638-3.611-5.447-5.426a1.674,1.674,0,0,1-.02-2.707q1.454-1.466,2.922-2.917a1.674,1.674,0,0,1,2.707.024c1.8,1.792,3.615,3.568,5.373,5.4.471.49.689.38,1.092-.033,1.725-1.765,3.48-3.5,5.227-5.243,1.114-1.11,1.882-1.1,3.01.03l2.668,2.668c1.056,1.057,1.071,1.767,0,2.837-1.782,1.775-3.545,3.57-5.346,5.325-.406.4-.472.6-.024,1.036,1.824,1.766,3.6,3.577,5.4,5.375,1.038,1.04,1.031,1.741,0,2.786q-1.4,1.416-2.82,2.818c-1.041,1.031-1.742,1.039-2.785,0-1.8-1.8-3.6-3.581-5.379-5.393-.368-.376-.573-.447-.984-.023-1.785,1.839-3.609,3.639-5.427,5.447-1.015,1.01-1.708,1-2.732-.007-1-.983-1.976-1.984-2.976-2.964A1.894,1.894,0,0,1,955.893-470.435Z" transform="translate(-237.087 -235.734)"/><path class="a" d="M680.484-468.068a14.585,14.585,0,0,0,.059-2.32c.047-1.982-.072-3.965.062-5.946l-.011.012a.229.229,0,0,1,.134.007c.657,2.454,2.394,4.048,4.4,5.375a30.586,30.586,0,0,0,11.592,4.265,53.034,53.034,0,0,0,16.576.316,34.14,34.14,0,0,0,5.082-1.022,1.363,1.363,0,0,1,1.608.434c.82.92.856.881.009,1.734-.919.926-1.855,1.836-2.74,2.794a5.075,5.075,0,0,0-1.326,4.2c.074.613-.142.712-.63.8a54.125,54.125,0,0,1-13.678.611,40.4,40.4,0,0,1-13.283-3.142,16.378,16.378,0,0,1-6.164-4.344A7.444,7.444,0,0,1,680.484-468.068Z" transform="translate(-1.019 -247.386)"/><path class="a" d="M680.185-555.4c.252-.278.038-.586.04-.874.017-2.348.007-4.7.011-7.045,0-.165-.112-.4.2-.443.636,2.52,2.391,4.157,4.451,5.506a31.259,31.259,0,0,0,12.581,4.419,50.592,50.592,0,0,0,21.985-1.2,1.026,1.026,0,0,1,.674-.016c-.924.914-1.81,1.786-2.692,2.664a5.557,5.557,0,0,0-1.622,5.524,3.768,3.768,0,0,0,.509,1.245c.259.388.31.547-.268.659a50.8,50.8,0,0,1-24.147-.9,23.76,23.76,0,0,1-8.362-4.129,10.062,10.062,0,0,1-3.323-4.842A2.162,2.162,0,0,1,680.185-555.4Z" transform="translate(-0.761 -172.445)"/><path class="a" d="M992.29-558.232c2.97-1.732,5.562-3.526,6.568-6.845,0,2.4-.006,4.8,0,7.2a7.947,7.947,0,0,1-.286,2.6c-.089.265-.2.522-.328.862C996.471-555.991,995.15-558.124,992.29-558.232Z" transform="translate(-268.295 -171.317)"/><path class="a" d="M680.91-476.674l-.071-.057c.014,0,.036,0,.041.008a.225.225,0,0,1,.019.06Z" transform="translate(-1.323 -247.046)"/></g></svg>