<svg xmlns="http://www.w3.org/2000/svg" xmlns:xlink="http://www.w3.org/1999/xlink" width="212" height="1018" viewBox="0 0 212 1018"><defs><style>.a,.e{fill:none;}.b{fill:url(#a);}.c{opacity:0.556;clip-path:url(#b);}.d{opacity:0.866;}.e,.g{stroke:#bdbde6;}.e,.f,.g{stroke-width:0.2px;}.f{fill:#bdbde6;stroke:#707070;}.g{fill:#f76101;}.h{opacity:0.32;mix-blend-mode:overlay;isolation:isolate;}.i{stroke:none;}</style><linearGradient id="a" x1="0.356" y1="0.5" x2="0.77" y2="0.5" gradientUnits="objectBoundingBox"><stop offset="0" stop-color="#6264a7"/><stop offset="1" stop-color="#464775"/></linearGradient><clipPath id="b"><rect class="a" width="781" height="212" transform="translate(1139 -12)"/></clipPath></defs><g transform="translate(0 -62)"><rect class="b" width="1018" height="212" transform="translate(0 1080) rotate(-90)"/><g class="c" transform="translate(200 -840) rotate(90)"><g class="d" transform="translate(2897.099 1603.716) rotate(-127)"><g transform="translate(1857.66 137.718) rotate(1)"><g transform="translate(0 0)"><path class="e" d="M0,2.53l.139,8.034,9.032,6.1L9.08,0,8.237.721l-.938.4H6.091L3.709.916,2.4,1.27l-1.108.756Z"/></g></g><path class="e" d="M39.356,13.825c-.017.143-.038.515-.106.878a4.916,4.916,0,0,0,.863,3.869,2.739,2.739,0,0,1,.086,3.374,5.623,5.623,0,0,0-.869,4.577A2.7,2.7,0,0,1,38,29.466a5.266,5.266,0,0,0-2.452,3.649,2.866,2.866,0,0,1-2.475,2.429A4.828,4.828,0,0,0,29.622,37.8,3.04,3.04,0,0,1,26.1,39.22a4.34,4.34,0,0,0-3.628.65,3.314,3.314,0,0,1-4.205.015,4.426,4.426,0,0,0-3.72-.651,3,3,0,0,1-3.432-1.426A4.729,4.729,0,0,0,7.838,35.6a3.087,3.087,0,0,1-2.75-2.733,4.577,4.577,0,0,0-2.134-3.215,3.124,3.124,0,0,1-1.487-3.658,4.407,4.407,0,0,0-.764-3.7A3.018,3.018,0,0,1,.637,18.5a4.866,4.866,0,0,0,.777-4.05A2.879,2.879,0,0,1,2.776,11.17a4.918,4.918,0,0,0,2.357-3.49,2.862,2.862,0,0,1,2.5-2.508,5.35,5.35,0,0,0,3.681-2.556,2.527,2.527,0,0,1,2.8-1.18A5.71,5.71,0,0,0,18.863.466a2.5,2.5,0,0,1,2.73-.121,2.792,2.792,0,0,1,.413.208,5.352,5.352,0,0,0,4.573.888,2.514,2.514,0,0,1,2.8,1.166,5.451,5.451,0,0,0,3.778,2.581,2.747,2.747,0,0,1,2.4,2.479,5.226,5.226,0,0,0,2.5,3.62A2.676,2.676,0,0,1,39.356,13.825Z" transform="translate(1837.317 97.48) rotate(1)"/><g transform="translate(1845.311 112.609) rotate(1)"><path class="e" d="M2.123,3.245l1.312.792L3.089,2.543l1.158-1L2.72,1.408,2.123,0l-.6,1.408L0,1.539l1.158,1L.811,4.037Z" transform="translate(0 0)"/><path class="e" d="M2.123,3.245l1.312.792L3.089,2.543l1.158-1L2.72,1.408,2.123,0l-.6,1.408L0,1.539l1.158,1L.811,4.037Z" transform="translate(5.046 0)"/><path class="e" d="M2.123,3.245l1.312.792L3.089,2.543l1.158-1L2.72,1.408,2.123,0l-.6,1.408L0,1.539l1.158,1L.811,4.037Z" transform="translate(10.092 0)"/><path class="e" d="M2.123,3.245l1.312.792L3.089,2.543l1.158-1L2.72,1.408,2.123,0l-.6,1.408L0,1.539l1.158,1L.811,4.037Z" transform="translate(15.138 0)"/><path class="e" d="M2.123,3.245l1.312.792L3.089,2.543l1.158-1L2.72,1.408,2.123,0l-.6,1.408L0,1.539l1.158,1L.811,4.037Z" transform="translate(20.184 0)"/><path class="e" d="M2.123,3.245l1.312.792L3.089,2.543l1.158-1L2.72,1.408,2.123,0l-.6,1.408L0,1.539l1.158,1L.811,4.037Z" transform="translate(0 6.619)"/><path class="e" d="M2.123,3.245l1.312.792L3.089,2.543l1.158-1L2.72,1.408,2.123,0l-.6,1.408L0,1.539l1.158,1L.811,4.037Z" transform="translate(5.046 6.619)"/><path class="e" d="M2.123,3.245l1.312.792L3.089,2.543l1.158-1L2.72,1.408,2.123,0l-.6,1.408L0,1.539l1.158,1L.811,4.037Z" transform="translate(10.092 6.619)"/><path class="e" d="M2.123,3.245l1.312.792L3.089,2.543l1.158-1L2.72,1.408,2.123,0l-.6,1.408L0,1.539l1.158,1L.811,4.037Z" transform="translate(15.138 6.619)"/><path class="e" d="M2.123,3.245l1.312.792L3.089,2.543l1.158-1L2.72,1.408,2.123,0l-.6,1.408L0,1.539l1.158,1L.811,4.037Z" transform="translate(20.184 6.619)"/></g><path class="e" d="M42.865,15.058c-.018.156-.041.561-.116.956a5.354,5.354,0,0,0,.94,4.214,2.984,2.984,0,0,1,.094,3.675,6.124,6.124,0,0,0-.947,4.985,2.943,2.943,0,0,1-1.451,3.2,5.736,5.736,0,0,0-2.67,3.974,3.121,3.121,0,0,1-2.7,2.645,5.259,5.259,0,0,0-3.756,2.455,3.312,3.312,0,0,1-3.837,1.549,4.727,4.727,0,0,0-3.951.708,3.609,3.609,0,0,1-4.58.017,4.821,4.821,0,0,0-4.051-.709,3.271,3.271,0,0,1-3.738-1.554,5.15,5.15,0,0,0-3.569-2.41,3.362,3.362,0,0,1-3-2.976,4.985,4.985,0,0,0-2.325-3.5A3.4,3.4,0,0,1,1.6,28.308a4.8,4.8,0,0,0-.832-4.032,3.287,3.287,0,0,1-.072-4.127,5.3,5.3,0,0,0,.847-4.411,3.136,3.136,0,0,1,1.482-3.573,5.357,5.357,0,0,0,2.567-3.8A3.117,3.117,0,0,1,8.315,5.632a5.827,5.827,0,0,0,4.01-2.784,2.752,2.752,0,0,1,3.052-1.286A6.22,6.22,0,0,0,20.545.508,2.728,2.728,0,0,1,23.519.376a3.054,3.054,0,0,1,.45.226,5.829,5.829,0,0,0,4.981.967A2.738,2.738,0,0,1,32,2.838,5.937,5.937,0,0,0,36.116,5.65a2.992,2.992,0,0,1,2.615,2.7,5.692,5.692,0,0,0,2.72,3.943A2.914,2.914,0,0,1,42.865,15.058Z" transform="translate(1835.533 95.637) rotate(1)"/><g transform="translate(1848.611 138.476) rotate(1)"><g transform="translate(0 0)"><path class="e" d="M9.171,1.614l-.14,8.034L0,15.745.1.091.886.208,1.975.091,3.125,0h.77L5.071.208l.763.4.73.5,1.086.5Z"/></g></g></g><g class="d" transform="translate(-2287.405 -2071)"><path class="e" d="M-233.481-354.1a21.134,21.134,0,0,0-21.134,21.134,21.134,21.134,0,0,0,21.134,21.134,21.134,21.134,0,0,0,21.134-21.134A21.134,21.134,0,0,0-233.481-354.1m15.968,26.555c-.273.8-1.617,1.132-2.012,1.87s.07,2.051-.439,2.719-1.888.555-2.5,1.136-.563,1.968-1.255,2.449-1.964-.053-2.722.316-1.125,1.7-1.932,1.954c-.791.245-1.853-.645-2.692-.519-.816.122-1.571,1.289-2.422,1.289s-1.606-1.166-2.422-1.289c-.839-.126-1.9.764-2.692.519-.808-.25-1.185-1.589-1.933-1.954s-2.037.16-2.722-.316-.65-1.871-1.255-2.449-1.988-.469-2.5-1.137-.042-1.976-.439-2.719-1.739-1.069-2.012-1.87.591-1.877.453-2.717c-.135-.819-1.3-1.568-1.3-2.424s1.166-1.605,1.3-2.424c.138-.839-.721-1.927-.453-2.717s1.617-1.132,2.012-1.87-.07-2.051.439-2.719,1.888-.555,2.5-1.136.563-1.968,1.255-2.449,1.964.053,2.722-.316,1.125-1.7,1.932-1.954c.791-.245,1.853.645,2.692.519.816-.122,1.571-1.289,2.422-1.289s1.606,1.166,2.422,1.289c.839.126,1.9-.764,2.692-.519.808.25,1.185,1.589,1.932,1.954s2.037-.16,2.722.317.65,1.871,1.255,2.449,1.988.469,2.5,1.137.042,1.976.439,2.719,1.739,1.069,2.012,1.87-.591,1.877-.453,2.717c.135.819,1.3,1.568,1.3,2.424s-1.166,1.605-1.3,2.425C-218.1-329.427-217.245-328.339-217.513-327.549Z" transform="translate(4400.115 2591.104)"/><path class="e" d="M-12.743-74.435l-3.806-2.824-1.184,1.613,5.709,4.236L-1.646-85.55l-1.9-1.412-9.194,12.527" transform="translate(4175.996 2337.77)"/></g><g class="d" transform="translate(1722.642 4505.722) rotate(-121)"><g transform="translate(3876 2210)"><rect class="a" width="56" height="52"/><g transform="translate(0.293 1.758)"><path class="f" d="M444.378,148.441l.218.226C444.445,148.667,444.367,148.6,444.378,148.441Z" transform="translate(-398.478 -125.531)"/><path class="e" d="M54.685,56.673V52.01a1.8,1.8,0,0,0-2.125-1.874c-2.226.141-39.848,0-39.848,0s-1.525-.082-1.523,1.874,0,25,0,25a1.855,1.855,0,0,0,1.851,2.038c2.025.13,24.137.13,24.137.13S28.968,57.9,54.685,56.673Z" transform="translate(-8.274 -35.441)"/><g transform="translate(11.322 0)"><path class="e" d="M395.693,61.054c0,.768.03,1.538-.007,2.3a1.783,1.783,0,1,1-3.566-.028c-.04-1.5-.072-3,.012-4.493.077-1.353.619-1.692,2.076-1.693.98,0,1.456.754,1.485,1.721.022.729,0,1.46,0,2.189Z" transform="translate(-369.206 -57.144)"/><path class="e" d="M296.9,64.26a1.891,1.891,0,0,1-2.266.852,1.763,1.763,0,0,1-1.238-1.87c.016-1.382,0-2.765.006-4.147,0-.892.319-1.681,1.254-1.795.915-.111,1.993-.186,2.243,1.154.042.157.033.274.073.528a6.032,6.032,0,0,1,0,.606C296.981,61.267,296.9,62.581,296.9,64.26Z" transform="translate(-293.398 -57.222)"/></g><g transform="translate(0 4.642)"><g transform="translate(0 0)"><path class="e" d="M260.816,77.119c5.008-.016,10.017-.01,15.025-.064.986-.011,1.69.009,1.5,1.157a4.936,4.936,0,0,0,.883,2.366,4.38,4.38,0,0,0,2.2,1.325c.868.212,1.8-.548,2.495-1.218a1.931,1.931,0,0,0,.391-.6,5.989,5.989,0,0,0,.175-.777c.072-.192-.085-1.4.416-2.08.189-.261,1.361-.181,1.733-.158,1.2.073,2.4.025,3.608.03a6.9,6.9,0,0,1,4.737,5.6c-.006-.05.006.044.014.1l.041.158c.069.55-.008-1.64,0,.891.008,2.607,0,6.3,0,9.448v.915c.035.707-.384.64-.827.465-.71-.281-1.41-.587-2.114-.882l-.225-.234a9.128,9.128,0,0,1,0-1.388c0-.889.028-1.923,0-2.9-.045-1.574-.7-2.144-2.288-2.145q-19.263-.009-38.526,0c-1.483,0-2.541.141-2.612,1.614,0-.007,0,.47,0,.561-.008,8.138-.007,16.3,0,24.435a2.041,2.041,0,0,0,2.08,2.193,5.877,5.877,0,0,0,.6,0c7.289,0,14.586.182,21.875.186a6,6,0,0,0,1.509-.044c.491.783.932,1.307,1.411,1.961-.151.833-.818.555-1.3.556-8.246.015-16.334.2-24.58.207-.3,0-.611-.005-1.046,0h-.449a3.833,3.833,0,0,1-2.981-3.894q-.021-15.684,0-31.368a6.2,6.2,0,0,1,5.514-6.366h.91c.174,0,.3.009.513,0h.322a3.32,3.32,0,0,0,.511,0c.1,0,.44.015.708,0,.393-.021,1.417,0,1.417,0a6.575,6.575,0,0,1,.068.9l.152,1.361c.821,1.63,1.879,2.34,3.282,2.2,1.455-.142,2.39-1.1,2.827-2.893Z" transform="translate(-244.551 -77.035)"/><path class="g" d="M457.562,102.318Z" transform="translate(-408.109 -96.489)"/></g></g><g transform="translate(28.978 23.201)"><path class="e" d="M397.643,170.654a13.082,13.082,0,1,1-12.922-13.17A13.048,13.048,0,0,1,397.643,170.654Zm-2.609-1.678a10.593,10.593,0,0,0-7.3-8.511c-1.833-.566-1.838-.569-2.088,1.239a1.075,1.075,0,0,1-2.147.012,3.27,3.27,0,0,1,0-.823c.128-.823-.248-.9-.933-.738a10.512,10.512,0,0,0-8.081,7.269c-.211.63-.594,1.367-.309,1.918.2.395,1.022.092,1.563.151a1.071,1.071,0,0,1-.023,2.14,3.24,3.24,0,0,1-.706,0c-.925-.133-1,.253-.807,1.061a10.483,10.483,0,0,0,7.353,8c1.735.569,1.757.534,1.937-1.194.072-.693.4-1.121,1.113-1.1a1.011,1.011,0,0,1,1.042,1.162,3.989,3.989,0,0,1,0,.588c-.132.851.231.978.991.8a10.473,10.473,0,0,0,8.046-7.3c.2-.591.571-1.278.3-1.81-.251-.5-1-.1-1.514-.21-.038-.008-.079,0-.117-.009a1.068,1.068,0,0,1,.039-2.125,7.779,7.779,0,0,1,1.177-.011C395.008,169.516,395.116,169.309,395.033,168.977Z" transform="translate(-371.48 -157.484)"/><path class="e" d="M403.413,177.4c.082.332-.025.54-.471.514a7.776,7.776,0,0,0-1.177.011,1.068,1.068,0,0,0-.039,2.125c.038.007.079,0,.117.009.516.107,1.262-.287,1.513.21.269.532-.107,1.219-.3,1.81a10.473,10.473,0,0,1-8.046,7.3c-.76.179-1.122.052-.991-.8a3.972,3.972,0,0,0,0-.588,1.011,1.011,0,0,0-1.042-1.162c-.71-.022-1.04.406-1.113,1.1-.181,1.728-.2,1.763-1.937,1.194a10.483,10.483,0,0,1-7.353-8c-.193-.808-.118-1.194.807-1.061a3.239,3.239,0,0,0,.706,0,1.071,1.071,0,0,0,.023-2.14c-.541-.058-1.359.244-1.563-.151-.285-.551.1-1.288.309-1.918a10.512,10.512,0,0,1,8.082-7.269c.685-.161,1.061-.085.933.738a3.273,3.273,0,0,0,0,.823,1.075,1.075,0,0,0,2.147-.012c.25-1.808.255-1.8,2.088-1.239A10.593,10.593,0,0,1,403.413,177.4Zm-11.066,2.363c1.928.955,3.861,1.9,5.783,2.87.629.317,1.24.45,1.621-.273.431-.817-.157-1.215-.8-1.529-1.406-.689-2.8-1.4-4.227-2.048a1.12,1.12,0,0,1-.789-1.243c.068-1.015,0-2.039.025-3.057.02-.759-.121-1.331-1.057-1.282s-1.037.649-.9,1.4c-.026,1.523-.05,3.045-.081,4.568A.512.512,0,0,0,392.347,179.767Z" transform="translate(-379.86 -165.911)"/><g transform="translate(12.064 12.622)"><path class="e" d="M422.6,208.366C422.635,206.843,422.6,208.563,422.6,208.366Z" transform="translate(-422.604 -207.731)"/></g></g><path class="e" d="M284.826,147.12c-1.038,0-2.077-.033-3.113.013-.664.029-.884-.219-.86-.862.037-1,.027-2,0-3-.014-.59.215-.809.815-.8q3.286.038,6.572,0c.566-.006.739.229.729.756-.02,1.037-.028,2.076,0,3.113.018.6-.207.81-.808.79C287.056,147.093,285.941,147.119,284.826,147.12Z" transform="translate(-273.316 -122.693)"/><path class="e" d="M284.925,179.084c-1.076,0-2.153-.02-3.228.009-.562.015-.865-.125-.846-.761.032-1.037.027-2.076,0-3.113-.016-.611.249-.788.832-.781,2.152.025,4.3.033,6.456,0,.687-.012.858.267.836.888-.034.96-.048,1.924.006,2.882.041.736-.257.927-.944.894C287,179.047,285.963,179.084,284.925,179.084Z" transform="translate(-273.315 -147.247)"/><path class="e" d="M284.861,205.582c1.081,0,2.162.029,3.241-.011.668-.024.886.246.863.884-.034.964-.047,1.931,0,2.893.038.736-.27.91-.951.9-2.083-.035-4.168-.039-6.251,0-.717.014-.961-.232-.932-.93.04-.963.035-1.93,0-2.894-.024-.67.266-.876.9-.854C282.776,205.607,283.819,205.582,284.861,205.582Z" transform="translate(-273.302 -171.166)"/><path class="e" d="M337.577,147.125c-1.076,0-2.153-.021-3.229.007-.55.015-.76-.2-.749-.74.021-1.076.013-2.153,0-3.229,0-.486.206-.685.695-.683,2.23.011,4.46.016,6.689,0,.557-.005.746.209.732.749-.026,1.037-.033,2.077,0,3.114.021.6-.193.818-.8.8C339.808,147.1,338.692,147.126,337.577,147.125Z" transform="translate(-313.837 -122.698)"/><path class="e" d="M337.737,174.438c1.04,0,2.081.035,3.119-.011.675-.03.808.245.859.873.107,1.322-.767,2.313-1.04,3.5-.1.42-.5.273-.782.274-1.81.011-3.621-.013-5.431.016-.63.01-.918-.165-.888-.846.043-1,.03-2,0-3-.017-.593.2-.829.809-.812C335.5,174.46,336.62,174.437,337.737,174.438Z" transform="translate(-313.817 -147.24)"/><g transform="translate(32.777 20.103)"><path class="e" d="M397.185,143.741a16.754,16.754,0,0,0-7.14,2.208c.022-.909-.071-2.772-.132-3.266h7.272c.009.206-.018.317,0,.512v.546Z" transform="translate(-389.914 -142.683)"/></g></g></g></g><g class="d" transform="matrix(0.966, 0.259, -0.259, 0.966, 1316.89, -59.118)"><path class="e" d="M522.062,161.239v1.047a3.58,3.58,0,0,1,0,.738q-.031,16.421-.039,32.842H482.5l-.207-.217c-.009-11.176,0-22.351-.051-33.526,0-1.1.629-.878,1.234-.878q18.8,0,37.607-.005C521.481,161.239,521.666,161.266,522.062,161.239Zm-28.35,4.174c-1.445,0-2.891.022-4.336-.009-.786-.017-1.187.221-1.178,1.094.031,2.972.021,5.945.005,8.918,0,.7.263,1.04.986,1.037q4.517-.015,9.034,0c.774,0,1.085-.347,1.083-1.094-.009-2.932-.018-5.865.005-8.8.007-.908-.417-1.185-1.262-1.163C496.6,165.441,495.157,165.413,493.712,165.413Zm.005,15.284c-1.443,0-2.886.036-4.327-.013-.9-.031-1.2.33-1.192,1.2q.046,4.329,0,8.66c-.009.851.262,1.25,1.169,1.241,2.925-.03,5.85-.024,8.775,0,.822.006,1.163-.353,1.161-1.154-.01-2.927-.014-5.854,0-8.78,0-.89-.4-1.19-1.262-1.164C496.6,180.729,495.16,180.7,493.717,180.7Zm17.118,0c-1.486,0-2.973.03-4.458-.011-.894-.025-1.211.357-1.2,1.221q.036,4.34,0,8.68c-.007.9.395,1.2,1.248,1.191q4.338-.036,8.676,0c.892.008,1.193-.369,1.183-1.237q-.049-4.34,0-8.68c.011-.909-.365-1.2-1.227-1.175C513.648,180.731,512.241,180.7,510.835,180.7Zm5.432-9.769c0-1.446-.037-2.893.014-4.336.032-.91-.352-1.2-1.213-1.187q-4.334.043-8.668,0c-.853-.008-1.241.28-1.231,1.185.032,2.891.026,5.782,0,8.673-.006.8.263,1.19,1.107,1.185q4.454-.028,8.909,0c.855.006,1.112-.386,1.09-1.185C516.24,173.823,516.268,172.377,516.268,170.931Z" transform="translate(-0.049 -42.299)"/><path class="e" d="M488.23,105.355h1.688c2.4,1.285,3.086,3.041,2.263,5.784-.971.465-1.387.181-1.289-.909a10.259,10.259,0,0,0-.005-1.686,1.689,1.689,0,0,0-1.7-1.695,1.715,1.715,0,0,0-1.884,1.506c-.521,2.509-.152,2.955,2.349,2.958a2.97,2.97,0,0,0,.481,0c.674-.11.8.233.774.822-.039.761-.022,1.527,0,2.289a.736.736,0,0,0,.745.785.624.624,0,0,0,.7-.659c-.048-1.143.279-2.312-.2-3.429,1.447.418,2.933.031,4.385.21,1.194.148,1.525-.3,1.4-1.435-.236-2.114.422-3.773,2.592-4.539h1.688a4.119,4.119,0,0,1,2.361,4.476,9.508,9.508,0,0,0,.046,1.309,1.945,1.945,0,0,1-1.616-.065,25.781,25.781,0,0,0-.023-2.745,1.768,1.768,0,0,0-3.465-.118,4.217,4.217,0,0,0,.085,2.909c.344.554,1.415.134,2.158.182a8.329,8.329,0,0,0,1.181-.086q.035,1.489.07,2.979c.013.517.148,1.014.749,1.031.664.019.835-.486.842-1.061q.016-1.492.035-2.983c1.388.273,2.8,0,4.182.145,1.085.115,1.431-.26,1.3-1.32-.259-2.1.3-3.812,2.463-4.651h1.688a3.882,3.882,0,0,1,2.434,4.271,4.358,4.358,0,0,0,.093,1.883,1.8,1.8,0,0,0-1.688-.034,10.308,10.308,0,0,0,.083-2.979,1.692,1.692,0,0,0-1.5-1.632,1.619,1.619,0,0,0-1.882.957,7.129,7.129,0,0,0-.172,3.193c.012.46.5.267.782.294a12.007,12.007,0,0,1,2.725.14c.029.907.071,1.816.073,2.725,0,.533.111,1.008.717,1.022s.75-.44.765-.983a13.5,13.5,0,0,1,.09-2.719,22,22,0,0,1,5.2-.118q0,3.012,0,6.023c-2.927.017-5.854.048-8.781.049-9.909.006-19.819-.019-29.728.033-1.1.006-1.38-.3-1.272-1.326a24.239,24.239,0,0,0,.018-2.527c0-2.314,0-2.394,2.282-2.284,1.192.058,1.443-.4,1.311-1.419A3.92,3.92,0,0,1,488.23,105.355Z" transform="translate(0 0)"/><path class="e" d="M512.284,178.473c1.446,0,2.892.028,4.336-.01.845-.022,1.27.254,1.262,1.163-.024,2.932-.014,5.865-.005,8.8,0,.746-.308,1.1-1.083,1.094q-4.516-.025-9.034,0c-.723,0-.99-.335-.986-1.037.016-2.973.026-5.946-.005-8.918-.009-.873.392-1.11,1.178-1.094C509.393,178.494,510.839,178.473,512.284,178.473ZM512.3,188c1.121,0,2.242-.023,3.362.01.529.016.681-.171.675-.687-.023-2.2-.027-4.406,0-6.609.008-.572-.158-.755-.74-.747q-3.3.046-6.6,0c-.591-.009-.737.188-.729.751q.043,3.3,0,6.609c-.006.516.133.7.67.686C510.061,187.974,511.183,188,512.3,188Z" transform="translate(-18.622 -55.358)"/><path class="e" d="M512.292,241.419c1.443,0,2.886.032,4.327-.012.857-.026,1.266.275,1.262,1.164-.017,2.927-.012,5.853,0,8.78,0,.8-.339,1.16-1.161,1.154-2.925-.021-5.85-.027-8.775,0-.907.009-1.177-.39-1.169-1.241q.044-4.33,0-8.66c-.01-.872.294-1.233,1.192-1.2C509.406,241.456,510.85,241.419,512.292,241.419Zm0,1.478c-1.084,0-2.169.024-3.251-.01-.546-.017-.783.108-.774.719.033,2.209.026,4.418,0,6.627-.005.543.111.789.727.78q3.311-.05,6.624,0c.619.008.729-.267.724-.8-.018-2.169-.026-4.338,0-6.507.009-.616-.158-.853-.806-.823C514.463,242.934,513.378,242.9,512.294,242.9Z" transform="translate(-18.625 -103.021)"/><path class="e" d="M582.359,241.439c1.406,0,2.813.031,4.217-.011.862-.026,1.238.266,1.227,1.175q-.052,4.34,0,8.68c.01.867-.29,1.245-1.183,1.237q-4.337-.039-8.676,0c-.853.007-1.255-.294-1.248-1.191q.036-4.34,0-8.68c-.007-.864.31-1.245,1.2-1.221C579.386,241.47,580.873,241.439,582.359,241.439Zm-.014,9.584c1.041,0,2.084-.04,3.123.014.693.036.88-.2.867-.879-.04-2.123-.055-4.248.006-6.37.023-.8-.277-.908-.966-.894-2.082.04-4.165.044-6.246,0-.724-.016-.975.166-.956.928.052,2.082.044,4.167,0,6.25-.014.708.152,1.014.925.969C580.18,250.977,581.264,251.024,582.345,251.024Z" transform="translate(-71.573 -103.038)"/><path class="e" d="M587.78,184.012c0,1.445-.027,2.892.011,4.336.021.8-.236,1.191-1.09,1.185q-4.455-.033-8.909,0c-.844.005-1.113-.389-1.107-1.185.023-2.891.029-5.782,0-8.673-.01-.9.378-1.192,1.231-1.185q4.334.039,8.668,0c.861-.008,1.245.277,1.213,1.187C587.742,181.119,587.78,182.566,587.78,184.012Zm-5.519-4.019c-1.041,0-2.084.038-3.123-.013-.7-.034-1,.115-.974.907.058,2.082.041,4.167.006,6.25-.011.648.125.923.848.907,2.162-.045,4.325-.037,6.487,0,.608.009.831-.13.818-.786q-.063-3.244,0-6.49c.013-.657-.211-.81-.819-.784C584.424,180.026,583.342,179.993,582.261,179.993Z" transform="translate(-71.561 -55.379)"/><path class="e" d="M516.982,192.7c-1.121,0-2.243-.026-3.362.012-.538.018-.676-.17-.671-.686q.037-3.3,0-6.609c-.007-.562.138-.759.729-.751q3.3.05,6.6,0c.581-.008.747.176.74.747-.029,2.2-.025,4.406,0,6.609.005.516-.146.7-.675.687C519.225,192.672,518.1,192.7,516.982,192.7Z" transform="translate(-23.3 -60.054)"/><path class="e" d="M516.956,247.506c1.084,0,2.169.036,3.251-.014.648-.03.815.207.806.823-.031,2.169-.023,4.338,0,6.507,0,.53-.106.806-.724.8q-3.311-.044-6.624,0c-.615.009-.732-.237-.727-.78.022-2.209.029-4.418,0-6.627-.009-.611.228-.736.774-.719C514.787,247.53,515.872,247.506,516.956,247.506Z" transform="translate(-23.287 -107.629)"/><path class="e" d="M586.95,255.6c-1.081,0-2.165-.047-3.243.016-.773.045-.939-.26-.925-.969.04-2.083.048-4.168,0-6.25-.019-.762.232-.944.956-.928,2.081.045,4.165.042,6.247,0,.689-.014.989.095.966.894-.062,2.122-.047,4.247-.006,6.37.013.676-.175.915-.867.879C589.034,255.555,587.991,255.6,586.95,255.6Z" transform="translate(-76.177 -107.609)"/><path class="e" d="M586.881,184.633c1.081,0,2.164.032,3.243-.013.608-.025.832.128.819.784q-.063,3.244,0,6.49c.013.656-.21.8-.818.786-2.162-.034-4.325-.042-6.487,0-.723.015-.859-.26-.848-.907.035-2.083.051-4.168-.006-6.25-.022-.792.278-.941.974-.907C584.8,184.67,585.84,184.632,586.881,184.633Zm2.362,3.016a.729.729,0,0,0-.4-.69.6.6,0,0,0-.774.067c-.415.374-.819.761-1.206,1.164-.35.364-.637.692-1.111.107a.642.642,0,0,0-1.045.022.711.711,0,0,0,.056,1.066c1.421,1.519,1.56,1.578,2.795.24.406-.44.843-.852,1.266-1.277A1.054,1.054,0,0,0,589.243,187.649Z" transform="translate(-76.182 -60.018)"/><path class="e" d="M594.581,194.615a1.056,1.056,0,0,1-.417.7c-.423.425-.859.837-1.266,1.277-1.235,1.338-1.374,1.278-2.795-.24a.711.711,0,0,1-.056-1.066.642.642,0,0,1,1.045-.022c.475.585.762.257,1.111-.107.387-.4.792-.79,1.206-1.164a.6.6,0,0,1,.774-.067A.73.73,0,0,1,594.581,194.615Z" transform="translate(-81.52 -66.985)"/></g><g class="d" transform="matrix(-0.407, -0.914, 0.914, -0.407, 1184.551, 553.99)"><path class="e" d="M19.766,6.987c.043-1.711.01-3.549,0-3.612h-13c0,.063-.038,1.9,0,3.612h-3.4a23.817,23.817,0,0,0,1,8.029,11.128,11.128,0,0,0,2.8,4.455,31.843,31.843,0,0,0,4.97,3.65v1.793c-.219.634-1.12,1.787-3.969,1.787H7.187v3.042h12.2V26.7H18.16c-2.892,0-3.574-1.21-3.731-1.787V23.121A51.128,51.128,0,0,0,19.4,19.477a12.977,12.977,0,0,0,2.8-4.455,29.227,29.227,0,0,0,1-8.035ZM6.31,13.761a13.285,13.285,0,0,1-.748-3.923H6.93c.033.38.067.716.11,1.033a35.642,35.642,0,0,0,1.225,6.115A9.093,9.093,0,0,1,6.31,13.761Zm13.951,0a9.135,9.135,0,0,1-1.982,3.251,35.139,35.139,0,0,0,1.229-6.141c.038-.317.076-.653.11-1.033h1.4A13.279,13.279,0,0,1,20.261,13.761Z" transform="translate(256.367 731.496)"/><g class="e" transform="translate(249.223 767.668)"><rect class="i" width="10.22" height="4.143" rx="2.072"/><rect class="a" x="0.1" y="0.1" width="10.02" height="3.943" rx="1.972"/></g><g class="e" transform="translate(249.223 773.745)"><rect class="i" width="10.22" height="3.867" rx="1.934"/><rect class="a" x="0.1" y="0.1" width="10.02" height="3.667" rx="1.834"/></g><g class="e" transform="translate(249.223 779.545)"><rect class="i" width="10.22" height="3.867" rx="1.934"/><rect class="a" x="0.1" y="0.1" width="10.02" height="3.667" rx="1.834"/></g><g class="e" transform="translate(261.377 767.668)"><rect class="i" width="28.727" height="4.143" rx="2.072"/><rect class="a" x="0.1" y="0.1" width="28.527" height="3.943" rx="1.972"/></g><g class="e" transform="translate(261.377 773.745)"><rect class="i" width="28.727" height="3.867" rx="1.934"/><rect class="a" x="0.1" y="0.1" width="28.527" height="3.667" rx="1.834"/></g><g class="e" transform="translate(261.377 779.545)"><rect class="i" width="28.727" height="3.867" rx="1.934"/><rect class="a" x="0.1" y="0.1" width="28.527" height="3.667" rx="1.834"/></g><path class="e" d="M34.32,6.987c.041-1.711.009-3.549,0-3.612h-6.65c0,.044.2,23.189,0,26.368h6.283V26.7H32.792c-2.753,0-3.4-1.21-3.551-1.787V23.121a48.844,48.844,0,0,0,4.735-3.644,13.1,13.1,0,0,0,2.662-4.455,30.615,30.615,0,0,0,.948-8.035Zm.472,6.774a9.225,9.225,0,0,1-1.887,3.251,36.705,36.705,0,0,0,1.17-6.141c.036-.317.073-.653.1-1.033h1.329A13.873,13.873,0,0,1,34.792,13.761Z" transform="translate(241.978 731.496)"/></g><g class="d" transform="translate(1872.556 1708.57) rotate(-104)"><g transform="translate(1498.036 115.901)"><g transform="translate(0 17.142)"><path class="e" d="M340.783,375.322l2.262,6.114-2.262,3.046a61.9,61.9,0,0,1,6.7,1.614c.188.055-.266-3.936.167-3.794,1.566.512,3.339,1.2,5.039,1.911l1.284.4,2.789.833-.994-5.072A54.1,54.1,0,0,0,340.783,375.322Z" transform="translate(-340.783 -375.322)"/><path class="e" d="M361.59,395.306Z" transform="translate(-346.395 -380.287)"/><path class="e" d="M423.525,375.322l-2.262,6.114,2.262,3.046c-2.155.383-6.456,3.055-6.456,3.055v-5.421c-.316.072-.806.385-1.353.594s-1.427.588-2.4.91c-2.483.815-5.247,1.654-5.247,1.654l.964-4.689A44.361,44.361,0,0,1,423.525,375.322Z" transform="translate(-359.933 -375.322)"/></g><g transform="translate(12.621)"><path class="e" d="M360.6,380.12l-.049-.231c-.011-.056-1.222-5.7-2.343-11.362-2.347-11.844-2.083-12.17-1.721-12.62l.266-.327.454-.019a6.414,6.414,0,0,0,6.406-6.406v-.883h23.958v.883a6.411,6.411,0,0,0,6.4,6.406h.421l.3.347c.361.446.647.8-1.646,12.631-1.1,5.657-2.282,11.29-2.295,11.346l-.049.234-15.051,16.693Z" transform="translate(-356.251 -348.272)"/><path class="e" d="M390.4,380.215,376.162,396l-14.241-15.79s-4.986-23.259-4.207-23.259a7.289,7.289,0,0,0,7.29-7.29h22.19a7.287,7.287,0,0,0,7.284,7.29C395.3,356.956,390.4,380.215,390.4,380.215Z" transform="translate(-356.757 -348.783)"/><path class="e" d="M364.218,380.375c-1.584-7.408-3.648-17.7-4.091-21.182a8.816,8.816,0,0,0,7.163-7.162h19.446a8.811,8.811,0,0,0,7.181,7.166c-.407,3.461-2.432,13.77-3.991,21.18l-12.852,14.255Z" transform="translate(-357.671 -349.649)"/><path class="e" d="M393.453,360.552c-.534,3.72-2.166,12.156-3.8,19.933L377.722,393.72l-10.5-11.644-1.436-1.594c-1.662-7.778-3.327-16.2-3.893-19.938a9.831,9.831,0,0,0,6.849-6.934h17.839A9.817,9.817,0,0,0,393.453,360.552Z" transform="translate(-358.318 -350.227)"/></g><path class="e" d="M376.6,391.808a62.492,62.492,0,0,1-19.954-3.661c-3.127-1.147-5.245-2.106-5.245-2.106v9.16s12.013,5.767,25.2,5.767,25.2-5.767,25.2-5.767v-9.16S389.787,391.808,376.6,391.808Z" transform="translate(-344.672 -362.105)"/></g><g transform="translate(1524.276 147.583)"><path class="e" d="M2.95.112,2.538.948l-.923.135a.2.2,0,0,0-.112.345l.668.651L2.013,3a.2.2,0,0,0,.293.213l.826-.434.826.434A.2.2,0,0,0,4.251,3l-.158-.919.668-.651a.2.2,0,0,0-.112-.345L3.726.948,3.313.112a.2.2,0,0,0-.363,0Z" transform="translate(2.411 0.409)"/><path class="e" d="M1.509.113,1.1.949l-.923.135a.2.2,0,0,0-.112.345l.668.651L.571,3a.2.2,0,0,0,.293.213l.826-.434.826.434A.2.2,0,0,0,2.809,3L2.651,2.08l.668-.651a.2.2,0,0,0-.112-.345L2.284.949,1.872.113a.2.2,0,0,0-.363,0Z" transform="matrix(0.996, -0.087, 0.087, 0.996, 7.462, 0.295)"/><path class="e" d="M1.509.113,1.1.949l-.923.135a.2.2,0,0,0-.112.345l.668.651L.571,3a.2.2,0,0,0,.293.213l.826-.434.826.434A.2.2,0,0,0,2.809,3L2.651,2.08l.668-.651a.2.2,0,0,0-.112-.345L2.284.949,1.872.113a.2.2,0,0,0-.363,0Z" transform="matrix(0.998, 0.07, -0.07, 0.998, 0.226, 0.027)"/></g></g><g class="d" transform="translate(2655.037 986.479) rotate(-101)"><path class="e" d="M1148.743-597.826q-.174,3.008-.347,6.017a3.407,3.407,0,0,1-.191.918q-1.751,5.1-3.5,10.2a7.975,7.975,0,0,0-.22,2.09c-.244,3.545-.464,7.091-.694,10.637a.689.689,0,0,1-.745.723q-4.653-.025-9.306-.065c-.432,0-.682-.279-.714-.761q-.162-2.443-.315-4.887c-.156-2.431-.308-4.862-.472-7.292a5.328,5.328,0,0,0-.4-1.327q-1.584-4.661-3.184-9.316a5.892,5.892,0,0,1-.215-1.636c-.169-3.2-.324-6.4-.484-9.594-.027-.552-.062-1.1-.075-1.656a1.521,1.521,0,0,1,1.485-1.575,1.53,1.53,0,0,1,1.628,1.432c.133,2.269.246,4.539.368,6.808q.14,2.614.281,5.229a5.019,5.019,0,0,0,.442,1.9,49.128,49.128,0,0,1,1.734,4.723c.543,1.522,1.045,3.058,1.572,4.585a.671.671,0,0,1,0,.5,3.03,3.03,0,0,0,.991,3.541,3.05,3.05,0,0,0,3.648.026,3.028,3.028,0,0,0,1.047-3.493.732.732,0,0,1,0-.538q1.263-3.539,2.516-7.081a1.225,1.225,0,0,1,.179-.368,7.563,7.563,0,0,0,1.6-4.565c.206-3.673.462-7.343.7-11.014.063-.957.458-1.483,1.2-1.641a1.46,1.46,0,0,1,1.792,1.464c-.038,1.179-.12,2.358-.185,3.536-.046.828-.1,1.655-.145,2.482Z" transform="translate(-100.398 -90.003)"/><path class="e" d="M1015.808-411.5v-6.14a2.248,2.248,0,0,0,0-.3.451.451,0,0,0-.435-.439.454.454,0,0,0-.508.4,1.751,1.751,0,0,0-.014.375c0,3.893-.006,7.785.008,11.678,0,.344-.1.443-.418.4-.185-.024-.377,0-.564-.01a1.562,1.562,0,0,1-1.555-1.639c0-3.528-.035-7.057.011-10.585a5.623,5.623,0,0,1,3.018-4.968c.217-.129.3-.088.4.139q1.091,2.373,2.214,4.732a.537.537,0,0,1,.011.457,2.805,2.805,0,0,0,.949,3.23,2.828,2.828,0,0,0,3.338.052,2.819,2.819,0,0,0,1.047-3.2.648.648,0,0,1,.02-.529q1.1-2.327,2.174-4.667c.112-.245.2-.287.429-.145a5.587,5.587,0,0,1,2.9,4.847c.058,3.565.023,7.132.016,10.7a1.559,1.559,0,0,1-1.467,1.573c-1.082.1-1.082.1-1.082-.952q0-5.556,0-11.113a2.68,2.68,0,0,0-.008-.376.428.428,0,0,0-.429-.4.432.432,0,0,0-.487.373,2.035,2.035,0,0,0-.019.413q0,6.084,0,12.168c0,.726-.208.946-.936.953q-3.9.037-7.8.062c-.567,0-.812-.251-.813-.835Q1015.806-408.372,1015.808-411.5Z" transform="translate(0 -248.585)"/><path class="e" d="M1281.631-410.077q0-3.052,0-6.1a2.3,2.3,0,0,0-.009-.338.433.433,0,0,0-.467-.4.425.425,0,0,0-.45.374,2.448,2.448,0,0,0-.018.413q0,5.84.006,11.679c0,.313-.072.422-.389.389a4.942,4.942,0,0,1-1.046-.078,1.553,1.553,0,0,1-1.111-1.456c-.007-3.617-.059-7.235.021-10.85a5.522,5.522,0,0,1,3.047-4.831c.192-.11.261-.079.351.117q1.109,2.406,2.243,4.8a.542.542,0,0,1-.018.461,2.817,2.817,0,0,0,1.794,3.626,2.826,2.826,0,0,0,3.585-1.882,2.649,2.649,0,0,0-.03-1.7.635.635,0,0,1,.017-.533c.738-1.563,1.474-3.127,2.191-4.7.116-.254.213-.225.4-.108a5.614,5.614,0,0,1,2.917,4.952c.037,3.516.011,7.033.006,10.549a1.569,1.569,0,0,1-1.6,1.628c-.922.022-.922.022-.922-.892q0-5.614,0-11.227a1.607,1.607,0,0,0-.029-.373.432.432,0,0,0-.465-.358.449.449,0,0,0-.46.413,2.266,2.266,0,0,0-.007.339q0,6.1,0,12.207c0,.728-.209.94-.937.947q-3.823.035-7.647.068c-.753.006-.972-.214-.972-.954Q1281.631-406.988,1281.631-410.077Z" transform="translate(-230.913 -249.85)"/><path class="e" d="M1206.54-701.978c.252-.611-.157-1.274-.218-1.973a3.084,3.084,0,0,1,1.351-3.033c.987-.665,2.013-1.271,3.011-1.919.258-.167.271.065.34.17q2.115,3.222,4.217,6.454c.58.893,1.135,1.8,1.713,2.7.115.178.138.268-.073.4-.918.588-1.819,1.2-2.73,1.8a3.247,3.247,0,0,1-4.032-.259,1.509,1.509,0,0,0-.613-.333A4.015,4.015,0,0,1,1206.54-701.978Zm.452-1.945a6.629,6.629,0,0,1,1.907-1.694c.723-.45,1.434-.919,2.145-1.388.085-.056.293-.094.161-.263-.207-.264-.276-.635-.61-.8-.018-.009-.063.035-.095.055-.846.536-1.709,1.046-2.533,1.614A2.452,2.452,0,0,0,1206.992-703.923Zm4.031,6.115a2.473,2.473,0,0,0,2.523.037c.7-.432,1.378-.911,2.069-1.365.617-.405.612-.4.2-1.021-.113-.171-.187-.2-.371-.08-.811.544-1.639,1.063-2.452,1.6A5.2,5.2,0,0,1,1211.023-697.808Z" transform="translate(-168.525)"/><path class="e" d="M1179.935-536.671a4.329,4.329,0,0,1-4.263-4.4,4.324,4.324,0,0,1,4.466-4.232,4.318,4.318,0,0,1,4.182,4.434A4.328,4.328,0,0,1,1179.935-536.671Z" transform="translate(-141.915 -142.164)"/><path class="e" d="M1316.767-487.682a3.765,3.765,0,0,1-3.752-3.8,3.775,3.775,0,0,1,3.773-3.746,3.79,3.79,0,0,1,3.778,3.786A3.778,3.778,0,0,1,1316.767-487.682Z" transform="translate(-261.222 -185.667)"/><path class="e" d="M1054.62-495.4a3.754,3.754,0,0,1-3.8,3.742,3.77,3.77,0,0,1-3.74-3.812,3.793,3.793,0,0,1,3.792-3.733A3.772,3.772,0,0,1,1054.62-495.4Z" transform="translate(-30.207 -182.213)"/><path class="e" d="M1152.349-649.114c.2.03.252.185.332.308q1.72,2.65,3.437,5.3c.416.642.823,1.289,1.25,1.924.155.23.13.375-.1.52q-.687.426-1.358.877a.281.281,0,0,1-.463-.1q-2.387-3.7-4.783-7.386a.272.272,0,0,1,.085-.44c.486-.31.97-.623,1.456-.934A1.31,1.31,0,0,1,1152.349-649.114Z" transform="translate(-120.123 -51.988)"/><path class="e" d="M1192.707-416.954a2.1,2.1,0,0,1-2.081-2.091,2.114,2.114,0,0,1,2.112-2.1,2.116,2.116,0,0,1,2.082,2.1A2.1,2.1,0,0,1,1192.707-416.954Z" transform="translate(-154.905 -250.017)"/><path class="e" d="M1061.374-386.7a1.875,1.875,0,0,1,1.9-1.869,1.885,1.885,0,0,1,1.855,1.883,1.9,1.9,0,0,1-1.87,1.876A1.891,1.891,0,0,1,1061.374-386.7Z" transform="translate(-42.626 -278.323)"/><path class="e" d="M1329.126-387.039a1.859,1.859,0,0,1,1.857,1.908,1.864,1.864,0,0,1-1.893,1.836,1.885,1.885,0,0,1-1.868-1.871A1.885,1.885,0,0,1,1329.126-387.039Z" transform="translate(-273.565 -279.647)"/><path class="e" d="M1141.659-632.1c-.107.165-.3.212-.442.334-.2.176-.316.167-.478-.086q-2.852-4.445-5.74-8.868c-.19-.291-.15-.422.135-.546a.23.23,0,0,0,.062-.043c.244-.224.4-.2.588.106.57.929,1.175,1.836,1.768,2.752l3.944,6.089C1141.551-632.275,1141.6-632.189,1141.659-632.1Z" transform="translate(-106.481 -58.641)"/><path class="e" d="M1326.3-426.093h3.983c.067.092-.005.153-.034.214q-.862,1.853-1.732,3.7c-.045.1-.052.248-.191.249s-.149-.151-.194-.247C1327.531-423.462,1326.93-424.752,1326.3-426.093Z" transform="translate(-272.766 -245.722)"/><path class="e" d="M1060.789-427.5h3.955a1.221,1.221,0,0,1-.185.469q-.8,1.736-1.616,3.466c-.039.084-.049.211-.182.21-.111,0-.126-.105-.162-.182q-.9-1.918-1.795-3.838A.452.452,0,0,1,1060.789-427.5Z" transform="translate(-42.118 -244.5)"/><path class="e" d="M1186.037-642c-.918.439-1.87.787-2.03,2.033l-2.247-3.468c1.182.361,1.895-.355,2.67-1.023A5.215,5.215,0,0,0,1186.037-642Z" transform="translate(-147.203 -56.033)"/><path class="e" d="M1176.564-465.507c.421.213.784.525,1.226.7.122.049.147.165.185.267.466,1.266.924,2.535,1.4,3.8.078.208.074.3-.153.388a2.85,2.85,0,0,0-.776.5c-.325-.944-.639-1.85-.95-2.757q-.442-1.294-.877-2.591c-.033-.1-.123-.194-.047-.311Z" transform="translate(-142.67 -211.475)"/><path class="e" d="M1256-704.247c.112-.009.138.09.182.157q2.063,3.182,4.128,6.364c.178.273-.068.288-.185.368s-.238.279-.41.012q-2.049-3.191-4.117-6.37C1255.494-703.878,1255.76-704.227,1256-704.247Z" transform="translate(-211.326 -4.095)"/><path class="e" d="M1218.169-462.648c.067.072.012.144-.01.207q-.884,2.492-1.775,4.982a.833.833,0,0,1-.054.1c-.158-.11-.308-.224-.466-.322-.53-.331-.531-.328-.3-.932.4-1.039.8-2.076,1.188-3.119a.7.7,0,0,1,.446-.455c.334-.13.653-.3.978-.454Z" transform="translate(-176.441 -213.967)"/><path class="e" d="M1198.7-456.271l-1.215,3.183c-.027.07-.051.141-.083.209s-.039.189-.15.195-.133-.1-.161-.182c-.425-1.149-.846-2.3-1.287-3.5a11.43,11.43,0,0,0,1.435.185A9.276,9.276,0,0,0,1198.7-456.271Z" transform="translate(-159.4 -219.425)"/><path class="e" d="M1311.566-425.933c.131-.023.18.062.224.158q.929,1.991,1.861,3.981c.067.143.063.226-.1.282a1.382,1.382,0,0,0-.264.142c-.471.287-.47.288-.7-.2-.6-1.293-1.2-2.589-1.817-3.877-.108-.226-.113-.332.169-.361C1311.15-425.832,1311.357-425.891,1311.566-425.933Z" transform="translate(-259.213 -245.858)"/><path class="e" d="M1353.3-425.4c-.03.069-.054.127-.08.184-.652,1.4-1.308,2.788-1.952,4.187-.1.219-.183.267-.353.074a.973.973,0,0,0-.213-.152c-.436-.278-.435-.277-.206-.767.53-1.134,1.077-2.261,1.578-3.407.153-.349.328-.451.671-.331.141.049.293.067.437.109C1353.236-425.487,1353.313-425.475,1353.3-425.4Z" transform="translate(-293.652 -246.1)"/><path class="e" d="M1046.889-422.511c-.694-1.489-1.383-2.978-2.085-4.461-.09-.191-.026-.23.14-.276.791-.222.791-.226,1.137.513.531,1.135,1.054,2.273,1.594,3.4.1.211.1.313-.136.415A5.016,5.016,0,0,0,1046.889-422.511Z" transform="translate(-28.197 -244.606)"/><path class="e" d="M1085.164-422.227a2.414,2.414,0,0,0-.51-.345c-.412-.141-.341-.346-.188-.661.569-1.171,1.123-2.349,1.648-3.54a.427.427,0,0,1,.568-.293c.681.132.683.125.393.746Z" transform="translate(-62.581 -244.86)"/><path class="e" d="M1176.427-465.8l-.052,0,.014-.045.031.052Z" transform="translate(-142.526 -211.196)"/><path class="e" d="M1236.381-462.9l.042-.049c0,.012.01.026.006.036-.014.035-.034.035-.055,0Z" transform="translate(-194.646 -213.709)"/></g><g class="d" transform="translate(2103.137 1353.546) rotate(-115)"><g transform="translate(774.161 -206.99)"><g transform="translate(519.259 346.971)"><path class="e" d="M37.557,36.091c-1.414-.5-3.724-.53-4.747-.922a6.706,6.706,0,0,1-2.2-1.023c-.366-.442-.366-3.6-.366-3.6a5.812,5.812,0,0,0,1.25-1.767A19.643,19.643,0,0,0,32.1,25.31s.833.353,1.161-1.313c.278-1.439.808-2.2.669-3.257s-.732-.808-.732-.808.732-1.073.732-4.722c0-3.762-2.841-7.461-8.156-7.461S17.61,11.46,17.61,15.21c0,3.649.72,4.722.72,4.722s-.593-.252-.732.808.379,1.818.669,3.257c.328,1.679,1.161,1.313,1.161,1.313a19.833,19.833,0,0,0,.606,3.472,5.812,5.812,0,0,0,1.25,1.767s0,3.156-.366,3.6a6.454,6.454,0,0,1-2.2,1.01c-1.01.391-3.32.442-4.747.947a8.91,8.91,0,0,0-5.782,8.484H43.327A8.892,8.892,0,0,0,37.557,36.091Z" transform="translate(2.54 -7.683)"/><path class="e" d="M28.025,27.191s-3.017-.1-4.217-1.174c1.957-2.967.9-6.426,1.3-9.658s2.235-5.151,5.9-5.151h.05c3.535,0,5.441,1.919,5.845,5.151s-.72,7.07,1.288,9.658c-1.2,1.086-4.229,1.048-4.229,1.048h0a6.394,6.394,0,0,0,.126,2.121,3.188,3.188,0,0,0,1.515.694,29.294,29.294,0,0,1,3.27.909,5.315,5.315,0,0,1,2.853,4.7H31.585c-.278-1.01-2.184-2.815-4.04-3.762a8.478,8.478,0,0,0-3.118-.656s-.48-.757,1.1-1.048a10.762,10.762,0,0,0,2.424-.846C28.189,28.9,28.025,27.191,28.025,27.191Z" transform="translate(14.963 -4.931)"/><g transform="translate(0 6.277)"><path class="e" d="M15.913,27.191s3.017-.1,4.217-1.174c-1.957-2.967-.9-6.426-1.3-9.658s-2.235-5.151-5.9-5.151h-.05c-3.535,0-5.441,1.919-5.845,5.151s.72,7.07-1.288,9.658c1.2,1.086,4.229,1.048,4.229,1.048h0a6.394,6.394,0,0,1-.126,2.121,3.188,3.188,0,0,1-1.515.694,29.293,29.293,0,0,0-3.27.909,5.315,5.315,0,0,0-2.853,4.7H12.353c.278-1.01,2.184-2.815,4.04-3.762a8.478,8.478,0,0,1,3.118-.656s.48-.757-1.1-1.048a10.762,10.762,0,0,1-2.424-.846C15.749,28.9,15.913,27.191,15.913,27.191Z" transform="translate(-2.215 -11.208)"/></g></g><path class="e" d="M13.06,7.776H8.539V3.255a1,1,0,0,0-1-1h-1a1,1,0,0,0-1,1V7.776H1a1,1,0,0,0-1,1v1a1,1,0,0,0,1,1H5.526V15.31a1,1,0,0,0,1,1h1a1,1,0,0,0,1-1V10.789H13.06a1,1,0,0,0,1-1v-1A1,1,0,0,0,13.06,7.776Z" transform="translate(540.57 328.137)"/></g></g><g class="d" transform="translate(1483.636 211.747) rotate(-86)"><path class="e" d="M643.68,383.932l-1.112.6,3.126,24.87,3.367-24.87-1.062-.6-2.142-1.123Z" transform="translate(-616.076 -358.818)"/><g transform="translate(14.389 34.201)"><path class="e" d="M668.322,412.531c-5.136,2.877-8.8,7.051-9.467,16.388,2.743-8.158,7.256-10.067,13.217-12.109,0,0-.082-.681-.112-.842s-.253-1.434-.265-1.778l-1.559-.73-1.021-.492Z" transform="translate(-641.33 -412.531)"/><path class="e" d="M611.712,412.556c5.093,2.864,8.762,7.024,9.429,16.337-3.024-8.994-6.3-9.949-13.075-12.262,0-.241.067-.5.107-.871.048-.424.1-1.017.2-1.531l1.672-.836Z" transform="translate(-608.065 -412.549)"/></g><g transform="translate(0 20.788)"><g transform="translate(37.541)"><path class="e" d="M712.073,386.136l7.93-1.354-9.75,7.072Z" transform="translate(-698.083 -380.371)"/><path class="e" d="M720,384.782l-3.749,7.118-6-.045Z" transform="translate(-698.083 -380.371)"/><path class="e" d="M716.254,405.556l3.738,7.124-9.739-7.169Z" transform="translate(-698.083 -394.027)"/><path class="e" d="M695.735,379.812l1.163-7.96,3.79,11.484Z" transform="translate(-688.518 -371.852)"/><path class="e" d="M699.143,371.852l5.611,5.765-1.82,5.719Z" transform="translate(-690.764 -371.852)"/><path class="e" d="M696.869,417.07l-1.151-7.962,4.959-3.6Z" transform="translate(-688.507 -394.027)"/><path class="e" d="M686.753,398.707l-12.17.031,7.217-3.555Z" transform="translate(-674.582 -387.223)"/><path class="e" d="M719.992,412.68l-7.928-1.366-1.811-5.8Z" transform="translate(-698.083 -394.027)"/><path class="e" d="M681.793,409.108l-7.211-3.566,12.17-.031Z" transform="translate(-674.582 -394.027)"/><path class="e" d="M704.71,411.314l-5.62,5.756,3.808-11.559Z" transform="translate(-690.729 -394.027)"/></g><path class="e" d="M572.48,386.136l-7.93-1.354,9.75,7.072Z" transform="translate(-564.55 -380.371)"/><path class="e" d="M564.55,384.782,568.3,391.9l6-.045-2.886-2.094Z" transform="translate(-564.55 -380.371)"/><path class="e" d="M568.321,405.556l-3.738,7.124,9.739-7.169Z" transform="translate(-564.572 -394.027)"/><path class="e" d="M598.082,379.812l-1.163-7.96-3.79,11.484Z" transform="translate(-583.378 -371.852)"/><path class="e" d="M593.4,371.852l-5.611,5.765,1.82,5.719Z" transform="translate(-579.863 -371.852)"/><path class="e" d="M596.937,417.07l1.151-7.962-4.959-3.6Z" transform="translate(-583.378 -394.027)"/><path class="e" d="M593.129,398.707l12.17.031-7.217-3.555Z" transform="translate(-583.378 -387.223)"/><path class="e" d="M564.583,412.68l7.928-1.366,1.811-5.8Z" transform="translate(-564.572 -394.027)"/><path class="e" d="M598.088,409.108l7.211-3.566-12.17-.031Z" transform="translate(-583.378 -394.027)"/><path class="e" d="M587.82,411.314l5.62,5.756-3.808-11.559Z" transform="translate(-579.881 -394.027)"/></g><g class="h" transform="translate(26.632 24.039)"><path class="e" d="M643.077,376.23l3.11,24.941-.011-26.522-1.645.889Z" transform="translate(-643.077 -374.648)"/></g><g transform="translate(14.514)"><path class="e" d="M656.393,320.45l-4.7-9.528V326.83Z" transform="translate(-636.474 -310.922)"/><path class="e" d="M642.611,310.922l-4.7,9.528,4.7,6.381Z" transform="translate(-627.394 -310.922)"/><path class="e" d="M617.605,338.848l-10.515,1.528,15.217,4.853Z" transform="translate(-607.091 -329.32)"/><path class="e" d="M659.3,350.742l7.608-7.416-15.217,4.853Z" transform="translate(-636.474 -332.27)"/><path class="e" d="M666.908,340.375l-10.515-1.528-4.7,6.381Z" transform="translate(-636.474 -329.32)"/><path class="e" d="M624.126,370.585l9.4-4.944V357.55Z" transform="translate(-618.314 -341.641)"/><path class="e" d="M651.691,357.55l9.4,13.035-1.8-10.472Z" transform="translate(-636.474 -341.641)"/><path class="e" d="M607.091,343.326l7.608,7.416,7.608-2.563Z" transform="translate(-607.091 -332.27)"/><path class="e" d="M651.691,365.641l9.4,4.944-9.4-13.035Z" transform="translate(-636.474 -341.641)"/><path class="e" d="M625.922,360.113l-1.8,10.472,9.4-13.035Z" transform="translate(-618.314 -341.641)"/></g><rect class="e" width="13.462" height="5.476" transform="translate(23.223 50.531)"/><rect class="e" width="16.745" height="2.738" transform="translate(21.581 53.269)"/></g><g class="d" transform="translate(1707.06 1964.285) rotate(-98)"><g transform="translate(1857.798 137.972) rotate(1)"><g transform="translate(0 0)"><path class="e" d="M0,2.546l.139,8.083,9.087,6.133L9.135,0,8.287.725l-.944.406H6.128L3.732.922l-1.319.356L1.3,2.038Z"/></g></g><path class="e" d="M39.593,13.909c-.017.144-.038.518-.107.883a4.946,4.946,0,0,0,.869,3.893,2.756,2.756,0,0,1,.086,3.395,5.657,5.657,0,0,0-.875,4.6,2.719,2.719,0,0,1-1.341,2.96,5.3,5.3,0,0,0-2.466,3.67,2.883,2.883,0,0,1-2.49,2.443,4.857,4.857,0,0,0-3.47,2.267,3.059,3.059,0,0,1-3.544,1.431,4.366,4.366,0,0,0-3.649.654,3.334,3.334,0,0,1-4.231.015,4.453,4.453,0,0,0-3.742-.654,3.022,3.022,0,0,1-3.453-1.435,4.757,4.757,0,0,0-3.3-2.226,3.105,3.105,0,0,1-2.767-2.749,4.6,4.6,0,0,0-2.147-3.234,3.142,3.142,0,0,1-1.5-3.68,4.434,4.434,0,0,0-.769-3.724,3.036,3.036,0,0,1-.066-3.812,4.895,4.895,0,0,0,.782-4.074,2.9,2.9,0,0,1,1.369-3.3A4.948,4.948,0,0,0,5.163,7.726,2.879,2.879,0,0,1,7.68,5.2a5.382,5.382,0,0,0,3.7-2.571A2.542,2.542,0,0,1,14.2,1.444,5.745,5.745,0,0,0,18.977.469,2.52,2.52,0,0,1,21.724.347a2.808,2.808,0,0,1,.416.209,5.384,5.384,0,0,0,4.6.893,2.529,2.529,0,0,1,2.819,1.173,5.484,5.484,0,0,0,3.8,2.6,2.764,2.764,0,0,1,2.416,2.494,5.257,5.257,0,0,0,2.512,3.642A2.692,2.692,0,0,1,39.593,13.909Z" transform="translate(1837.333 97.491) rotate(1)"/><g transform="translate(1845.374 112.711) rotate(1)"><path class="e" d="M2.136,3.265l1.32.8-.349-1.5,1.165-1.01L2.736,1.416,2.136,0l-.6,1.416L0,1.548l1.165,1.01-.349,1.5Z" transform="translate(0 0)"/><path class="e" d="M2.136,3.265l1.32.8-.349-1.5,1.165-1.01L2.736,1.416,2.136,0l-.6,1.416L0,1.548l1.165,1.01-.349,1.5Z" transform="translate(5.077 0)"/><path class="e" d="M2.136,3.265l1.32.8-.349-1.5,1.165-1.01L2.736,1.416,2.136,0l-.6,1.416L0,1.548l1.165,1.01-.349,1.5Z" transform="translate(10.153 0)"/><path class="e" d="M2.136,3.265l1.32.8-.349-1.5,1.165-1.01L2.736,1.416,2.136,0l-.6,1.416L0,1.548l1.165,1.01-.349,1.5Z" transform="translate(15.229 0)"/><path class="e" d="M2.136,3.265l1.32.8-.349-1.5,1.165-1.01L2.736,1.416,2.136,0l-.6,1.416L0,1.548l1.165,1.01-.349,1.5Z" transform="translate(20.306 0)"/><path class="e" d="M2.136,3.265l1.32.8-.349-1.5,1.165-1.01L2.736,1.416,2.136,0l-.6,1.416L0,1.548l1.165,1.01-.349,1.5Z" transform="translate(0 6.659)"/><path class="e" d="M2.136,3.265l1.32.8-.349-1.5,1.165-1.01L2.736,1.416,2.136,0l-.6,1.416L0,1.548l1.165,1.01-.349,1.5Z" transform="translate(5.077 6.659)"/><path class="e" d="M2.136,3.265l1.32.8-.349-1.5,1.165-1.01L2.736,1.416,2.136,0l-.6,1.416L0,1.548l1.165,1.01-.349,1.5Z" transform="translate(10.153 6.659)"/><path class="e" d="M2.136,3.265l1.32.8-.349-1.5,1.165-1.01L2.736,1.416,2.136,0l-.6,1.416L0,1.548l1.165,1.01-.349,1.5Z" transform="translate(15.229 6.659)"/><path class="e" d="M2.136,3.265l1.32.8-.349-1.5,1.165-1.01L2.736,1.416,2.136,0l-.6,1.416L0,1.548l1.165,1.01-.349,1.5Z" transform="translate(20.306 6.659)"/></g><path class="e" d="M43.124,15.149c-.018.157-.041.564-.116.962a5.387,5.387,0,0,0,.946,4.24,3,3,0,0,1,.094,3.7,6.161,6.161,0,0,0-.953,5.015,2.961,2.961,0,0,1-1.46,3.224,5.77,5.77,0,0,0-2.686,4,3.14,3.14,0,0,1-2.712,2.661,5.29,5.29,0,0,0-3.779,2.469,3.331,3.331,0,0,1-3.86,1.559,4.755,4.755,0,0,0-3.975.712,3.631,3.631,0,0,1-4.608.017,4.85,4.85,0,0,0-4.076-.713,3.291,3.291,0,0,1-3.76-1.563A5.181,5.181,0,0,0,8.589,39a3.382,3.382,0,0,1-3.014-2.994,5.015,5.015,0,0,0-2.339-3.522,3.423,3.423,0,0,1-1.629-4.008A4.829,4.829,0,0,0,.77,24.423,3.307,3.307,0,0,1,.7,20.271a5.331,5.331,0,0,0,.852-4.437,3.154,3.154,0,0,1,1.491-3.595A5.389,5.389,0,0,0,5.624,8.415,3.136,3.136,0,0,1,8.365,5.666a5.862,5.862,0,0,0,4.034-2.8,2.769,2.769,0,0,1,3.071-1.293,6.257,6.257,0,0,0,5.2-1.062A2.745,2.745,0,0,1,23.66.378a3.073,3.073,0,0,1,.453.227,5.864,5.864,0,0,0,5.011.973,2.755,2.755,0,0,1,3.07,1.277,5.973,5.973,0,0,0,4.14,2.828A3.01,3.01,0,0,1,38.965,8.4,5.727,5.727,0,0,0,41.7,12.367,2.932,2.932,0,0,1,43.124,15.149Z" transform="translate(1835.537 95.637) rotate(1)"/><g transform="translate(1848.695 138.735) rotate(1)"><g transform="translate(0 0)"><path class="e" d="M9.226,1.624,9.085,9.707,0,15.839.1.092.891.209l1.1-.117L3.144,0h.774L5.1.209l.767.4.735.5L7.7,1.624Z"/></g></g></g><g class="d" transform="matrix(0.326, -0.946, 0.946, 0.326, 836.468, 1384.913)"><g transform="translate(774.161 -206.99)"><g transform="translate(519.259 346.971)"><path class="e" d="M37.557,36.091c-1.414-.5-3.724-.53-4.747-.922a6.706,6.706,0,0,1-2.2-1.023c-.366-.442-.366-3.6-.366-3.6a5.812,5.812,0,0,0,1.25-1.767A19.643,19.643,0,0,0,32.1,25.31s.833.353,1.161-1.313c.278-1.439.808-2.2.669-3.257s-.732-.808-.732-.808.732-1.073.732-4.722c0-3.762-2.841-7.461-8.156-7.461S17.61,11.46,17.61,15.21c0,3.649.72,4.722.72,4.722s-.593-.252-.732.808.379,1.818.669,3.257c.328,1.679,1.161,1.313,1.161,1.313a19.833,19.833,0,0,0,.606,3.472,5.812,5.812,0,0,0,1.25,1.767s0,3.156-.366,3.6a6.454,6.454,0,0,1-2.2,1.01c-1.01.391-3.32.442-4.747.947a8.91,8.91,0,0,0-5.782,8.484H43.327A8.892,8.892,0,0,0,37.557,36.091Z" transform="translate(2.54 -7.683)"/><path class="e" d="M28.025,27.191s-3.017-.1-4.217-1.174c1.957-2.967.9-6.426,1.3-9.658s2.235-5.151,5.9-5.151h.05c3.535,0,5.441,1.919,5.845,5.151s-.72,7.07,1.288,9.658c-1.2,1.086-4.229,1.048-4.229,1.048h0a6.394,6.394,0,0,0,.126,2.121,3.188,3.188,0,0,0,1.515.694,29.294,29.294,0,0,1,3.27.909,5.315,5.315,0,0,1,2.853,4.7H31.585c-.278-1.01-2.184-2.815-4.04-3.762a8.478,8.478,0,0,0-3.118-.656s-.48-.757,1.1-1.048a10.762,10.762,0,0,0,2.424-.846C28.189,28.9,28.025,27.191,28.025,27.191Z" transform="translate(14.963 -4.931)"/><g transform="translate(0 6.277)"><path class="e" d="M15.913,27.191s3.017-.1,4.217-1.174c-1.957-2.967-.9-6.426-1.3-9.658s-2.235-5.151-5.9-5.151h-.05c-3.535,0-5.441,1.919-5.845,5.151s.72,7.07-1.288,9.658c1.2,1.086,4.229,1.048,4.229,1.048h0a6.394,6.394,0,0,1-.126,2.121,3.188,3.188,0,0,1-1.515.694,29.293,29.293,0,0,0-3.27.909,5.315,5.315,0,0,0-2.853,4.7H12.353c.278-1.01,2.184-2.815,4.04-3.762a8.478,8.478,0,0,1,3.118-.656s.48-.757-1.1-1.048a10.762,10.762,0,0,1-2.424-.846C15.749,28.9,15.913,27.191,15.913,27.191Z" transform="translate(-2.215 -11.208)"/></g></g><path class="e" d="M13.06,7.776H8.539V3.255a1,1,0,0,0-1-1h-1a1,1,0,0,0-1,1V7.776H1a1,1,0,0,0-1,1v1a1,1,0,0,0,1,1H5.526V15.31a1,1,0,0,0,1,1h1a1,1,0,0,0,1-1V10.789H13.06a1,1,0,0,0,1-1v-1A1,1,0,0,0,13.06,7.776Z" transform="translate(540.57 328.137)"/></g></g><g class="d" transform="translate(-1809.361 3418.3) rotate(-74)"><path class="e" d="M-233.481-354.1a21.134,21.134,0,0,0-21.134,21.134,21.134,21.134,0,0,0,21.134,21.134,21.134,21.134,0,0,0,21.134-21.134A21.134,21.134,0,0,0-233.481-354.1m15.968,26.555c-.273.8-1.617,1.132-2.012,1.87s.07,2.051-.439,2.719-1.888.555-2.5,1.136-.563,1.968-1.255,2.449-1.964-.053-2.722.316-1.125,1.7-1.932,1.954c-.791.245-1.853-.645-2.692-.519-.816.122-1.571,1.289-2.422,1.289s-1.606-1.166-2.422-1.289c-.839-.126-1.9.764-2.692.519-.808-.25-1.185-1.589-1.933-1.954s-2.037.16-2.722-.316-.65-1.871-1.255-2.449-1.988-.469-2.5-1.137-.042-1.976-.439-2.719-1.739-1.069-2.012-1.87.591-1.877.453-2.717c-.135-.819-1.3-1.568-1.3-2.424s1.166-1.605,1.3-2.424c.138-.839-.721-1.927-.453-2.717s1.617-1.132,2.012-1.87-.07-2.051.439-2.719,1.888-.555,2.5-1.136.563-1.968,1.255-2.449,1.964.053,2.722-.316,1.125-1.7,1.932-1.954c.791-.245,1.853.645,2.692.519.816-.122,1.571-1.289,2.422-1.289s1.606,1.166,2.422,1.289c.839.126,1.9-.764,2.692-.519.808.25,1.185,1.589,1.932,1.954s2.037-.16,2.722.317.65,1.871,1.255,2.449,1.988.469,2.5,1.137.042,1.976.439,2.719,1.739,1.069,2.012,1.87-.591,1.877-.453,2.717c.135.819,1.3,1.568,1.3,2.424s-1.166,1.605-1.3,2.425C-218.1-329.427-217.245-328.339-217.513-327.549Z" transform="translate(4400.115 2591.104)"/><path class="e" d="M-12.743-74.435l-3.806-2.824-1.184,1.613,5.709,4.236L-1.646-85.55l-1.9-1.412-9.194,12.527" transform="translate(4175.996 2337.77)"/></g><g class="d" transform="translate(1846.492 1230.015) rotate(-82)"><path class="e" d="M1148.743-597.826q-.174,3.008-.347,6.017a3.407,3.407,0,0,1-.191.918q-1.751,5.1-3.5,10.2a7.975,7.975,0,0,0-.22,2.09c-.244,3.545-.464,7.091-.694,10.637a.689.689,0,0,1-.745.723q-4.653-.025-9.306-.065c-.432,0-.682-.279-.714-.761q-.162-2.443-.315-4.887c-.156-2.431-.308-4.862-.472-7.292a5.328,5.328,0,0,0-.4-1.327q-1.584-4.661-3.184-9.316a5.892,5.892,0,0,1-.215-1.636c-.169-3.2-.324-6.4-.484-9.594-.027-.552-.062-1.1-.075-1.656a1.521,1.521,0,0,1,1.485-1.575,1.53,1.53,0,0,1,1.628,1.432c.133,2.269.246,4.539.368,6.808q.14,2.614.281,5.229a5.019,5.019,0,0,0,.442,1.9,49.128,49.128,0,0,1,1.734,4.723c.543,1.522,1.045,3.058,1.572,4.585a.671.671,0,0,1,0,.5,3.03,3.03,0,0,0,.991,3.541,3.05,3.05,0,0,0,3.648.026,3.028,3.028,0,0,0,1.047-3.493.732.732,0,0,1,0-.538q1.263-3.539,2.516-7.081a1.225,1.225,0,0,1,.179-.368,7.563,7.563,0,0,0,1.6-4.565c.206-3.673.462-7.343.7-11.014.063-.957.458-1.483,1.2-1.641a1.46,1.46,0,0,1,1.792,1.464c-.038,1.179-.12,2.358-.185,3.536-.046.828-.1,1.655-.145,2.482Z" transform="translate(-100.398 -90.003)"/><path class="e" d="M1015.808-411.5v-6.14a2.248,2.248,0,0,0,0-.3.451.451,0,0,0-.435-.439.454.454,0,0,0-.508.4,1.751,1.751,0,0,0-.014.375c0,3.893-.006,7.785.008,11.678,0,.344-.1.443-.418.4-.185-.024-.377,0-.564-.01a1.562,1.562,0,0,1-1.555-1.639c0-3.528-.035-7.057.011-10.585a5.623,5.623,0,0,1,3.018-4.968c.217-.129.3-.088.4.139q1.091,2.373,2.214,4.732a.537.537,0,0,1,.011.457,2.805,2.805,0,0,0,.949,3.23,2.828,2.828,0,0,0,3.338.052,2.819,2.819,0,0,0,1.047-3.2.648.648,0,0,1,.02-.529q1.1-2.327,2.174-4.667c.112-.245.2-.287.429-.145a5.587,5.587,0,0,1,2.9,4.847c.058,3.565.023,7.132.016,10.7a1.559,1.559,0,0,1-1.467,1.573c-1.082.1-1.082.1-1.082-.952q0-5.556,0-11.113a2.68,2.68,0,0,0-.008-.376.428.428,0,0,0-.429-.4.432.432,0,0,0-.487.373,2.035,2.035,0,0,0-.019.413q0,6.084,0,12.168c0,.726-.208.946-.936.953q-3.9.037-7.8.062c-.567,0-.812-.251-.813-.835Q1015.806-408.372,1015.808-411.5Z" transform="translate(0 -248.585)"/><path class="e" d="M1281.631-410.077q0-3.052,0-6.1a2.3,2.3,0,0,0-.009-.338.433.433,0,0,0-.467-.4.425.425,0,0,0-.45.374,2.448,2.448,0,0,0-.018.413q0,5.84.006,11.679c0,.313-.072.422-.389.389a4.942,4.942,0,0,1-1.046-.078,1.553,1.553,0,0,1-1.111-1.456c-.007-3.617-.059-7.235.021-10.85a5.522,5.522,0,0,1,3.047-4.831c.192-.11.261-.079.351.117q1.109,2.406,2.243,4.8a.542.542,0,0,1-.018.461,2.817,2.817,0,0,0,1.794,3.626,2.826,2.826,0,0,0,3.585-1.882,2.649,2.649,0,0,0-.03-1.7.635.635,0,0,1,.017-.533c.738-1.563,1.474-3.127,2.191-4.7.116-.254.213-.225.4-.108a5.614,5.614,0,0,1,2.917,4.952c.037,3.516.011,7.033.006,10.549a1.569,1.569,0,0,1-1.6,1.628c-.922.022-.922.022-.922-.892q0-5.614,0-11.227a1.607,1.607,0,0,0-.029-.373.432.432,0,0,0-.465-.358.449.449,0,0,0-.46.413,2.266,2.266,0,0,0-.007.339q0,6.1,0,12.207c0,.728-.209.94-.937.947q-3.823.035-7.647.068c-.753.006-.972-.214-.972-.954Q1281.631-406.988,1281.631-410.077Z" transform="translate(-230.913 -249.85)"/><path class="e" d="M1206.54-701.978c.252-.611-.157-1.274-.218-1.973a3.084,3.084,0,0,1,1.351-3.033c.987-.665,2.013-1.271,3.011-1.919.258-.167.271.065.34.17q2.115,3.222,4.217,6.454c.58.893,1.135,1.8,1.713,2.7.115.178.138.268-.073.4-.918.588-1.819,1.2-2.73,1.8a3.247,3.247,0,0,1-4.032-.259,1.509,1.509,0,0,0-.613-.333A4.015,4.015,0,0,1,1206.54-701.978Zm.452-1.945a6.629,6.629,0,0,1,1.907-1.694c.723-.45,1.434-.919,2.145-1.388.085-.056.293-.094.161-.263-.207-.264-.276-.635-.61-.8-.018-.009-.063.035-.095.055-.846.536-1.709,1.046-2.533,1.614A2.452,2.452,0,0,0,1206.992-703.923Zm4.031,6.115a2.473,2.473,0,0,0,2.523.037c.7-.432,1.378-.911,2.069-1.365.617-.405.612-.4.2-1.021-.113-.171-.187-.2-.371-.08-.811.544-1.639,1.063-2.452,1.6A5.2,5.2,0,0,1,1211.023-697.808Z" transform="translate(-168.525)"/><path class="e" d="M1179.935-536.671a4.329,4.329,0,0,1-4.263-4.4,4.324,4.324,0,0,1,4.466-4.232,4.318,4.318,0,0,1,4.182,4.434A4.328,4.328,0,0,1,1179.935-536.671Z" transform="translate(-141.915 -142.164)"/><path class="e" d="M1316.767-487.682a3.765,3.765,0,0,1-3.752-3.8,3.775,3.775,0,0,1,3.773-3.746,3.79,3.79,0,0,1,3.778,3.786A3.778,3.778,0,0,1,1316.767-487.682Z" transform="translate(-261.222 -185.667)"/><path class="e" d="M1054.62-495.4a3.754,3.754,0,0,1-3.8,3.742,3.77,3.77,0,0,1-3.74-3.812,3.793,3.793,0,0,1,3.792-3.733A3.772,3.772,0,0,1,1054.62-495.4Z" transform="translate(-30.207 -182.213)"/><path class="e" d="M1152.349-649.114c.2.03.252.185.332.308q1.72,2.65,3.437,5.3c.416.642.823,1.289,1.25,1.924.155.23.13.375-.1.52q-.687.426-1.358.877a.281.281,0,0,1-.463-.1q-2.387-3.7-4.783-7.386a.272.272,0,0,1,.085-.44c.486-.31.97-.623,1.456-.934A1.31,1.31,0,0,1,1152.349-649.114Z" transform="translate(-120.123 -51.988)"/><path class="e" d="M1192.707-416.954a2.1,2.1,0,0,1-2.081-2.091,2.114,2.114,0,0,1,2.112-2.1,2.116,2.116,0,0,1,2.082,2.1A2.1,2.1,0,0,1,1192.707-416.954Z" transform="translate(-154.905 -250.017)"/><path class="e" d="M1061.374-386.7a1.875,1.875,0,0,1,1.9-1.869,1.885,1.885,0,0,1,1.855,1.883,1.9,1.9,0,0,1-1.87,1.876A1.891,1.891,0,0,1,1061.374-386.7Z" transform="translate(-42.626 -278.323)"/><path class="e" d="M1329.126-387.039a1.859,1.859,0,0,1,1.857,1.908,1.864,1.864,0,0,1-1.893,1.836,1.885,1.885,0,0,1-1.868-1.871A1.885,1.885,0,0,1,1329.126-387.039Z" transform="translate(-273.565 -279.647)"/><path class="e" d="M1141.659-632.1c-.107.165-.3.212-.442.334-.2.176-.316.167-.478-.086q-2.852-4.445-5.74-8.868c-.19-.291-.15-.422.135-.546a.23.23,0,0,0,.062-.043c.244-.224.4-.2.588.106.57.929,1.175,1.836,1.768,2.752l3.944,6.089C1141.551-632.275,1141.6-632.189,1141.659-632.1Z" transform="translate(-106.481 -58.641)"/><path class="e" d="M1326.3-426.093h3.983c.067.092-.005.153-.034.214q-.862,1.853-1.732,3.7c-.045.1-.052.248-.191.249s-.149-.151-.194-.247C1327.531-423.462,1326.93-424.752,1326.3-426.093Z" transform="translate(-272.766 -245.722)"/><path class="e" d="M1060.789-427.5h3.955a1.221,1.221,0,0,1-.185.469q-.8,1.736-1.616,3.466c-.039.084-.049.211-.182.21-.111,0-.126-.105-.162-.182q-.9-1.918-1.795-3.838A.452.452,0,0,1,1060.789-427.5Z" transform="translate(-42.118 -244.5)"/><path class="e" d="M1186.037-642c-.918.439-1.87.787-2.03,2.033l-2.247-3.468c1.182.361,1.895-.355,2.67-1.023A5.215,5.215,0,0,0,1186.037-642Z" transform="translate(-147.203 -56.033)"/><path class="e" d="M1176.564-465.507c.421.213.784.525,1.226.7.122.049.147.165.185.267.466,1.266.924,2.535,1.4,3.8.078.208.074.3-.153.388a2.85,2.85,0,0,0-.776.5c-.325-.944-.639-1.85-.95-2.757q-.442-1.294-.877-2.591c-.033-.1-.123-.194-.047-.311Z" transform="translate(-142.67 -211.475)"/><path class="e" d="M1256-704.247c.112-.009.138.09.182.157q2.063,3.182,4.128,6.364c.178.273-.068.288-.185.368s-.238.279-.41.012q-2.049-3.191-4.117-6.37C1255.494-703.878,1255.76-704.227,1256-704.247Z" transform="translate(-211.326 -4.095)"/><path class="e" d="M1218.169-462.648c.067.072.012.144-.01.207q-.884,2.492-1.775,4.982a.833.833,0,0,1-.054.1c-.158-.11-.308-.224-.466-.322-.53-.331-.531-.328-.3-.932.4-1.039.8-2.076,1.188-3.119a.7.7,0,0,1,.446-.455c.334-.13.653-.3.978-.454Z" transform="translate(-176.441 -213.967)"/><path class="e" d="M1198.7-456.271l-1.215,3.183c-.027.07-.051.141-.083.209s-.039.189-.15.195-.133-.1-.161-.182c-.425-1.149-.846-2.3-1.287-3.5a11.43,11.43,0,0,0,1.435.185A9.276,9.276,0,0,0,1198.7-456.271Z" transform="translate(-159.4 -219.425)"/><path class="e" d="M1311.566-425.933c.131-.023.18.062.224.158q.929,1.991,1.861,3.981c.067.143.063.226-.1.282a1.382,1.382,0,0,0-.264.142c-.471.287-.47.288-.7-.2-.6-1.293-1.2-2.589-1.817-3.877-.108-.226-.113-.332.169-.361C1311.15-425.832,1311.357-425.891,1311.566-425.933Z" transform="translate(-259.213 -245.858)"/><path class="e" d="M1353.3-425.4c-.03.069-.054.127-.08.184-.652,1.4-1.308,2.788-1.952,4.187-.1.219-.183.267-.353.074a.973.973,0,0,0-.213-.152c-.436-.278-.435-.277-.206-.767.53-1.134,1.077-2.261,1.578-3.407.153-.349.328-.451.671-.331.141.049.293.067.437.109C1353.236-425.487,1353.313-425.475,1353.3-425.4Z" transform="translate(-293.652 -246.1)"/><path class="e" d="M1046.889-422.511c-.694-1.489-1.383-2.978-2.085-4.461-.09-.191-.026-.23.14-.276.791-.222.791-.226,1.137.513.531,1.135,1.054,2.273,1.594,3.4.1.211.1.313-.136.415A5.016,5.016,0,0,0,1046.889-422.511Z" transform="translate(-28.197 -244.606)"/><path class="e" d="M1085.164-422.227a2.414,2.414,0,0,0-.51-.345c-.412-.141-.341-.346-.188-.661.569-1.171,1.123-2.349,1.648-3.54a.427.427,0,0,1,.568-.293c.681.132.683.125.393.746Z" transform="translate(-62.581 -244.86)"/><path class="e" d="M1176.427-465.8l-.052,0,.014-.045.031.052Z" transform="translate(-142.526 -211.196)"/><path class="e" d="M1236.381-462.9l.042-.049c0,.012.01.026.006.036-.014.035-.034.035-.055,0Z" transform="translate(-194.646 -213.709)"/></g><g class="d" transform="translate(1342.714 603.648) rotate(-95)"><path class="e" d="M522.062,161.239v1.047a3.58,3.58,0,0,1,0,.738q-.031,16.421-.039,32.842H482.5l-.207-.217c-.009-11.176,0-22.351-.051-33.526,0-1.1.629-.878,1.234-.878q18.8,0,37.607-.005C521.481,161.239,521.666,161.266,522.062,161.239Zm-28.35,4.174c-1.445,0-2.891.022-4.336-.009-.786-.017-1.187.221-1.178,1.094.031,2.972.021,5.945.005,8.918,0,.7.263,1.04.986,1.037q4.517-.015,9.034,0c.774,0,1.085-.347,1.083-1.094-.009-2.932-.018-5.865.005-8.8.007-.908-.417-1.185-1.262-1.163C496.6,165.441,495.157,165.413,493.712,165.413Zm.005,15.284c-1.443,0-2.886.036-4.327-.013-.9-.031-1.2.33-1.192,1.2q.046,4.329,0,8.66c-.009.851.262,1.25,1.169,1.241,2.925-.03,5.85-.024,8.775,0,.822.006,1.163-.353,1.161-1.154-.01-2.927-.014-5.854,0-8.78,0-.89-.4-1.19-1.262-1.164C496.6,180.729,495.16,180.7,493.717,180.7Zm17.118,0c-1.486,0-2.973.03-4.458-.011-.894-.025-1.211.357-1.2,1.221q.036,4.34,0,8.68c-.007.9.395,1.2,1.248,1.191q4.338-.036,8.676,0c.892.008,1.193-.369,1.183-1.237q-.049-4.34,0-8.68c.011-.909-.365-1.2-1.227-1.175C513.648,180.731,512.241,180.7,510.835,180.7Zm5.432-9.769c0-1.446-.037-2.893.014-4.336.032-.91-.352-1.2-1.213-1.187q-4.334.043-8.668,0c-.853-.008-1.241.28-1.231,1.185.032,2.891.026,5.782,0,8.673-.006.8.263,1.19,1.107,1.185q4.454-.028,8.909,0c.855.006,1.112-.386,1.09-1.185C516.24,173.823,516.268,172.377,516.268,170.931Z" transform="translate(-0.049 -42.299)"/><path class="e" d="M488.23,105.355h1.688c2.4,1.285,3.086,3.041,2.263,5.784-.971.465-1.387.181-1.289-.909a10.259,10.259,0,0,0-.005-1.686,1.689,1.689,0,0,0-1.7-1.695,1.715,1.715,0,0,0-1.884,1.506c-.521,2.509-.152,2.955,2.349,2.958a2.97,2.97,0,0,0,.481,0c.674-.11.8.233.774.822-.039.761-.022,1.527,0,2.289a.736.736,0,0,0,.745.785.624.624,0,0,0,.7-.659c-.048-1.143.279-2.312-.2-3.429,1.447.418,2.933.031,4.385.21,1.194.148,1.525-.3,1.4-1.435-.236-2.114.422-3.773,2.592-4.539h1.688a4.119,4.119,0,0,1,2.361,4.476,9.508,9.508,0,0,0,.046,1.309,1.945,1.945,0,0,1-1.616-.065,25.781,25.781,0,0,0-.023-2.745,1.768,1.768,0,0,0-3.465-.118,4.217,4.217,0,0,0,.085,2.909c.344.554,1.415.134,2.158.182a8.329,8.329,0,0,0,1.181-.086q.035,1.489.07,2.979c.013.517.148,1.014.749,1.031.664.019.835-.486.842-1.061q.016-1.492.035-2.983c1.388.273,2.8,0,4.182.145,1.085.115,1.431-.26,1.3-1.32-.259-2.1.3-3.812,2.463-4.651h1.688a3.882,3.882,0,0,1,2.434,4.271,4.358,4.358,0,0,0,.093,1.883,1.8,1.8,0,0,0-1.688-.034,10.308,10.308,0,0,0,.083-2.979,1.692,1.692,0,0,0-1.5-1.632,1.619,1.619,0,0,0-1.882.957,7.129,7.129,0,0,0-.172,3.193c.012.46.5.267.782.294a12.007,12.007,0,0,1,2.725.14c.029.907.071,1.816.073,2.725,0,.533.111,1.008.717,1.022s.75-.44.765-.983a13.5,13.5,0,0,1,.09-2.719,22,22,0,0,1,5.2-.118q0,3.012,0,6.023c-2.927.017-5.854.048-8.781.049-9.909.006-19.819-.019-29.728.033-1.1.006-1.38-.3-1.272-1.326a24.239,24.239,0,0,0,.018-2.527c0-2.314,0-2.394,2.282-2.284,1.192.058,1.443-.4,1.311-1.419A3.92,3.92,0,0,1,488.23,105.355Z" transform="translate(0 0)"/><path class="e" d="M512.284,178.473c1.446,0,2.892.028,4.336-.01.845-.022,1.27.254,1.262,1.163-.024,2.932-.014,5.865-.005,8.8,0,.746-.308,1.1-1.083,1.094q-4.516-.025-9.034,0c-.723,0-.99-.335-.986-1.037.016-2.973.026-5.946-.005-8.918-.009-.873.392-1.11,1.178-1.094C509.393,178.494,510.839,178.473,512.284,178.473ZM512.3,188c1.121,0,2.242-.023,3.362.01.529.016.681-.171.675-.687-.023-2.2-.027-4.406,0-6.609.008-.572-.158-.755-.74-.747q-3.3.046-6.6,0c-.591-.009-.737.188-.729.751q.043,3.3,0,6.609c-.006.516.133.7.67.686C510.061,187.974,511.183,188,512.3,188Z" transform="translate(-18.622 -55.358)"/><path class="e" d="M512.292,241.419c1.443,0,2.886.032,4.327-.012.857-.026,1.266.275,1.262,1.164-.017,2.927-.012,5.853,0,8.78,0,.8-.339,1.16-1.161,1.154-2.925-.021-5.85-.027-8.775,0-.907.009-1.177-.39-1.169-1.241q.044-4.33,0-8.66c-.01-.872.294-1.233,1.192-1.2C509.406,241.456,510.85,241.419,512.292,241.419Zm0,1.478c-1.084,0-2.169.024-3.251-.01-.546-.017-.783.108-.774.719.033,2.209.026,4.418,0,6.627-.005.543.111.789.727.78q3.311-.05,6.624,0c.619.008.729-.267.724-.8-.018-2.169-.026-4.338,0-6.507.009-.616-.158-.853-.806-.823C514.463,242.934,513.378,242.9,512.294,242.9Z" transform="translate(-18.625 -103.021)"/><path class="e" d="M582.359,241.439c1.406,0,2.813.031,4.217-.011.862-.026,1.238.266,1.227,1.175q-.052,4.34,0,8.68c.01.867-.29,1.245-1.183,1.237q-4.337-.039-8.676,0c-.853.007-1.255-.294-1.248-1.191q.036-4.34,0-8.68c-.007-.864.31-1.245,1.2-1.221C579.386,241.47,580.873,241.439,582.359,241.439Zm-.014,9.584c1.041,0,2.084-.04,3.123.014.693.036.88-.2.867-.879-.04-2.123-.055-4.248.006-6.37.023-.8-.277-.908-.966-.894-2.082.04-4.165.044-6.246,0-.724-.016-.975.166-.956.928.052,2.082.044,4.167,0,6.25-.014.708.152,1.014.925.969C580.18,250.977,581.264,251.024,582.345,251.024Z" transform="translate(-71.573 -103.038)"/><path class="e" d="M587.78,184.012c0,1.445-.027,2.892.011,4.336.021.8-.236,1.191-1.09,1.185q-4.455-.033-8.909,0c-.844.005-1.113-.389-1.107-1.185.023-2.891.029-5.782,0-8.673-.01-.9.378-1.192,1.231-1.185q4.334.039,8.668,0c.861-.008,1.245.277,1.213,1.187C587.742,181.119,587.78,182.566,587.78,184.012Zm-5.519-4.019c-1.041,0-2.084.038-3.123-.013-.7-.034-1,.115-.974.907.058,2.082.041,4.167.006,6.25-.011.648.125.923.848.907,2.162-.045,4.325-.037,6.487,0,.608.009.831-.13.818-.786q-.063-3.244,0-6.49c.013-.657-.211-.81-.819-.784C584.424,180.026,583.342,179.993,582.261,179.993Z" transform="translate(-71.561 -55.379)"/><path class="e" d="M516.982,192.7c-1.121,0-2.243-.026-3.362.012-.538.018-.676-.17-.671-.686q.037-3.3,0-6.609c-.007-.562.138-.759.729-.751q3.3.05,6.6,0c.581-.008.747.176.74.747-.029,2.2-.025,4.406,0,6.609.005.516-.146.7-.675.687C519.225,192.672,518.1,192.7,516.982,192.7Z" transform="translate(-23.3 -60.054)"/><path class="e" d="M516.956,247.506c1.084,0,2.169.036,3.251-.014.648-.03.815.207.806.823-.031,2.169-.023,4.338,0,6.507,0,.53-.106.806-.724.8q-3.311-.044-6.624,0c-.615.009-.732-.237-.727-.78.022-2.209.029-4.418,0-6.627-.009-.611.228-.736.774-.719C514.787,247.53,515.872,247.506,516.956,247.506Z" transform="translate(-23.287 -107.629)"/><path class="e" d="M586.95,255.6c-1.081,0-2.165-.047-3.243.016-.773.045-.939-.26-.925-.969.04-2.083.048-4.168,0-6.25-.019-.762.232-.944.956-.928,2.081.045,4.165.042,6.247,0,.689-.014.989.095.966.894-.062,2.122-.047,4.247-.006,6.37.013.676-.175.915-.867.879C589.034,255.555,587.991,255.6,586.95,255.6Z" transform="translate(-76.177 -107.609)"/><path class="e" d="M586.881,184.633c1.081,0,2.164.032,3.243-.013.608-.025.832.128.819.784q-.063,3.244,0,6.49c.013.656-.21.8-.818.786-2.162-.034-4.325-.042-6.487,0-.723.015-.859-.26-.848-.907.035-2.083.051-4.168-.006-6.25-.022-.792.278-.941.974-.907C584.8,184.67,585.84,184.632,586.881,184.633Zm2.362,3.016a.729.729,0,0,0-.4-.69.6.6,0,0,0-.774.067c-.415.374-.819.761-1.206,1.164-.35.364-.637.692-1.111.107a.642.642,0,0,0-1.045.022.711.711,0,0,0,.056,1.066c1.421,1.519,1.56,1.578,2.795.24.406-.44.843-.852,1.266-1.277A1.054,1.054,0,0,0,589.243,187.649Z" transform="translate(-76.182 -60.018)"/><path class="e" d="M594.581,194.615a1.056,1.056,0,0,1-.417.7c-.423.425-.859.837-1.266,1.277-1.235,1.338-1.374,1.278-2.795-.24a.711.711,0,0,1-.056-1.066.642.642,0,0,1,1.045-.022c.475.585.762.257,1.111-.107.387-.4.792-.79,1.206-1.164a.6.6,0,0,1,.774-.067A.73.73,0,0,1,594.581,194.615Z" transform="translate(-81.52 -66.985)"/></g><g class="d" transform="translate(778.414 543.962) rotate(-113)"><path class="e" d="M19.766,6.987c.043-1.711.01-3.549,0-3.612h-13c0,.063-.038,1.9,0,3.612h-3.4a23.817,23.817,0,0,0,1,8.029,11.128,11.128,0,0,0,2.8,4.455,31.843,31.843,0,0,0,4.97,3.65v1.793c-.219.634-1.12,1.787-3.969,1.787H7.187v3.042h12.2V26.7H18.16c-2.892,0-3.574-1.21-3.731-1.787V23.121A51.128,51.128,0,0,0,19.4,19.477a12.977,12.977,0,0,0,2.8-4.455,29.227,29.227,0,0,0,1-8.035ZM6.31,13.761a13.285,13.285,0,0,1-.748-3.923H6.93c.033.38.067.716.11,1.033a35.642,35.642,0,0,0,1.225,6.115A9.093,9.093,0,0,1,6.31,13.761Zm13.951,0a9.135,9.135,0,0,1-1.982,3.251,35.139,35.139,0,0,0,1.229-6.141c.038-.317.076-.653.11-1.033h1.4A13.279,13.279,0,0,1,20.261,13.761Z" transform="translate(256.367 731.496)"/><g class="e" transform="translate(249.223 767.668)"><rect class="i" width="10.22" height="4.143" rx="2.072"/><rect class="a" x="0.1" y="0.1" width="10.02" height="3.943" rx="1.972"/></g><g class="e" transform="translate(249.223 773.745)"><rect class="i" width="10.22" height="3.867" rx="1.934"/><rect class="a" x="0.1" y="0.1" width="10.02" height="3.667" rx="1.834"/></g><g class="e" transform="translate(249.223 779.545)"><rect class="i" width="10.22" height="3.867" rx="1.934"/><rect class="a" x="0.1" y="0.1" width="10.02" height="3.667" rx="1.834"/></g><g class="e" transform="translate(261.377 767.668)"><rect class="i" width="28.727" height="4.143" rx="2.072"/><rect class="a" x="0.1" y="0.1" width="28.527" height="3.943" rx="1.972"/></g><g class="e" transform="translate(261.377 773.745)"><rect class="i" width="28.727" height="3.867" rx="1.934"/><rect class="a" x="0.1" y="0.1" width="28.527" height="3.667" rx="1.834"/></g><g class="e" transform="translate(261.377 779.545)"><rect class="i" width="28.727" height="3.867" rx="1.934"/><rect class="a" x="0.1" y="0.1" width="28.527" height="3.667" rx="1.834"/></g><path class="e" d="M34.32,6.987c.041-1.711.009-3.549,0-3.612h-6.65c0,.044.2,23.189,0,26.368h6.283V26.7H32.792c-2.753,0-3.4-1.21-3.551-1.787V23.121a48.844,48.844,0,0,0,4.735-3.644,13.1,13.1,0,0,0,2.662-4.455,30.615,30.615,0,0,0,.948-8.035Zm.472,6.774a9.225,9.225,0,0,1-1.887,3.251,36.705,36.705,0,0,0,1.17-6.141c.036-.317.073-.653.1-1.033h1.329A13.873,13.873,0,0,1,34.792,13.761Z" transform="translate(241.978 731.496)"/></g><g class="d" transform="matrix(-0.53, -0.848, 0.848, -0.53, 1446.353, 4686.75)"><g transform="translate(3876 2210)"><rect class="a" width="56" height="52"/><g transform="translate(0.293 1.758)"><path class="f" d="M444.378,148.441l.218.226C444.445,148.667,444.367,148.6,444.378,148.441Z" transform="translate(-398.478 -125.531)"/><path class="e" d="M54.685,56.673V52.01a1.8,1.8,0,0,0-2.125-1.874c-2.226.141-39.848,0-39.848,0s-1.525-.082-1.523,1.874,0,25,0,25a1.855,1.855,0,0,0,1.851,2.038c2.025.13,24.137.13,24.137.13S28.968,57.9,54.685,56.673Z" transform="translate(-8.274 -35.441)"/><g transform="translate(11.322 0)"><path class="e" d="M395.693,61.054c0,.768.03,1.538-.007,2.3a1.783,1.783,0,1,1-3.566-.028c-.04-1.5-.072-3,.012-4.493.077-1.353.619-1.692,2.076-1.693.98,0,1.456.754,1.485,1.721.022.729,0,1.46,0,2.189Z" transform="translate(-369.206 -57.144)"/><path class="e" d="M296.9,64.26a1.891,1.891,0,0,1-2.266.852,1.763,1.763,0,0,1-1.238-1.87c.016-1.382,0-2.765.006-4.147,0-.892.319-1.681,1.254-1.795.915-.111,1.993-.186,2.243,1.154.042.157.033.274.073.528a6.032,6.032,0,0,1,0,.606C296.981,61.267,296.9,62.581,296.9,64.26Z" transform="translate(-293.398 -57.222)"/></g><g transform="translate(0 4.642)"><g transform="translate(0 0)"><path class="e" d="M260.816,77.119c5.008-.016,10.017-.01,15.025-.064.986-.011,1.69.009,1.5,1.157a4.936,4.936,0,0,0,.883,2.366,4.38,4.38,0,0,0,2.2,1.325c.868.212,1.8-.548,2.495-1.218a1.931,1.931,0,0,0,.391-.6,5.989,5.989,0,0,0,.175-.777c.072-.192-.085-1.4.416-2.08.189-.261,1.361-.181,1.733-.158,1.2.073,2.4.025,3.608.03a6.9,6.9,0,0,1,4.737,5.6c-.006-.05.006.044.014.1l.041.158c.069.55-.008-1.64,0,.891.008,2.607,0,6.3,0,9.448v.915c.035.707-.384.64-.827.465-.71-.281-1.41-.587-2.114-.882l-.225-.234a9.128,9.128,0,0,1,0-1.388c0-.889.028-1.923,0-2.9-.045-1.574-.7-2.144-2.288-2.145q-19.263-.009-38.526,0c-1.483,0-2.541.141-2.612,1.614,0-.007,0,.47,0,.561-.008,8.138-.007,16.3,0,24.435a2.041,2.041,0,0,0,2.08,2.193,5.877,5.877,0,0,0,.6,0c7.289,0,14.586.182,21.875.186a6,6,0,0,0,1.509-.044c.491.783.932,1.307,1.411,1.961-.151.833-.818.555-1.3.556-8.246.015-16.334.2-24.58.207-.3,0-.611-.005-1.046,0h-.449a3.833,3.833,0,0,1-2.981-3.894q-.021-15.684,0-31.368a6.2,6.2,0,0,1,5.514-6.366h.91c.174,0,.3.009.513,0h.322a3.32,3.32,0,0,0,.511,0c.1,0,.44.015.708,0,.393-.021,1.417,0,1.417,0a6.575,6.575,0,0,1,.068.9l.152,1.361c.821,1.63,1.879,2.34,3.282,2.2,1.455-.142,2.39-1.1,2.827-2.893Z" transform="translate(-244.551 -77.035)"/><path class="g" d="M457.562,102.318Z" transform="translate(-408.109 -96.489)"/></g></g><g transform="translate(28.978 23.201)"><path class="e" d="M397.643,170.654a13.082,13.082,0,1,1-12.922-13.17A13.048,13.048,0,0,1,397.643,170.654Zm-2.609-1.678a10.593,10.593,0,0,0-7.3-8.511c-1.833-.566-1.838-.569-2.088,1.239a1.075,1.075,0,0,1-2.147.012,3.27,3.27,0,0,1,0-.823c.128-.823-.248-.9-.933-.738a10.512,10.512,0,0,0-8.081,7.269c-.211.63-.594,1.367-.309,1.918.2.395,1.022.092,1.563.151a1.071,1.071,0,0,1-.023,2.14,3.24,3.24,0,0,1-.706,0c-.925-.133-1,.253-.807,1.061a10.483,10.483,0,0,0,7.353,8c1.735.569,1.757.534,1.937-1.194.072-.693.4-1.121,1.113-1.1a1.011,1.011,0,0,1,1.042,1.162,3.989,3.989,0,0,1,0,.588c-.132.851.231.978.991.8a10.473,10.473,0,0,0,8.046-7.3c.2-.591.571-1.278.3-1.81-.251-.5-1-.1-1.514-.21-.038-.008-.079,0-.117-.009a1.068,1.068,0,0,1,.039-2.125,7.779,7.779,0,0,1,1.177-.011C395.008,169.516,395.116,169.309,395.033,168.977Z" transform="translate(-371.48 -157.484)"/><path class="e" d="M403.413,177.4c.082.332-.025.54-.471.514a7.776,7.776,0,0,0-1.177.011,1.068,1.068,0,0,0-.039,2.125c.038.007.079,0,.117.009.516.107,1.262-.287,1.513.21.269.532-.107,1.219-.3,1.81a10.473,10.473,0,0,1-8.046,7.3c-.76.179-1.122.052-.991-.8a3.972,3.972,0,0,0,0-.588,1.011,1.011,0,0,0-1.042-1.162c-.71-.022-1.04.406-1.113,1.1-.181,1.728-.2,1.763-1.937,1.194a10.483,10.483,0,0,1-7.353-8c-.193-.808-.118-1.194.807-1.061a3.239,3.239,0,0,0,.706,0,1.071,1.071,0,0,0,.023-2.14c-.541-.058-1.359.244-1.563-.151-.285-.551.1-1.288.309-1.918a10.512,10.512,0,0,1,8.082-7.269c.685-.161,1.061-.085.933.738a3.273,3.273,0,0,0,0,.823,1.075,1.075,0,0,0,2.147-.012c.25-1.808.255-1.8,2.088-1.239A10.593,10.593,0,0,1,403.413,177.4Zm-11.066,2.363c1.928.955,3.861,1.9,5.783,2.87.629.317,1.24.45,1.621-.273.431-.817-.157-1.215-.8-1.529-1.406-.689-2.8-1.4-4.227-2.048a1.12,1.12,0,0,1-.789-1.243c.068-1.015,0-2.039.025-3.057.02-.759-.121-1.331-1.057-1.282s-1.037.649-.9,1.4c-.026,1.523-.05,3.045-.081,4.568A.512.512,0,0,0,392.347,179.767Z" transform="translate(-379.86 -165.911)"/><g transform="translate(12.064 12.622)"><path class="e" d="M422.6,208.366C422.635,206.843,422.6,208.563,422.6,208.366Z" transform="translate(-422.604 -207.731)"/></g></g><path class="e" d="M284.826,147.12c-1.038,0-2.077-.033-3.113.013-.664.029-.884-.219-.86-.862.037-1,.027-2,0-3-.014-.59.215-.809.815-.8q3.286.038,6.572,0c.566-.006.739.229.729.756-.02,1.037-.028,2.076,0,3.113.018.6-.207.81-.808.79C287.056,147.093,285.941,147.119,284.826,147.12Z" transform="translate(-273.316 -122.693)"/><path class="e" d="M284.925,179.084c-1.076,0-2.153-.02-3.228.009-.562.015-.865-.125-.846-.761.032-1.037.027-2.076,0-3.113-.016-.611.249-.788.832-.781,2.152.025,4.3.033,6.456,0,.687-.012.858.267.836.888-.034.96-.048,1.924.006,2.882.041.736-.257.927-.944.894C287,179.047,285.963,179.084,284.925,179.084Z" transform="translate(-273.315 -147.247)"/><path class="e" d="M284.861,205.582c1.081,0,2.162.029,3.241-.011.668-.024.886.246.863.884-.034.964-.047,1.931,0,2.893.038.736-.27.91-.951.9-2.083-.035-4.168-.039-6.251,0-.717.014-.961-.232-.932-.93.04-.963.035-1.93,0-2.894-.024-.67.266-.876.9-.854C282.776,205.607,283.819,205.582,284.861,205.582Z" transform="translate(-273.302 -171.166)"/><path class="e" d="M337.577,147.125c-1.076,0-2.153-.021-3.229.007-.55.015-.76-.2-.749-.74.021-1.076.013-2.153,0-3.229,0-.486.206-.685.695-.683,2.23.011,4.46.016,6.689,0,.557-.005.746.209.732.749-.026,1.037-.033,2.077,0,3.114.021.6-.193.818-.8.8C339.808,147.1,338.692,147.126,337.577,147.125Z" transform="translate(-313.837 -122.698)"/><path class="e" d="M337.737,174.438c1.04,0,2.081.035,3.119-.011.675-.03.808.245.859.873.107,1.322-.767,2.313-1.04,3.5-.1.42-.5.273-.782.274-1.81.011-3.621-.013-5.431.016-.63.01-.918-.165-.888-.846.043-1,.03-2,0-3-.017-.593.2-.829.809-.812C335.5,174.46,336.62,174.437,337.737,174.438Z" transform="translate(-313.817 -147.24)"/><g transform="translate(32.777 20.103)"><path class="e" d="M397.185,143.741a16.754,16.754,0,0,0-7.14,2.208c.022-.909-.071-2.772-.132-3.266h7.272c.009.206-.018.317,0,.512v.546Z" transform="translate(-389.914 -142.683)"/></g></g></g></g><g class="d" transform="translate(1402.286 496.182) rotate(-121)"><path class="e" d="M522.062,161.239v1.047a3.58,3.58,0,0,1,0,.738q-.031,16.421-.039,32.842H482.5l-.207-.217c-.009-11.176,0-22.351-.051-33.526,0-1.1.629-.878,1.234-.878q18.8,0,37.607-.005C521.481,161.239,521.666,161.266,522.062,161.239Zm-28.35,4.174c-1.445,0-2.891.022-4.336-.009-.786-.017-1.187.221-1.178,1.094.031,2.972.021,5.945.005,8.918,0,.7.263,1.04.986,1.037q4.517-.015,9.034,0c.774,0,1.085-.347,1.083-1.094-.009-2.932-.018-5.865.005-8.8.007-.908-.417-1.185-1.262-1.163C496.6,165.441,495.157,165.413,493.712,165.413Zm.005,15.284c-1.443,0-2.886.036-4.327-.013-.9-.031-1.2.33-1.192,1.2q.046,4.329,0,8.66c-.009.851.262,1.25,1.169,1.241,2.925-.03,5.85-.024,8.775,0,.822.006,1.163-.353,1.161-1.154-.01-2.927-.014-5.854,0-8.78,0-.89-.4-1.19-1.262-1.164C496.6,180.729,495.16,180.7,493.717,180.7Zm17.118,0c-1.486,0-2.973.03-4.458-.011-.894-.025-1.211.357-1.2,1.221q.036,4.34,0,8.68c-.007.9.395,1.2,1.248,1.191q4.338-.036,8.676,0c.892.008,1.193-.369,1.183-1.237q-.049-4.34,0-8.68c.011-.909-.365-1.2-1.227-1.175C513.648,180.731,512.241,180.7,510.835,180.7Zm5.432-9.769c0-1.446-.037-2.893.014-4.336.032-.91-.352-1.2-1.213-1.187q-4.334.043-8.668,0c-.853-.008-1.241.28-1.231,1.185.032,2.891.026,5.782,0,8.673-.006.8.263,1.19,1.107,1.185q4.454-.028,8.909,0c.855.006,1.112-.386,1.09-1.185C516.24,173.823,516.268,172.377,516.268,170.931Z" transform="translate(-0.049 -42.299)"/><path class="e" d="M488.23,105.355h1.688c2.4,1.285,3.086,3.041,2.263,5.784-.971.465-1.387.181-1.289-.909a10.259,10.259,0,0,0-.005-1.686,1.689,1.689,0,0,0-1.7-1.695,1.715,1.715,0,0,0-1.884,1.506c-.521,2.509-.152,2.955,2.349,2.958a2.97,2.97,0,0,0,.481,0c.674-.11.8.233.774.822-.039.761-.022,1.527,0,2.289a.736.736,0,0,0,.745.785.624.624,0,0,0,.7-.659c-.048-1.143.279-2.312-.2-3.429,1.447.418,2.933.031,4.385.21,1.194.148,1.525-.3,1.4-1.435-.236-2.114.422-3.773,2.592-4.539h1.688a4.119,4.119,0,0,1,2.361,4.476,9.508,9.508,0,0,0,.046,1.309,1.945,1.945,0,0,1-1.616-.065,25.781,25.781,0,0,0-.023-2.745,1.768,1.768,0,0,0-3.465-.118,4.217,4.217,0,0,0,.085,2.909c.344.554,1.415.134,2.158.182a8.329,8.329,0,0,0,1.181-.086q.035,1.489.07,2.979c.013.517.148,1.014.749,1.031.664.019.835-.486.842-1.061q.016-1.492.035-2.983c1.388.273,2.8,0,4.182.145,1.085.115,1.431-.26,1.3-1.32-.259-2.1.3-3.812,2.463-4.651h1.688a3.882,3.882,0,0,1,2.434,4.271,4.358,4.358,0,0,0,.093,1.883,1.8,1.8,0,0,0-1.688-.034,10.308,10.308,0,0,0,.083-2.979,1.692,1.692,0,0,0-1.5-1.632,1.619,1.619,0,0,0-1.882.957,7.129,7.129,0,0,0-.172,3.193c.012.46.5.267.782.294a12.007,12.007,0,0,1,2.725.14c.029.907.071,1.816.073,2.725,0,.533.111,1.008.717,1.022s.75-.44.765-.983a13.5,13.5,0,0,1,.09-2.719,22,22,0,0,1,5.2-.118q0,3.012,0,6.023c-2.927.017-5.854.048-8.781.049-9.909.006-19.819-.019-29.728.033-1.1.006-1.38-.3-1.272-1.326a24.239,24.239,0,0,0,.018-2.527c0-2.314,0-2.394,2.282-2.284,1.192.058,1.443-.4,1.311-1.419A3.92,3.92,0,0,1,488.23,105.355Z" transform="translate(0 0)"/><path class="e" d="M512.284,178.473c1.446,0,2.892.028,4.336-.01.845-.022,1.27.254,1.262,1.163-.024,2.932-.014,5.865-.005,8.8,0,.746-.308,1.1-1.083,1.094q-4.516-.025-9.034,0c-.723,0-.99-.335-.986-1.037.016-2.973.026-5.946-.005-8.918-.009-.873.392-1.11,1.178-1.094C509.393,178.494,510.839,178.473,512.284,178.473ZM512.3,188c1.121,0,2.242-.023,3.362.01.529.016.681-.171.675-.687-.023-2.2-.027-4.406,0-6.609.008-.572-.158-.755-.74-.747q-3.3.046-6.6,0c-.591-.009-.737.188-.729.751q.043,3.3,0,6.609c-.006.516.133.7.67.686C510.061,187.974,511.183,188,512.3,188Z" transform="translate(-18.622 -55.358)"/><path class="e" d="M512.292,241.419c1.443,0,2.886.032,4.327-.012.857-.026,1.266.275,1.262,1.164-.017,2.927-.012,5.853,0,8.78,0,.8-.339,1.16-1.161,1.154-2.925-.021-5.85-.027-8.775,0-.907.009-1.177-.39-1.169-1.241q.044-4.33,0-8.66c-.01-.872.294-1.233,1.192-1.2C509.406,241.456,510.85,241.419,512.292,241.419Zm0,1.478c-1.084,0-2.169.024-3.251-.01-.546-.017-.783.108-.774.719.033,2.209.026,4.418,0,6.627-.005.543.111.789.727.78q3.311-.05,6.624,0c.619.008.729-.267.724-.8-.018-2.169-.026-4.338,0-6.507.009-.616-.158-.853-.806-.823C514.463,242.934,513.378,242.9,512.294,242.9Z" transform="translate(-18.625 -103.021)"/><path class="e" d="M582.359,241.439c1.406,0,2.813.031,4.217-.011.862-.026,1.238.266,1.227,1.175q-.052,4.34,0,8.68c.01.867-.29,1.245-1.183,1.237q-4.337-.039-8.676,0c-.853.007-1.255-.294-1.248-1.191q.036-4.34,0-8.68c-.007-.864.31-1.245,1.2-1.221C579.386,241.47,580.873,241.439,582.359,241.439Zm-.014,9.584c1.041,0,2.084-.04,3.123.014.693.036.88-.2.867-.879-.04-2.123-.055-4.248.006-6.37.023-.8-.277-.908-.966-.894-2.082.04-4.165.044-6.246,0-.724-.016-.975.166-.956.928.052,2.082.044,4.167,0,6.25-.014.708.152,1.014.925.969C580.18,250.977,581.264,251.024,582.345,251.024Z" transform="translate(-71.573 -103.038)"/><path class="e" d="M587.78,184.012c0,1.445-.027,2.892.011,4.336.021.8-.236,1.191-1.09,1.185q-4.455-.033-8.909,0c-.844.005-1.113-.389-1.107-1.185.023-2.891.029-5.782,0-8.673-.01-.9.378-1.192,1.231-1.185q4.334.039,8.668,0c.861-.008,1.245.277,1.213,1.187C587.742,181.119,587.78,182.566,587.78,184.012Zm-5.519-4.019c-1.041,0-2.084.038-3.123-.013-.7-.034-1,.115-.974.907.058,2.082.041,4.167.006,6.25-.011.648.125.923.848.907,2.162-.045,4.325-.037,6.487,0,.608.009.831-.13.818-.786q-.063-3.244,0-6.49c.013-.657-.211-.81-.819-.784C584.424,180.026,583.342,179.993,582.261,179.993Z" transform="translate(-71.561 -55.379)"/><path class="e" d="M516.982,192.7c-1.121,0-2.243-.026-3.362.012-.538.018-.676-.17-.671-.686q.037-3.3,0-6.609c-.007-.562.138-.759.729-.751q3.3.05,6.6,0c.581-.008.747.176.74.747-.029,2.2-.025,4.406,0,6.609.005.516-.146.7-.675.687C519.225,192.672,518.1,192.7,516.982,192.7Z" transform="translate(-23.3 -60.054)"/><path class="e" d="M516.956,247.506c1.084,0,2.169.036,3.251-.014.648-.03.815.207.806.823-.031,2.169-.023,4.338,0,6.507,0,.53-.106.806-.724.8q-3.311-.044-6.624,0c-.615.009-.732-.237-.727-.78.022-2.209.029-4.418,0-6.627-.009-.611.228-.736.774-.719C514.787,247.53,515.872,247.506,516.956,247.506Z" transform="translate(-23.287 -107.629)"/><path class="e" d="M586.95,255.6c-1.081,0-2.165-.047-3.243.016-.773.045-.939-.26-.925-.969.04-2.083.048-4.168,0-6.25-.019-.762.232-.944.956-.928,2.081.045,4.165.042,6.247,0,.689-.014.989.095.966.894-.062,2.122-.047,4.247-.006,6.37.013.676-.175.915-.867.879C589.034,255.555,587.991,255.6,586.95,255.6Z" transform="translate(-76.177 -107.609)"/><path class="e" d="M586.881,184.633c1.081,0,2.164.032,3.243-.013.608-.025.832.128.819.784q-.063,3.244,0,6.49c.013.656-.21.8-.818.786-2.162-.034-4.325-.042-6.487,0-.723.015-.859-.26-.848-.907.035-2.083.051-4.168-.006-6.25-.022-.792.278-.941.974-.907C584.8,184.67,585.84,184.632,586.881,184.633Zm2.362,3.016a.729.729,0,0,0-.4-.69.6.6,0,0,0-.774.067c-.415.374-.819.761-1.206,1.164-.35.364-.637.692-1.111.107a.642.642,0,0,0-1.045.022.711.711,0,0,0,.056,1.066c1.421,1.519,1.56,1.578,2.795.24.406-.44.843-.852,1.266-1.277A1.054,1.054,0,0,0,589.243,187.649Z" transform="translate(-76.182 -60.018)"/><path class="e" d="M594.581,194.615a1.056,1.056,0,0,1-.417.7c-.423.425-.859.837-1.266,1.277-1.235,1.338-1.374,1.278-2.795-.24a.711.711,0,0,1-.056-1.066.642.642,0,0,1,1.045-.022c.475.585.762.257,1.111-.107.387-.4.792-.79,1.206-1.164a.6.6,0,0,1,.774-.067A.73.73,0,0,1,594.581,194.615Z" transform="translate(-81.52 -66.985)"/></g><g class="d" transform="matrix(-0.035, -0.999, 0.999, -0.035, 1191.176, 122.026)"><path class="e" d="M643.68,383.932l-1.112.6,3.126,24.87,3.367-24.87-1.062-.6-2.142-1.123Z" transform="translate(-616.076 -358.818)"/><g transform="translate(14.389 34.201)"><path class="e" d="M668.322,412.531c-5.136,2.877-8.8,7.051-9.467,16.388,2.743-8.158,7.256-10.067,13.217-12.109,0,0-.082-.681-.112-.842s-.253-1.434-.265-1.778l-1.559-.73-1.021-.492Z" transform="translate(-641.33 -412.531)"/><path class="e" d="M611.712,412.556c5.093,2.864,8.762,7.024,9.429,16.337-3.024-8.994-6.3-9.949-13.075-12.262,0-.241.067-.5.107-.871.048-.424.1-1.017.2-1.531l1.672-.836Z" transform="translate(-608.065 -412.549)"/></g><g transform="translate(0 20.788)"><g transform="translate(37.541)"><path class="e" d="M712.073,386.136l7.93-1.354-9.75,7.072Z" transform="translate(-698.083 -380.371)"/><path class="e" d="M720,384.782l-3.749,7.118-6-.045Z" transform="translate(-698.083 -380.371)"/><path class="e" d="M716.254,405.556l3.738,7.124-9.739-7.169Z" transform="translate(-698.083 -394.027)"/><path class="e" d="M695.735,379.812l1.163-7.96,3.79,11.484Z" transform="translate(-688.518 -371.852)"/><path class="e" d="M699.143,371.852l5.611,5.765-1.82,5.719Z" transform="translate(-690.764 -371.852)"/><path class="e" d="M696.869,417.07l-1.151-7.962,4.959-3.6Z" transform="translate(-688.507 -394.027)"/><path class="e" d="M686.753,398.707l-12.17.031,7.217-3.555Z" transform="translate(-674.582 -387.223)"/><path class="e" d="M719.992,412.68l-7.928-1.366-1.811-5.8Z" transform="translate(-698.083 -394.027)"/><path class="e" d="M681.793,409.108l-7.211-3.566,12.17-.031Z" transform="translate(-674.582 -394.027)"/><path class="e" d="M704.71,411.314l-5.62,5.756,3.808-11.559Z" transform="translate(-690.729 -394.027)"/></g><path class="e" d="M572.48,386.136l-7.93-1.354,9.75,7.072Z" transform="translate(-564.55 -380.371)"/><path class="e" d="M564.55,384.782,568.3,391.9l6-.045-2.886-2.094Z" transform="translate(-564.55 -380.371)"/><path class="e" d="M568.321,405.556l-3.738,7.124,9.739-7.169Z" transform="translate(-564.572 -394.027)"/><path class="e" d="M598.082,379.812l-1.163-7.96-3.79,11.484Z" transform="translate(-583.378 -371.852)"/><path class="e" d="M593.4,371.852l-5.611,5.765,1.82,5.719Z" transform="translate(-579.863 -371.852)"/><path class="e" d="M596.937,417.07l1.151-7.962-4.959-3.6Z" transform="translate(-583.378 -394.027)"/><path class="e" d="M593.129,398.707l12.17.031-7.217-3.555Z" transform="translate(-583.378 -387.223)"/><path class="e" d="M564.583,412.68l7.928-1.366,1.811-5.8Z" transform="translate(-564.572 -394.027)"/><path class="e" d="M598.088,409.108l7.211-3.566-12.17-.031Z" transform="translate(-583.378 -394.027)"/><path class="e" d="M587.82,411.314l5.62,5.756-3.808-11.559Z" transform="translate(-579.881 -394.027)"/></g><g class="h" transform="translate(26.632 24.039)"><path class="e" d="M643.077,376.23l3.11,24.941-.011-26.522-1.645.889Z" transform="translate(-643.077 -374.648)"/></g><g transform="translate(14.514)"><path class="e" d="M656.393,320.45l-4.7-9.528V326.83Z" transform="translate(-636.474 -310.922)"/><path class="e" d="M642.611,310.922l-4.7,9.528,4.7,6.381Z" transform="translate(-627.394 -310.922)"/><path class="e" d="M617.605,338.848l-10.515,1.528,15.217,4.853Z" transform="translate(-607.091 -329.32)"/><path class="e" d="M659.3,350.742l7.608-7.416-15.217,4.853Z" transform="translate(-636.474 -332.27)"/><path class="e" d="M666.908,340.375l-10.515-1.528-4.7,6.381Z" transform="translate(-636.474 -329.32)"/><path class="e" d="M624.126,370.585l9.4-4.944V357.55Z" transform="translate(-618.314 -341.641)"/><path class="e" d="M651.691,357.55l9.4,13.035-1.8-10.472Z" transform="translate(-636.474 -341.641)"/><path class="e" d="M607.091,343.326l7.608,7.416,7.608-2.563Z" transform="translate(-607.091 -332.27)"/><path class="e" d="M651.691,365.641l9.4,4.944-9.4-13.035Z" transform="translate(-636.474 -341.641)"/><path class="e" d="M625.922,360.113l-1.8,10.472,9.4-13.035Z" transform="translate(-618.314 -341.641)"/></g><rect class="e" width="13.462" height="5.476" transform="translate(23.223 50.531)"/><rect class="e" width="16.745" height="2.738" transform="translate(21.581 53.269)"/></g><g class="d" transform="matrix(0.326, -0.946, 0.946, 0.326, 593.468, 1287.391)"><g transform="translate(774.161 -206.99)"><g transform="translate(519.259 346.971)"><path class="e" d="M37.557,36.091c-1.414-.5-3.724-.53-4.747-.922a6.706,6.706,0,0,1-2.2-1.023c-.366-.442-.366-3.6-.366-3.6a5.812,5.812,0,0,0,1.25-1.767A19.643,19.643,0,0,0,32.1,25.31s.833.353,1.161-1.313c.278-1.439.808-2.2.669-3.257s-.732-.808-.732-.808.732-1.073.732-4.722c0-3.762-2.841-7.461-8.156-7.461S17.61,11.46,17.61,15.21c0,3.649.72,4.722.72,4.722s-.593-.252-.732.808.379,1.818.669,3.257c.328,1.679,1.161,1.313,1.161,1.313a19.833,19.833,0,0,0,.606,3.472,5.812,5.812,0,0,0,1.25,1.767s0,3.156-.366,3.6a6.454,6.454,0,0,1-2.2,1.01c-1.01.391-3.32.442-4.747.947a8.91,8.91,0,0,0-5.782,8.484H43.327A8.892,8.892,0,0,0,37.557,36.091Z" transform="translate(2.54 -7.683)"/><path class="e" d="M28.025,27.191s-3.017-.1-4.217-1.174c1.957-2.967.9-6.426,1.3-9.658s2.235-5.151,5.9-5.151h.05c3.535,0,5.441,1.919,5.845,5.151s-.72,7.07,1.288,9.658c-1.2,1.086-4.229,1.048-4.229,1.048h0a6.394,6.394,0,0,0,.126,2.121,3.188,3.188,0,0,0,1.515.694,29.294,29.294,0,0,1,3.27.909,5.315,5.315,0,0,1,2.853,4.7H31.585c-.278-1.01-2.184-2.815-4.04-3.762a8.478,8.478,0,0,0-3.118-.656s-.48-.757,1.1-1.048a10.762,10.762,0,0,0,2.424-.846C28.189,28.9,28.025,27.191,28.025,27.191Z" transform="translate(14.963 -4.931)"/><g transform="translate(0 6.277)"><path class="e" d="M15.913,27.191s3.017-.1,4.217-1.174c-1.957-2.967-.9-6.426-1.3-9.658s-2.235-5.151-5.9-5.151h-.05c-3.535,0-5.441,1.919-5.845,5.151s.72,7.07-1.288,9.658c1.2,1.086,4.229,1.048,4.229,1.048h0a6.394,6.394,0,0,1-.126,2.121,3.188,3.188,0,0,1-1.515.694,29.293,29.293,0,0,0-3.27.909,5.315,5.315,0,0,0-2.853,4.7H12.353c.278-1.01,2.184-2.815,4.04-3.762a8.478,8.478,0,0,1,3.118-.656s.48-.757-1.1-1.048a10.762,10.762,0,0,1-2.424-.846C15.749,28.9,15.913,27.191,15.913,27.191Z" transform="translate(-2.215 -11.208)"/></g></g><path class="e" d="M13.06,7.776H8.539V3.255a1,1,0,0,0-1-1h-1a1,1,0,0,0-1,1V7.776H1a1,1,0,0,0-1,1v1a1,1,0,0,0,1,1H5.526V15.31a1,1,0,0,0,1,1h1a1,1,0,0,0,1-1V10.789H13.06a1,1,0,0,0,1-1v-1A1,1,0,0,0,13.06,7.776Z" transform="translate(540.57 328.137)"/></g></g><g class="d" transform="translate(1134.485 225.155) rotate(-113)"><path class="e" d="M643.68,383.932l-1.112.6,3.126,24.87,3.367-24.87-1.062-.6-2.142-1.123Z" transform="translate(-616.076 -358.818)"/><g transform="translate(14.389 34.201)"><path class="e" d="M668.322,412.531c-5.136,2.877-8.8,7.051-9.467,16.388,2.743-8.158,7.256-10.067,13.217-12.109,0,0-.082-.681-.112-.842s-.253-1.434-.265-1.778l-1.559-.73-1.021-.492Z" transform="translate(-641.33 -412.531)"/><path class="e" d="M611.712,412.556c5.093,2.864,8.762,7.024,9.429,16.337-3.024-8.994-6.3-9.949-13.075-12.262,0-.241.067-.5.107-.871.048-.424.1-1.017.2-1.531l1.672-.836Z" transform="translate(-608.065 -412.549)"/></g><g transform="translate(0 20.788)"><g transform="translate(37.541)"><path class="e" d="M712.073,386.136l7.93-1.354-9.75,7.072Z" transform="translate(-698.083 -380.371)"/><path class="e" d="M720,384.782l-3.749,7.118-6-.045Z" transform="translate(-698.083 -380.371)"/><path class="e" d="M716.254,405.556l3.738,7.124-9.739-7.169Z" transform="translate(-698.083 -394.027)"/><path class="e" d="M695.735,379.812l1.163-7.96,3.79,11.484Z" transform="translate(-688.518 -371.852)"/><path class="e" d="M699.143,371.852l5.611,5.765-1.82,5.719Z" transform="translate(-690.764 -371.852)"/><path class="e" d="M696.869,417.07l-1.151-7.962,4.959-3.6Z" transform="translate(-688.507 -394.027)"/><path class="e" d="M686.753,398.707l-12.17.031,7.217-3.555Z" transform="translate(-674.582 -387.223)"/><path class="e" d="M719.992,412.68l-7.928-1.366-1.811-5.8Z" transform="translate(-698.083 -394.027)"/><path class="e" d="M681.793,409.108l-7.211-3.566,12.17-.031Z" transform="translate(-674.582 -394.027)"/><path class="e" d="M704.71,411.314l-5.62,5.756,3.808-11.559Z" transform="translate(-690.729 -394.027)"/></g><path class="e" d="M572.48,386.136l-7.93-1.354,9.75,7.072Z" transform="translate(-564.55 -380.371)"/><path class="e" d="M564.55,384.782,568.3,391.9l6-.045-2.886-2.094Z" transform="translate(-564.55 -380.371)"/><path class="e" d="M568.321,405.556l-3.738,7.124,9.739-7.169Z" transform="translate(-564.572 -394.027)"/><path class="e" d="M598.082,379.812l-1.163-7.96-3.79,11.484Z" transform="translate(-583.378 -371.852)"/><path class="e" d="M593.4,371.852l-5.611,5.765,1.82,5.719Z" transform="translate(-579.863 -371.852)"/><path class="e" d="M596.937,417.07l1.151-7.962-4.959-3.6Z" transform="translate(-583.378 -394.027)"/><path class="e" d="M593.129,398.707l12.17.031-7.217-3.555Z" transform="translate(-583.378 -387.223)"/><path class="e" d="M564.583,412.68l7.928-1.366,1.811-5.8Z" transform="translate(-564.572 -394.027)"/><path class="e" d="M598.088,409.108l7.211-3.566-12.17-.031Z" transform="translate(-583.378 -394.027)"/><path class="e" d="M587.82,411.314l5.62,5.756-3.808-11.559Z" transform="translate(-579.881 -394.027)"/></g><g class="h" transform="translate(26.632 24.039)"><path class="e" d="M643.077,376.23l3.11,24.941-.011-26.522-1.645.889Z" transform="translate(-643.077 -374.648)"/></g><g transform="translate(14.514)"><path class="e" d="M656.393,320.45l-4.7-9.528V326.83Z" transform="translate(-636.474 -310.922)"/><path class="e" d="M642.611,310.922l-4.7,9.528,4.7,6.381Z" transform="translate(-627.394 -310.922)"/><path class="e" d="M617.605,338.848l-10.515,1.528,15.217,4.853Z" transform="translate(-607.091 -329.32)"/><path class="e" d="M659.3,350.742l7.608-7.416-15.217,4.853Z" transform="translate(-636.474 -332.27)"/><path class="e" d="M666.908,340.375l-10.515-1.528-4.7,6.381Z" transform="translate(-636.474 -329.32)"/><path class="e" d="M624.126,370.585l9.4-4.944V357.55Z" transform="translate(-618.314 -341.641)"/><path class="e" d="M651.691,357.55l9.4,13.035-1.8-10.472Z" transform="translate(-636.474 -341.641)"/><path class="e" d="M607.091,343.326l7.608,7.416,7.608-2.563Z" transform="translate(-607.091 -332.27)"/><path class="e" d="M651.691,365.641l9.4,4.944-9.4-13.035Z" transform="translate(-636.474 -341.641)"/><path class="e" d="M625.922,360.113l-1.8,10.472,9.4-13.035Z" transform="translate(-618.314 -341.641)"/></g><rect class="e" width="13.462" height="5.476" transform="translate(23.223 50.531)"/><rect class="e" width="16.745" height="2.738" transform="translate(21.581 53.269)"/></g><g class="d" transform="translate(-2159.238 3385.272) rotate(-74)"><path class="e" d="M-233.481-354.1a21.134,21.134,0,0,0-21.134,21.134,21.134,21.134,0,0,0,21.134,21.134,21.134,21.134,0,0,0,21.134-21.134A21.134,21.134,0,0,0-233.481-354.1m15.968,26.555c-.273.8-1.617,1.132-2.012,1.87s.07,2.051-.439,2.719-1.888.555-2.5,1.136-.563,1.968-1.255,2.449-1.964-.053-2.722.316-1.125,1.7-1.932,1.954c-.791.245-1.853-.645-2.692-.519-.816.122-1.571,1.289-2.422,1.289s-1.606-1.166-2.422-1.289c-.839-.126-1.9.764-2.692.519-.808-.25-1.185-1.589-1.933-1.954s-2.037.16-2.722-.316-.65-1.871-1.255-2.449-1.988-.469-2.5-1.137-.042-1.976-.439-2.719-1.739-1.069-2.012-1.87.591-1.877.453-2.717c-.135-.819-1.3-1.568-1.3-2.424s1.166-1.605,1.3-2.424c.138-.839-.721-1.927-.453-2.717s1.617-1.132,2.012-1.87-.07-2.051.439-2.719,1.888-.555,2.5-1.136.563-1.968,1.255-2.449,1.964.053,2.722-.316,1.125-1.7,1.932-1.954c.791-.245,1.853.645,2.692.519.816-.122,1.571-1.289,2.422-1.289s1.606,1.166,2.422,1.289c.839.126,1.9-.764,2.692-.519.808.25,1.185,1.589,1.932,1.954s2.037-.16,2.722.317.65,1.871,1.255,2.449,1.988.469,2.5,1.137.042,1.976.439,2.719,1.739,1.069,2.012,1.87-.591,1.877-.453,2.717c.135.819,1.3,1.568,1.3,2.424s-1.166,1.605-1.3,2.425C-218.1-329.427-217.245-328.339-217.513-327.549Z" transform="translate(4400.115 2591.104)"/><path class="e" d="M-12.743-74.435l-3.806-2.824-1.184,1.613,5.709,4.236L-1.646-85.55l-1.9-1.412-9.194,12.527" transform="translate(4175.996 2337.77)"/></g></g></g></svg>