<svg xmlns="http://www.w3.org/2000/svg" xmlns:xlink="http://www.w3.org/1999/xlink" width="180" height="180" viewBox="0 0 180 180">
  <defs>
    <clipPath id="clip-path">
      <rect id="Rectangle_25636" data-name="Rectangle 25636" width="95" height="117" transform="translate(0.057 0.291)" fill="#fff"/>
    </clipPath>
  </defs>
  <g id="Create_Tournament" data-name="Create Tournament" transform="translate(-534 -538)">
    <g id="Group_18343" data-name="Group 18343" transform="translate(-137 -171)">
      <g id="Rectangle_25563" data-name="Rectangle 25563" transform="translate(671 709)" fill="none" stroke="#6264a7" stroke-width="1">
        <rect width="180" height="180" rx="8" stroke="none"/>
        <rect x="0.5" y="0.5" width="179" height="179" rx="7.5" fill="none"/>
      </g>
      <g id="Group_18000" data-name="Group 18000" transform="translate(713.943 740.709)">
        <g id="Group_17988" data-name="Group 17988">
          <g id="Mask_Group_5" data-name="Mask Group 5" transform="translate(0 0)" clip-path="url(#clip-path)">
            <g id="Group_15955" data-name="Group 15955" transform="translate(0.026 31.801)">
              <path id="Path_48297" data-name="Path 48297" d="M1183.433-585.609q-.464,7.891-.923,15.783a8.824,8.824,0,0,1-.508,2.407q-4.661,13.379-9.323,26.758c-.618,1.778-.457,3.652-.585,5.482-.65,9.3-1.236,18.6-1.849,27.9a1.823,1.823,0,0,1-1.983,1.9q-12.39-.065-24.778-.171c-1.15-.01-1.815-.731-1.9-2-.287-4.272-.559-8.545-.838-12.818-.415-6.377-.822-12.753-1.257-19.128a13.794,13.794,0,0,0-1.066-3.48q-4.218-12.226-8.477-24.438a15.22,15.22,0,0,1-.573-4.292c-.45-8.387-.865-16.776-1.289-25.165-.073-1.447-.166-2.895-.2-4.343a4.015,4.015,0,0,1,3.954-4.131,4.053,4.053,0,0,1,4.336,3.757c.354,5.951.656,11.905.979,17.859q.372,6.858.749,13.715a13,13,0,0,0,1.178,4.972c3.184,5.192,4.6,9.826,12.95,11.74,1.446,3.991,9,.864,10.4,4.871.16.458,1.644,6.591,1.459,7.063-1.33,3.41-9.363,1.833-6.46,4.017,2.841,2.138.07-.048,2.969-2.145s3.042,2.355,1.8-1.035c-.187-.51.645.488.822,0,2.241-6.189-6.892-6.581-4.657-12.772,5.606-.622,11.028-5.319,11.833-6.767,3.052-3.588,4.007-7.541,4.26-11.973.55-9.634,1.23-19.262,1.87-28.891.167-2.51,1.22-3.89,3.206-4.3a3.872,3.872,0,0,1,4.773,3.84c-.1,3.094-.319,6.184-.493,9.275-.122,2.17-.257,4.34-.385,6.51Z" transform="translate(-1127.88 605.352)" fill="#7577b9"/>
              <path id="Path_48301" data-name="Path 48301" d="M1187.025-522.657a11.435,11.435,0,0,1-11.35-11.547,11.439,11.439,0,0,1,11.89-11.1,11.4,11.4,0,0,1,11.136,11.631A11.448,11.448,0,0,1,1187.025-522.657Z" transform="translate(-1159.582 575.218)" fill="#7577b9"/>
              <g id="Group_15952" data-name="Group 15952" transform="translate(51.038 31.822)">
                <path id="Path_48299" data-name="Path 48299" d="M1287.462-392.234q0-8,0-16.01a5.81,5.81,0,0,0-.024-.888,1.147,1.147,0,0,0-1.243-1.046,1.126,1.126,0,0,0-1.2.981,6.4,6.4,0,0,0-.049,1.083q0,15.318.017,30.635c0,.82-.192,1.107-1.035,1.02a13.352,13.352,0,0,1-2.785-.206,4.085,4.085,0,0,1-2.959-3.818c-.018-9.487-.156-18.978.055-28.46.126-5.66,3.127-9.857,8.112-12.672,1.913-1.325,8.942-1.91,9.182-1.4,1.969,4.208,10.984-2.577,13,1.609.223.462-1.991,1.351-2.132,1.751-1.4,3.964-7.672,10.548-3.624,11.856,4.018,1.3-4,1.631-2.76-2.382.465-1.5.53-1.185,0-2.652-.182-.5,2.527-1.451,2.76-1.939,1.965-4.1.849-4.261,2.759-8.386,3.511-.526,8.366,1.445,8.875,1.752,4.937,2.972,7.7,7.266,7.766,12.989.1,9.222.031,18.447.017,27.67a4.147,4.147,0,0,1-4.273,4.271c-2.455.058-2.455.058-2.455-2.339q0-14.725,0-29.45a4.15,4.15,0,0,0-.078-.978,1.148,1.148,0,0,0-1.238-.939,1.188,1.188,0,0,0-1.225,1.084,5.831,5.831,0,0,0-.018.888q0,16.01,0,32.02c0,1.91-.557,2.466-2.494,2.484q-10.18.092-20.361.179c-2.005.016-2.589-.561-2.589-2.5Q1287.461-384.131,1287.462-392.234Z" transform="translate(-1278.125 441.569)" fill="#bdbde6"/>
                <path id="Path_48302" data-name="Path 48302" d="M1323-475.437a9.948,9.948,0,0,1-9.989-9.963,9.979,9.979,0,0,1,10.045-9.825,10.018,10.018,0,0,1,10.058,9.93A9.987,9.987,0,0,1,1323-475.437Z" transform="translate(-1301.013 495.226)" fill="#bdbde6"/>
              </g>
              <path id="Path_48309" data-name="Path 48309" d="M1326.3-426.093h10.606c.178.241-.013.4-.089.561q-2.3,4.86-4.611,9.713c-.12.251-.138.651-.51.653s-.4-.4-.516-.648C1329.572-419.193,1327.971-422.576,1326.3-426.093Z" transform="translate(-1258.419 476.067)" fill="#bdbde6"/>
              <path id="Path_48315" data-name="Path 48315" d="M1203.511-456.118l-3.236,8.35c-.072.184-.136.371-.22.548-.094.2-.1.5-.4.51s-.354-.272-.43-.477c-1.131-3.013-2.253-6.03-3.427-9.179a30.875,30.875,0,0,0,3.82.486A25.061,25.061,0,0,0,1203.511-456.118Z" transform="translate(-1172.051 507.685)" fill="#7577b9"/>
              <path id="Path_48320" data-name="Path 48320" d="M1176.512-465.727l-.138.009.038-.119.081.136Z" transform="translate(-1159.417 513.895)" fill="#ffc300"/>
              <path id="Path_48321" data-name="Path 48321" d="M1236.392-462.819l.112-.127c.007.032.028.069.018.094-.037.091-.091.092-.147.009Z" transform="translate(-1198.438 511.999)" fill="#ffc300"/>
              <g id="Group_15945" data-name="Group 15945" transform="translate(17.015 48.769)">
                <g id="Group_15950" data-name="Group 15950" transform="translate(0 0)">
                  <path id="Path_48305" data-name="Path 48305" d="M1196.166-410.146a5.552,5.552,0,0,1-5.54-5.484,5.589,5.589,0,0,1,5.624-5.519,5.593,5.593,0,0,1,5.543,5.5A5.563,5.563,0,0,1,1196.166-410.146Z" transform="translate(-1185.701 435.83)" fill="#464775"/>
                  <path id="Path_48312" data-name="Path 48312" d="M1176.617-465.487c1.389.674,2.59,1.661,4.047,2.219.4.154.485.521.61.845,1.539,4,3.051,8.015,4.62,12.007.258.656.243.963-.506,1.228a9.478,9.478,0,0,0-2.562,1.568c-1.074-2.985-2.111-5.85-3.136-8.719q-1.461-4.093-2.9-8.194c-.11-.314-.4-.614-.154-.985Z" transform="translate(-1176.541 465.517)" fill="#464775"/>
                  <path id="Path_48314" data-name="Path 48314" d="M1224.279-462.648c.215.238.04.475-.033.685q-2.847,8.246-5.715,16.484a2.794,2.794,0,0,1-.175.342c-.511-.365-.991-.74-1.5-1.066-1.709-1.094-1.71-1.086-.965-3.085,1.282-3.437,2.585-6.868,3.824-10.321a2.3,2.3,0,0,1,1.435-1.5c1.076-.431,2.1-1,3.149-1.5Z" transform="translate(-1203.376 463.034)" fill="#464775"/>
                </g>
              </g>
              <g id="Group_15946" data-name="Group 15946" transform="translate(62.43 50.028)">
                <g id="Group_15951" data-name="Group 15951" transform="translate(0 0)">
                  <path id="Path_48307" data-name="Path 48307" d="M1332.291-387.039a4.911,4.911,0,0,1,4.946,5,4.929,4.929,0,0,1-5.04,4.817,4.982,4.982,0,0,1-4.974-4.907A4.982,4.982,0,0,1,1332.291-387.039Z" transform="translate(-1321.447 400.438)" fill="#464775"/>
                  <path id="Path_48316" data-name="Path 48316" d="M1313.646-425.924c.447-.079.613.209.765.531q3.167,6.69,6.344,13.375c.229.48.216.761-.342.947a4.752,4.752,0,0,0-.9.478c-1.606.966-1.6.967-2.382-.68-2.059-4.344-4.1-8.7-6.2-13.025-.367-.758-.384-1.116.575-1.214C1312.229-425.585,1312.935-425.782,1313.646-425.924Z" transform="translate(-1310.702 425.937)" fill="#464775"/>
                  <path id="Path_48317" data-name="Path 48317" d="M1360.238-424.8c-.1.228-.179.419-.267.605-2.18,4.6-4.375,9.189-6.529,13.8-.337.721-.613.881-1.181.244a3.254,3.254,0,0,0-.714-.5c-1.458-.917-1.456-.914-.689-2.527,1.773-3.737,3.6-7.45,5.279-11.228.511-1.151,1.1-1.486,2.246-1.091.472.162.98.22,1.461.358C1360.013-425.092,1360.271-425.055,1360.238-424.8Z" transform="translate(-1338.504 425.754)" fill="#464775"/>
                </g>
              </g>
              <g id="Group_15953" data-name="Group 15953" transform="translate(25.066 66.525)">
                <path id="Icon_awesome-star" data-name="Icon awesome-star" d="M3.686.164,3.072,1.392,1.7,1.59a.3.3,0,0,0-.166.506l.993.955L2.291,4.4a.3.3,0,0,0,.436.313l1.228-.637,1.228.637A.3.3,0,0,0,5.62,4.4L5.385,3.051,6.378,2.1a.3.3,0,0,0-.166-.506l-1.373-.2L4.225.164A.3.3,0,0,0,3.686.164Z" transform="translate(-1.441 0.001)" fill="#ddddf2"/>
              </g>
              <g id="Group_15954" data-name="Group 15954" transform="translate(70.784 65.847)">
                <path id="Icon_awesome-star-2" data-name="Icon awesome-star" d="M3.686.164,3.072,1.392,1.7,1.59a.3.3,0,0,0-.166.506l.993.955L2.291,4.4a.3.3,0,0,0,.436.313l1.228-.637,1.228.637A.3.3,0,0,0,5.62,4.4L5.385,3.051,6.378,2.1a.3.3,0,0,0-.166-.506l-1.373-.2L4.225.164A.3.3,0,0,0,3.686.164Z" transform="translate(-1.441 0.001)" fill="#ddddf2"/>
              </g>
            </g>
          </g>
        </g>
        <g id="Group_17999" data-name="Group 17999" transform="translate(6.233 1.385)">
          <g id="Group_15939" data-name="Group 15939">
            <ellipse id="Ellipse_19" data-name="Ellipse 19" cx="22.5" cy="22" rx="22.5" ry="22" transform="translate(-0.176 -0.094)" fill="#6264a7"/>
            <path id="Icon_awesome-plus" data-name="Icon awesome-plus" d="M22.379,11.718H14.632V3.971A1.722,1.722,0,0,0,12.911,2.25H11.189A1.722,1.722,0,0,0,9.468,3.971v7.746H1.721A1.722,1.722,0,0,0,0,13.439v1.721a1.722,1.722,0,0,0,1.721,1.721H9.468v7.746a1.722,1.722,0,0,0,1.721,1.721h1.721a1.722,1.722,0,0,0,1.721-1.721V16.882h7.746A1.722,1.722,0,0,0,24.1,15.161V13.439A1.722,1.722,0,0,0,22.379,11.718Z" transform="translate(9.876 7.193)" fill="#bdbde6"/>
          </g>
        </g>
      </g>
    </g>
  </g>
</svg>
