<svg xmlns="http://www.w3.org/2000/svg" xmlns:xlink="http://www.w3.org/1999/xlink" width="260" height="260" viewBox="0 0 260 260"><defs><style>.a{fill:#fff;}.b,.k{fill:none;}.b{stroke:#6264a7;}.c{clip-path:url(#a);}.d{fill:#7577b9;}.e{fill:#bdbde6;}.f{fill:#ffc300;}.g{fill:#464775;}.h{fill:#ddddf2;}.i{fill:#6264a7;}.j{stroke:none;}</style><clipPath id="a"><rect class="a" width="137" height="170" transform="translate(0 8)"/></clipPath></defs><g transform="translate(-671 -709)"><g class="b" transform="translate(671 709)"><rect class="j" width="260" height="260" rx="8"/><rect class="k" x="0.5" y="0.5" width="259" height="259" rx="7.5"/></g><g transform="translate(5.029 0.015)"><g transform="translate(727.971 753.985)"><g class="c" transform="translate(0 0)"><g transform="translate(0.038 53.914)"><path class="d" d="M1208.086-576.848q-.669,11.393-1.333,22.788a12.753,12.753,0,0,1-.734,3.475q-6.73,19.316-13.461,38.633c-.893,2.567-.66,5.273-.844,7.914-.939,13.425-1.785,26.856-2.669,40.284a2.631,2.631,0,0,1-2.863,2.74q-17.888-.094-35.774-.247c-1.661-.014-2.621-1.055-2.744-2.884-.415-6.168-.807-12.337-1.209-18.506-.6-9.206-1.186-18.413-1.815-27.617a19.925,19.925,0,0,0-1.539-5.025q-6.089-17.651-12.24-35.283a21.98,21.98,0,0,1-.828-6.2c-.65-12.11-1.248-24.221-1.861-36.333-.106-2.09-.239-4.179-.29-6.271a5.8,5.8,0,0,1,5.709-5.964,5.852,5.852,0,0,1,6.26,5.424c.511,8.592.947,17.189,1.413,25.784q.538,9.9,1.082,19.8a18.766,18.766,0,0,0,1.7,7.179c4.6,7.5,6.642,14.187,18.7,16.95,2.088,5.762,12.993,1.248,15.017,7.033.231.662,2.373,9.516,2.106,10.2-1.92,4.923-13.518,2.646-9.327,5.8,4.1,3.086.1-.069,4.286-3.1,4.169-3.017,4.391,3.4,2.6-1.494-.27-.736.931.7,1.187,0,3.235-8.935-9.951-9.5-6.723-18.439,8.093-.9,15.922-7.68,17.084-9.77,4.407-5.18,5.785-10.888,6.15-17.286.793-13.91,1.776-27.809,2.7-41.712.241-3.623,1.762-5.617,4.629-6.214a5.59,5.59,0,0,1,6.891,5.543c-.149,4.467-.461,8.928-.713,13.391-.177,3.134-.37,6.266-.556,9.4Z" transform="translate(-1127.88 605.352)"/><path class="d" d="M1192.063-512.606a16.51,16.51,0,0,1-16.387-16.671,16.516,16.516,0,0,1,17.167-16.026,16.46,16.46,0,0,1,16.078,16.793A16.528,16.528,0,0,1,1192.063-512.606Z" transform="translate(-1152.442 588.492)"/><g transform="translate(73.688 45.944)"><path class="e" d="M1291.606-378.474q0-11.557,0-23.114a8.361,8.361,0,0,0-.035-1.282,1.656,1.656,0,0,0-1.795-1.51,1.626,1.626,0,0,0-1.729,1.416,9.243,9.243,0,0,0-.071,1.564q-.006,22.115.025,44.23c0,1.184-.278,1.6-1.495,1.472-1.334-.139-2.7.124-4.021-.3a5.9,5.9,0,0,1-4.272-5.513c-.025-13.7-.225-27.4.08-41.09.182-8.172,4.514-14.232,11.712-18.3,2.762-1.912,12.91-2.758,13.257-2.016,2.842,6.076,15.858-3.721,18.768,2.323.321.667-2.875,1.951-3.079,2.528-2.023,5.723-11.077,15.229-5.231,17.117,5.8,1.874-5.781,2.355-3.985-3.44.672-2.166.765-1.711,0-3.829-.263-.728,3.648-2.1,3.985-2.8,2.837-5.92,1.225-6.151,3.983-12.107,5.069-.759,12.079,2.087,12.814,2.53,7.127,4.291,11.123,10.49,11.212,18.753.143,13.315.045,26.633.024,39.95a5.987,5.987,0,0,1-6.17,6.166c-3.544.084-3.544.084-3.544-3.377q0-21.26,0-42.519a6,6,0,0,0-.112-1.411,1.657,1.657,0,0,0-1.787-1.355,1.715,1.715,0,0,0-1.769,1.565,8.416,8.416,0,0,0-.026,1.282q0,23.115,0,46.229c0,2.757-.8,3.56-3.6,3.586q-14.7.133-29.4.258c-2.895.023-3.737-.811-3.737-3.614Q1291.6-366.774,1291.606-378.474Z" transform="translate(-1278.125 449.702)"/><path class="e" d="M1327.438-466.656a14.363,14.363,0,0,1-14.423-14.385,14.407,14.407,0,0,1,14.5-14.185,14.464,14.464,0,0,1,14.522,14.337A14.419,14.419,0,0,1,1327.438-466.656Z" transform="translate(-1295.687 495.226)"/></g><path class="e" d="M1326.3-426.093h15.312c.258.348-.019.577-.129.811q-3.315,7.017-6.657,14.023c-.173.363-.2.94-.736.943s-.574-.573-.746-.935C1331.022-416.13,1328.711-421.015,1326.3-426.093Z" transform="translate(-1228.293 498.245)"/><path class="d" d="M1206.934-456.008l-4.672,12.055c-.1.265-.2.535-.318.792-.136.287-.15.717-.576.736s-.511-.393-.621-.688c-1.632-4.351-3.252-8.706-4.947-13.252a44.575,44.575,0,0,0,5.516.7A36.18,36.18,0,0,0,1206.934-456.008Z" transform="translate(-1161.511 530.459)"/><path class="f" d="M1176.573-465.678l-.2.012.055-.172.118.2Z" transform="translate(-1151.892 535.221)"/><path class="f" d="M1236.4-462.762l.162-.184c.01.046.04.1.025.136-.054.132-.131.133-.212.012Z" transform="translate(-1181.602 533.767)"/><g transform="translate(24.566 70.412)"><g transform="translate(0 0)"><path class="g" d="M1198.625-405.263a8.015,8.015,0,0,1-8-7.917,8.07,8.07,0,0,1,8.12-7.968,8.075,8.075,0,0,1,8,7.943A8.032,8.032,0,0,1,1198.625-405.263Z" transform="translate(-1183.516 442.345)"/><path class="g" d="M1176.651-465.473c2,.973,3.739,2.4,5.843,3.2.581.222.7.752.88,1.22,2.222,5.779,4.4,11.572,6.67,17.336.372.948.352,1.391-.73,1.773a13.684,13.684,0,0,0-3.7,2.264c-1.551-4.309-3.048-8.446-4.527-12.588q-2.11-5.909-4.182-11.83c-.159-.453-.584-.887-.222-1.422Z" transform="translate(-1176.541 465.517)"/><path class="g" d="M1228.213-462.648c.311.344.057.686-.047.989q-4.111,11.905-8.251,23.8a4.044,4.044,0,0,1-.253.494c-.738-.527-1.431-1.068-2.166-1.539-2.467-1.58-2.469-1.568-1.393-4.453,1.852-4.963,3.733-9.915,5.522-14.9a3.318,3.318,0,0,1,2.072-2.171c1.554-.622,3.034-1.438,4.547-2.171Z" transform="translate(-1198.032 463.206)"/></g></g><g transform="translate(90.135 72.229)"><g transform="translate(0 0)"><path class="g" d="M1334.539-387.039a7.091,7.091,0,0,1,7.141,7.225,7.116,7.116,0,0,1-7.276,6.955,7.193,7.193,0,0,1-7.181-7.085A7.193,7.193,0,0,1,1334.539-387.039Z" transform="translate(-1318.883 406.384)"/><path class="g" d="M1314.953-425.918c.645-.114.885.3,1.1.766q4.573,9.659,9.16,19.31c.331.692.313,1.1-.494,1.367a6.862,6.862,0,0,0-1.3.69c-2.318,1.394-2.313,1.4-3.44-.982-2.973-6.272-5.924-12.556-8.948-18.8-.53-1.095-.554-1.611.831-1.753C1312.906-425.428,1313.926-425.714,1314.953-425.918Z" transform="translate(-1310.702 425.937)"/><path class="g" d="M1364.627-424.42c-.145.329-.259.6-.386.874-3.148,6.638-6.316,13.267-9.426,19.922-.486,1.041-.885,1.271-1.705.353a4.7,4.7,0,0,0-1.031-.724c-2.105-1.323-2.1-1.319-1-3.649,2.56-5.4,5.2-10.756,7.622-16.211.738-1.661,1.586-2.145,3.242-1.575.681.234,1.414.317,2.109.517C1364.3-424.841,1364.674-424.787,1364.627-424.42Z" transform="translate(-1333.249 425.797)"/></g></g><g transform="translate(36.19 96.048)"><path class="h" d="M4.682.238,3.8,2.01,1.813,2.3a.427.427,0,0,0-.24.731L3.007,4.406,2.668,6.354A.433.433,0,0,0,3.3,6.8l1.773-.92,1.773.92a.433.433,0,0,0,.63-.451L7.135,4.406,8.569,3.027a.427.427,0,0,0-.24-.731L6.346,2.01,5.46.238A.437.437,0,0,0,4.682.238Z" transform="translate(-1.441 0.001)"/></g><g transform="translate(102.197 95.069)"><path class="h" d="M4.682.238,3.8,2.01,1.813,2.3a.427.427,0,0,0-.24.731L3.007,4.406,2.668,6.354A.433.433,0,0,0,3.3,6.8l1.773-.92,1.773.92a.433.433,0,0,0,.63-.451L7.135,4.406,8.569,3.027a.427.427,0,0,0-.24-.731L6.346,2.01,5.46.238A.437.437,0,0,0,4.682.238Z" transform="translate(-1.441 0.001)"/></g></g></g></g><g transform="translate(731.97 758.985)"><g transform="translate(5 5)"><circle class="i" cx="32" cy="32" r="32"/><path class="e" d="M41.324,19.733H27.02V5.429A3.179,3.179,0,0,0,23.841,2.25H20.662a3.179,3.179,0,0,0-3.179,3.179v14.3H3.179A3.179,3.179,0,0,0,0,22.912v3.179A3.179,3.179,0,0,0,3.179,29.27h14.3v14.3a3.179,3.179,0,0,0,3.179,3.179h3.179a3.179,3.179,0,0,0,3.179-3.179V29.27h14.3A3.179,3.179,0,0,0,44.5,26.091V22.912A3.179,3.179,0,0,0,41.324,19.733Z" transform="translate(9.404 6.529)"/></g></g></g></g></svg>