<svg xmlns="http://www.w3.org/2000/svg" width="260" height="260" viewBox="0 0 260 260"><defs><style>.a,.f{fill:none;}.a{stroke:#6264a7;}.b{fill:#6264a7;}.c{fill:#bdbde6;}.d{fill:#7577b9;}.e{stroke:none;}</style></defs><g transform="translate(-331 -321)"><g class="a" transform="translate(331 321)"><rect class="e" width="260" height="260" rx="8"/><rect class="f" x="0.5" y="0.5" width="259" height="259" rx="7.5"/></g><g transform="translate(10 10)"><g transform="translate(383.001 370)"><path class="b" d="M1797.863,302.958c0,13.18.039,26.359-.015,39.539-.027,6.963-2.044,8.916-9.122,8.965q-11.247.077-22.5,0c-7.492-.037-9.454-1.916-9.461-9.226q-.042-39.844,0-79.688c.01-6.968,1.741-8.787,8.5-8.873q12.159-.153,24.32,0c6.321.091,8.22,2.066,8.25,8.518C1797.909,275.786,1797.863,289.371,1797.863,302.958Z" transform="translate(-1708.817 -211.511)"/><path class="c" d="M1835.718,311.66c0,8.912-.065,17.824.025,26.737.055,5.375-2.64,7.785-7.8,7.8-8.5.018-17.006,0-25.51.007-5.3,0-7.75-2.731-7.747-7.917q.011-26.737.011-53.473c.007-5.181,2.525-7.833,7.856-7.785,8.5.077,17.007.031,25.51.016,5.283-.009,7.73,2.6,7.681,7.883C1835.659,293.834,1835.719,302.747,1835.718,311.66Z" transform="translate(-1698.743 -206.236)"/><path class="c" d="M1718.9,319.4c0-5.261-.047-10.522.017-15.782.052-4.369,2.273-6.789,6.723-6.811,9.1-.047,18.2,0,27.3-.028,4.542-.016,6.817,2.525,6.886,6.73q.257,15.778-.01,31.563c-.075,4.313-2.74,6.627-7.064,6.658-8.9.064-17.8.1-26.7-.016-4.927-.066-7.289-2.758-7.181-7.746C1718.985,329.112,1718.9,324.254,1718.9,319.4Z" transform="translate(-1718.875 -201.787)"/><path class="d" d="M1803.153,273.319c3.021-5.864-.01-10.512-5.217-14.657-2.771-2.205-1.643-4.222,1.442-4.16,7.062.145,11.117-3.081,13.291-9.657.96-2.907,3.249-3.326,4.364.014,2.172,6.507,6.2,9.789,13.275,9.642,3.361-.07,3.907,2.314,1.325,4.22-5.61,4.14-7.185,9.076-4.983,15.746,1.1,3.342-1.334,4.156-3.716,2.383-5.61-4.176-10.767-3.94-16.363.1C1804,278.809,1802.363,277.575,1803.153,273.319Z" transform="translate(-1698.366 -214.009)"/><path class="d" d="M1727.183,293.083c3.134-5.8.216-10.506-5-14.71-2.4-1.93-2.343-4.167,1.344-4.129,6.942.072,11.073-3.061,13.241-9.622,1.329-4.026,3.67-2.769,4.565.23,1.953,6.54,6.3,9.248,12.794,9.315,1.16.012,2.6-.076,3.085,1.365.59,1.742-.874,2.729-1.942,3.407-5.7,3.622-6.481,8.66-4.566,14.606.379,1.176.765,2.507-.313,3.4-1.395,1.157-2.784.125-3.836-.693-5.131-3.989-10.093-3.807-15.258.016C1728.785,298.128,1726.653,298.231,1727.183,293.083Z" transform="translate(-1718.499 -209.602)"/><path class="b" d="M1777.21,219.275c1.774.484,2.189,2.243,2.673,3.67,1.745,5.135,4.765,8.1,10.608,7.776,1.5-.085,3.993-.256,4.59,1.927.5,1.842-1.362,2.92-2.59,3.76-4.927,3.377-5.635,7.829-3.983,13.165.443,1.436,1.317,3.23-.538,4.379-1.49.924-2.822-.261-3.814-1.029-5.048-3.9-9.851-3.48-14.8.195-.977.725-2.37,1.875-3.833.674-1.147-.941-.8-2.3-.417-3.382,2.139-6.04.949-10.85-4.484-14.688-3.1-2.186-2.92-4.75,1.3-4.709,6.92.069,10.628-3.257,12.724-9.5C1775.415,219.232,1776.122,219.175,1777.21,219.275Z" transform="translate(-1708.424 -219.247)"/></g></g></g></svg>