<svg xmlns="http://www.w3.org/2000/svg" width="180" height="180" viewBox="0 0 180 180">
  <g id="Manage_Admins" data-name="Manage Admins" transform="translate(-3126 -1219)">
    <g id="Group_19150" data-name="Group 19150">
      <g id="Rectangle_25565" data-name="Rectangle 25565" transform="translate(3126 1219)" fill="none" stroke="#6264a7" stroke-width="1">
        <rect width="180" height="180" rx="8" stroke="none"/>
        <rect x="0.5" y="0.5" width="179" height="179" rx="7.5" fill="none"/>
      </g>
      <path id="Subtraction_2" data-name="Subtraction 2" d="M56.658,85.026H0A21.2,21.2,0,0,1,1.657,76.6a19.64,19.64,0,0,1,3.895-5.843A21.653,21.653,0,0,1,13.6,65.444a35.017,35.017,0,0,1,6.257-1.233,26.32,26.32,0,0,0,4.906-.952c.348-.128.735-.259,1.146-.4,1.565-.528,3.339-1.127,4.02-1.934.851-1.008.861-8.231.861-8.3a13.578,13.578,0,0,1-2.939-4.08c-.849-2.125-1.417-7.924-1.426-8.012l0,0a1.348,1.348,0,0,1-.449.075c-.619,0-1.738-.4-2.277-3.108a28,28,0,0,0-.881-3.158,9.117,9.117,0,0,1-.693-4.36c.224-1.675.954-1.926,1.369-1.926a1.015,1.015,0,0,1,.353.061c-.072-.11-1.693-2.772-1.693-10.9A16.711,16.711,0,0,1,27.075,5.365C30.607,1.855,35.545,0,41.356,0s10.76,1.851,14.276,5.354A16.515,16.515,0,0,1,59.3,10.867a16.8,16.8,0,0,1,1.239,6.354,35.1,35.1,0,0,1-.861,8.607,8.057,8.057,0,0,1-.86,2.29l.007,0a1.047,1.047,0,0,1,.339-.056c.409,0,1.132.25,1.376,1.926a9.275,9.275,0,0,1-.692,4.29,27.15,27.15,0,0,0-.882,3.228c-.541,2.7-1.669,3.1-2.293,3.1a1.263,1.263,0,0,1-.439-.072l0,.03c-.1,1-.643,6.057-1.423,7.983a13.529,13.529,0,0,1-2.939,4.08c0,.072.008,7.294.861,8.3.662.784,2.378,1.379,3.891,1.9.458.159.891.309,1.275.457a13.5,13.5,0,0,0,2.5.584,19.682,19.682,0,0,0-5.317,13.438,19.461,19.461,0,0,0,1.58,7.713Z" transform="translate(3168.923 1260.689)" fill="#c7c7ec"/>
      <path id="Subtraction_3" data-name="Subtraction 3" d="M23.709,85.176H22.37l-.034-.109c-.995-3.294-6.214-20.635-11.319-38.557C5.865,28.417-.228,5.988.006,1.884A31.681,31.681,0,0,1,10.193,0c7.144,0,11.366,3.289,13.65,6.048a18.336,18.336,0,0,1,4.151,11.323c0,8.237-1.638,10.819-1.689,10.9l.007,0a1.01,1.01,0,0,1,.333-.056c.4,0,1.11.25,1.35,1.926a9.426,9.426,0,0,1-.678,4.289,27.509,27.509,0,0,0-.866,3.228c-.532,2.7-1.638,3.1-2.251,3.1a1.219,1.219,0,0,1-.431-.072.132.132,0,0,1,0,.031c-.1,1-.632,6.057-1.4,7.983a13.513,13.513,0,0,1-2.885,4.079c0,.072.007,7.293.845,8.3.65.785,2.335,1.38,3.822,1.905.448.158.871.308,1.248.455a11.7,11.7,0,0,0,2.1.524,19.679,19.679,0,0,0-5.374,13.5,19.458,19.458,0,0,0,1.58,7.713Z" transform="translate(3201.872 1260.538)" fill="#bdbde6"/>
      <ellipse id="Ellipse_19" data-name="Ellipse 19" cx="17.5" cy="17" rx="17.5" ry="17" transform="translate(3227 1321)" fill="#6264a7"/>
      <path id="Path_48623" data-name="Path 48623" d="M-15912.242,14492.221l5.51,5.35s7.213-14.553,11.111-14.553" transform="translate(19147.168 -13152.026)" fill="none" stroke="#bdbde6" stroke-linecap="round" stroke-width="3"/>
    </g>
  </g>
</svg>
