<svg xmlns="http://www.w3.org/2000/svg" width="260" height="260" viewBox="0 0 260 260"><defs><style>.a,.i,.k{fill:none;}.a{stroke:#6264a7;}.b{fill:#7577b9;}.c{fill:#bdbde6;}.d,.f{fill:#6264a7;}.e{fill:#c6c6ec;}.f{stroke:#000;stroke-width:0.1px;}.g{fill:#f7850b;}.h{fill:#fff;}.i{stroke:#bdbde6;stroke-linecap:round;stroke-linejoin:round;stroke-width:6px;}.j{stroke:none;}</style></defs><g transform="translate(-1028 -709)"><g class="a" transform="translate(1028 709)"><rect class="j" width="260" height="260" rx="8"/><rect class="k" x="0.5" y="0.5" width="259" height="259" rx="7.5"/></g><g transform="translate(11.998 10.741)"><g transform="translate(1077.003 735.259)"><path class="b" d="M1194.94-581.16q-.559,9.67-1.114,19.341a10.962,10.962,0,0,1-.613,2.95q-5.627,16.394-11.255,32.789c-.746,2.178-.552,4.475-.706,6.717-.785,11.394-1.492,22.793-2.232,34.191a2.215,2.215,0,0,1-2.394,2.325q-14.956-.08-29.91-.21c-1.389-.012-2.191-.9-2.294-2.448-.347-5.235-.674-10.471-1.01-15.706-.5-7.814-.992-15.628-1.518-23.44a17.1,17.1,0,0,0-1.287-4.265q-5.091-14.981-10.233-29.946a18.924,18.924,0,0,1-.692-5.259c-.543-10.278-1.043-20.558-1.556-30.837-.088-1.774-.2-3.547-.242-5.322a4.889,4.889,0,0,1,4.774-5.062,4.917,4.917,0,0,1,5.233,4.6c.427,7.293.792,14.589,1.182,21.884q.45,8.4.9,16.806a16.138,16.138,0,0,0,1.422,6.093c2.332,4.891,3.761,10.1,5.572,15.179,1.746,4.891,3.359,9.829,5.051,14.739a2.153,2.153,0,0,1-.014,1.61,9.741,9.741,0,0,0,3.185,11.38,9.8,9.8,0,0,0,11.726.084,9.734,9.734,0,0,0,3.364-11.228,2.352,2.352,0,0,1,.016-1.729q4.058-11.375,8.088-22.759a3.938,3.938,0,0,1,.575-1.183c3.5-4.268,4.837-9.241,5.142-14.671.663-11.806,1.485-23.6,2.258-35.4.2-3.075,1.473-4.767,3.87-5.274a4.693,4.693,0,0,1,5.762,4.705c-.124,3.791-.385,7.578-.6,11.366-.148,2.659-.31,5.318-.465,7.978Z" transform="translate(-1079.096 649.085)"/><path class="c" d="M1023.568-386.48q0-9.869,0-19.737a7.237,7.237,0,0,0-.015-.967,1.449,1.449,0,0,0-1.4-1.41,1.458,1.458,0,0,0-1.632,1.29,5.624,5.624,0,0,0-.046,1.206c0,12.512-.018,25.024.027,37.536,0,1.105-.308,1.425-1.344,1.29-.6-.078-1.21.007-1.814-.031a5.021,5.021,0,0,1-5-5.269c-.013-11.341-.113-22.684.036-34.024.094-7.119,3.625-12.364,9.7-15.969.7-.413.959-.284,1.3.448q3.505,7.629,7.115,15.208a1.729,1.729,0,0,1,.034,1.47,9.017,9.017,0,0,0,3.049,10.38,9.09,9.09,0,0,0,10.73.168,9.062,9.062,0,0,0,3.367-10.294,2.083,2.083,0,0,1,.065-1.7q3.534-7.48,6.986-15c.36-.788.635-.924,1.378-.466,5.815,3.582,9.216,8.731,9.327,15.579.186,11.46.073,22.924.051,34.387a5.011,5.011,0,0,1-4.715,5.055c-3.476.323-3.476.323-3.476-3.06q0-17.86,0-35.72a8.649,8.649,0,0,0-.027-1.209,1.376,1.376,0,0,0-1.38-1.276,1.387,1.387,0,0,0-1.565,1.2,6.519,6.519,0,0,0-.062,1.326q0,19.555,0,39.11c0,2.333-.667,3.04-3.007,3.062q-12.531.119-25.062.2c-1.821.012-2.611-.806-2.613-2.684Q1023.561-376.431,1023.568-386.48Z" transform="translate(-1012.304 543.585)"/><path class="d" d="M1207.061-686.516c.811-1.963-.5-4.094-.7-6.341-.351-4.032.91-7.435,4.343-9.747,3.171-2.137,6.471-4.084,9.679-6.168.828-.538.871.209,1.092.546q6.8,10.357,13.553,20.743c1.863,2.869,3.65,5.788,5.5,8.663.369.573.443.862-.234,1.3-2.95,1.89-5.846,3.865-8.775,5.789a10.436,10.436,0,0,1-12.961-.832,4.837,4.837,0,0,0-1.969-1.07A12.906,12.906,0,0,1,1207.061-686.516Zm1.453-6.252a21.317,21.317,0,0,1,6.131-5.445c2.324-1.445,4.608-2.954,6.894-4.46.272-.18.942-.3.516-.847-.666-.85-.888-2.041-1.96-2.568-.058-.029-.2.111-.3.176-2.719,1.721-5.493,3.363-8.141,5.188C1208.892-698.823,1208.177-695.984,1208.514-692.768Zm12.955,19.653c2.686,1.316,5.418,1.773,8.111.121,2.262-1.388,4.43-2.928,6.649-4.386,1.982-1.3,1.968-1.28.648-3.281-.364-.55-.6-.654-1.192-.259-2.607,1.747-5.267,3.415-7.882,5.152A16.721,16.721,0,0,1,1221.469-673.115Z" transform="translate(-1124.419 708.961)"/><path class="b" d="M1189.376-517.553a13.915,13.915,0,0,1-13.7-14.149,13.9,13.9,0,0,1,14.353-13.6,13.878,13.878,0,0,1,13.443,14.253A13.91,13.91,0,0,1,1189.376-517.553Z" transform="translate(-1106.716 614.383)"/><path class="c" d="M1071.32-486.976a12.065,12.065,0,0,1-12.222,12.027,12.117,12.117,0,0,1-12.021-12.253,12.191,12.191,0,0,1,12.187-12A12.125,12.125,0,0,1,1071.32-486.976Z" transform="translate(-1032.4 587.74)"/><path class="d" d="M1156.255-649.114c.648.1.811.6,1.067.99q5.527,8.518,11.047,17.04c1.337,2.063,2.646,4.144,4.018,6.183.5.74.417,1.2-.336,1.671q-2.208,1.367-4.364,2.82a.9.9,0,0,1-1.486-.316q-7.672-11.879-15.373-23.739a.875.875,0,0,1,.275-1.414c1.563-.995,3.117-2,4.679-3A4.14,4.14,0,0,1,1156.255-649.114Z" transform="translate(-1092.218 674.375)"/><path class="e" d="M1197.314-407.666a6.752,6.752,0,0,1-6.688-6.72,6.8,6.8,0,0,1,6.789-6.762,6.8,6.8,0,0,1,6.691,6.741A6.764,6.764,0,0,1,1197.314-407.666Z" transform="translate(-1115.358 542.632)"/><path class="d" d="M1061.374-382.558a6.027,6.027,0,0,1,6.12-6.006,6.057,6.057,0,0,1,5.963,6.053,6.107,6.107,0,0,1-6.011,6.029A6.078,6.078,0,0,1,1061.374-382.558Z" transform="translate(-1040.662 523.801)"/><path class="f" d="M1156.665-611.379c-.344.53-.976.68-1.42,1.073-.638.566-1.015.537-1.537-.276q-9.168-14.288-18.45-28.5c-.612-.936-.483-1.357.435-1.753a.733.733,0,0,0,.2-.139c.783-.721,1.289-.641,1.891.342,1.831,2.987,3.778,5.9,5.682,8.844q6.338,9.786,12.679,19.571C1156.318-611.949,1156.483-611.672,1156.665-611.379Z" transform="translate(-1083.143 669.949)"/><path class="c" d="M1060.789-427.5H1073.5a3.934,3.934,0,0,1-.595,1.509q-2.578,5.579-5.194,11.141c-.127.269-.158.678-.586.674-.357,0-.406-.338-.521-.584q-2.889-6.166-5.769-12.337A1.469,1.469,0,0,1,1060.789-427.5Z" transform="translate(-1040.324 546.302)"/><path class="d" d="M1195.507-636.556c-2.95,1.41-6.011,2.531-6.526,6.534l-7.221-11.146c3.8,1.161,6.09-1.142,8.581-3.289A16.761,16.761,0,0,0,1195.507-636.556Z" transform="translate(-1110.234 671.684)"/><path class="e" d="M1176.615-465.486c1.352.685,2.521,1.689,3.94,2.256.392.157.472.529.594.859,1.5,4.069,2.97,8.148,4.5,12.206.251.667.237.979-.492,1.248a9.161,9.161,0,0,0-2.494,1.594c-1.046-3.034-2.055-5.946-3.053-8.863q-1.423-4.16-2.82-8.329c-.107-.319-.394-.624-.15-1Z" transform="translate(-1107.218 568.272)"/><path class="d" d="M1256.942-704.245c.361-.028.444.288.586.506q6.632,10.229,13.269,20.455c.573.878-.219.925-.594,1.184s-.765.9-1.317.037q-6.586-10.258-13.234-20.476C1255.313-703.062,1256.169-704.182,1256.942-704.245Z" transform="translate(-1152.893 706.237)"/><path class="e" d="M1224.263-462.648c.214.231.04.462-.033.665q-2.842,8.01-5.7,16.014a2.691,2.691,0,0,1-.175.332c-.51-.355-.989-.719-1.5-1.036-1.705-1.063-1.707-1.055-.963-3,1.28-3.339,2.581-6.672,3.818-10.027a2.26,2.26,0,0,1,1.432-1.461c1.074-.419,2.1-.967,3.143-1.461Z" transform="translate(-1129.685 566.614)"/><path class="b" d="M1205.109-456.062l-3.906,10.231c-.086.225-.163.454-.265.672-.114.243-.126.608-.482.625s-.427-.334-.519-.584c-1.365-3.692-2.719-7.389-4.136-11.247a36.731,36.731,0,0,0,4.611.6A29.8,29.8,0,0,0,1205.109-456.062Z" transform="translate(-1118.348 562.984)"/><path class="d" d="M1051.6-411.733c-2.231-4.787-4.447-9.572-6.7-14.339-.29-.612-.083-.738.449-.887,2.541-.713,2.543-.726,3.654,1.649,1.706,3.647,3.388,7.306,5.124,10.939.325.679.315,1.006-.437,1.333A16.123,16.123,0,0,0,1051.6-411.733Z" transform="translate(-1031.063 546.232)"/><path class="d" d="M1086.976-411.468a7.764,7.764,0,0,0-1.64-1.11c-1.324-.455-1.1-1.113-.6-2.124,1.828-3.763,3.608-7.551,5.3-11.379a1.371,1.371,0,0,1,1.824-.943c2.189.424,2.195.4,1.264,2.4C1091.077-420.255,1089.037-415.885,1086.976-411.468Z" transform="translate(-1053.937 546.063)"/><path class="g" d="M1176.541-465.7l-.166.011.046-.146.1.166Z" transform="translate(-1107.122 568.458)"/><path class="g" d="M1236.4-462.79l.135-.156c.008.039.033.084.021.115-.045.112-.109.113-.177.011Z" transform="translate(-1141.797 566.787)"/></g><g transform="translate(1157.174 863.745)"><g transform="translate(0)"><circle class="h" cx="28.414" cy="28.414" r="28.414"/></g></g><g transform="translate(1161.186 867.758)"><g transform="translate(0 0)"><circle class="d" cx="24.402" cy="24.402" r="24.402"/></g></g><g transform="translate(1174.396 880.967)"><g transform="translate(0 0)"><path class="i" d="M40.385,13.5,18,35.885" transform="translate(-18 -13.5)"/><path class="i" d="M18,13.5,40.385,35.885" transform="translate(-18 -13.5)"/></g></g></g></g></svg>