<svg xmlns="http://www.w3.org/2000/svg" width="180" height="180" viewBox="0 0 180 180">
  <g id="Manage_Tournament" data-name="Manage Tournament" transform="translate(-4390 -622)">
    <g id="Group_19148" data-name="Group 19148" transform="translate(3499 84)">
      <g id="Rectangle_25564" data-name="Rectangle 25564" transform="translate(891 538)" fill="none" stroke="#6264a7" stroke-width="1">
        <rect width="180" height="180" rx="8" stroke="none"/>
        <rect x="0.5" y="0.5" width="179" height="179" rx="7.5" fill="none"/>
      </g>
      <path id="Subtraction_1" data-name="Subtraction 1" d="M-3476.208.743h0c-3.242-.023-6.523-.049-9.751-.077-.952-.008-1.516-.61-1.588-1.695-.154-2.318-.3-4.676-.449-6.958l-.018-.282q-.116-1.817-.232-3.634-.127-1.985-.254-3.971l-.009-.147c-.254-3.97-.516-8.074-.788-12.11a7.43,7.43,0,0,0-.6-2.164c-.1-.258-.2-.524-.294-.789-2.338-6.879-4.721-13.854-7.085-20.732a11.311,11.311,0,0,1-.457-3.186c-.007-.154-.014-.305-.022-.456-.288-5.449-.563-10.99-.829-16.349l0-.073q-.122-2.463-.245-4.925-.024-.486-.05-.971v-.012c-.047-.885-.095-1.8-.116-2.7a3.394,3.394,0,0,1,3.3-3.5c.075,0,.15-.007.225-.007a3.4,3.4,0,0,1,3.4,3.194c.213,3.636.411,7.421.586,10.76l0,.036q.114,2.177.23,4.355.085,1.584.169,3.169l.014.259c.144,2.69.292,5.472.443,8.206a11.082,11.082,0,0,0,.984,4.218,63.236,63.236,0,0,1,2.783,7.349l0,.006c.344,1.036.7,2.107,1.072,3.154.766,2.143,1.505,4.332,2.22,6.448l.039.115c.4,1.194.821,2.429,1.238,3.64a1.488,1.488,0,0,1-.01,1.115,6.777,6.777,0,0,0,2.206,7.879A6.774,6.774,0,0,0-3476-18.719a6.759,6.759,0,0,0,4.028-1.318,6.734,6.734,0,0,0,2.328-7.773,1.633,1.633,0,0,1,.011-1.2c1.111-3.114,2.236-6.283,3.324-9.348l.064-.182.013-.036q1.1-3.1,2.2-6.191a2.711,2.711,0,0,1,.4-.819c2.189-2.666,3.321-5.894,3.56-10.157.353-6.289.778-12.669,1.188-18.84q.189-2.835.375-5.67c.138-2.1,1.014-3.3,2.679-3.651a3.5,3.5,0,0,1,.721-.076,3.321,3.321,0,0,1,2.378,1,3.174,3.174,0,0,1,.89,2.335c-.062,1.916-.177,3.862-.289,5.745v.011l0,.053c-.04.675-.081,1.374-.119,2.06-.072,1.3-.15,2.622-.226,3.9l0,.049-.03.51q-.031.532-.063,1.064h.007l-.177,3.051c-.2,3.517-.4,6.954-.594,10.339a7.591,7.591,0,0,1-.425,2.042q-1.213,3.535-2.428,7.069c-1.662,4.837-3.545,10.32-5.364,15.631a11.223,11.223,0,0,0-.438,3.383c-.008.3-.016.612-.031.914a19.571,19.571,0,0,0-15.24,19.17,19.628,19.628,0,0,0,1.063,6.393Z" transform="translate(4466.005 677.891)" fill="#7577b9"/>
      <path id="Path_48298" data-name="Path 48298" d="M1020.1-397.655q0-6.832,0-13.664a5.009,5.009,0,0,0-.01-.67,1,1,0,0,0-.968-.976,1.009,1.009,0,0,0-1.13.893,3.892,3.892,0,0,0-.032.835c0,8.662-.013,17.324.019,25.987,0,.765-.213.987-.93.893-.412-.054-.838,0-1.256-.021a3.476,3.476,0,0,1-3.46-3.648c-.009-7.852-.079-15.7.025-23.555.065-4.928,2.509-8.56,6.716-11.055.482-.286.664-.2.9.31q2.427,5.281,4.926,10.529a1.2,1.2,0,0,1,.023,1.018,6.242,6.242,0,0,0,2.111,7.186,6.293,6.293,0,0,0,7.429.116,6.274,6.274,0,0,0,2.331-7.127,1.442,1.442,0,0,1,.045-1.178q2.447-5.178,4.837-10.384c.249-.546.439-.64.954-.323,4.026,2.48,6.38,6.045,6.457,10.786.129,7.934.051,15.871.035,23.806a3.469,3.469,0,0,1-3.264,3.5c-2.406.224-2.406.224-2.406-2.119q0-12.365,0-24.729a6.009,6.009,0,0,0-.019-.837.953.953,0,0,0-.955-.883.96.96,0,0,0-1.083.831,4.521,4.521,0,0,0-.043.918q0,13.538,0,27.076c0,1.615-.462,2.1-2.082,2.12q-8.676.082-17.351.138c-1.261.008-1.808-.558-1.809-1.858Q1020.1-390.7,1020.1-397.655Z" transform="translate(-79.073 1070.035)" fill="#bdbde6"/>
      <path id="Path_48300" data-name="Path 48300" d="M1206.829-693.422c.562-1.359-.349-2.834-.484-4.39a6.862,6.862,0,0,1,3.007-6.748c2.2-1.479,4.48-2.827,6.7-4.27.573-.373.6.145.756.378q4.706,7.171,9.383,14.361c1.29,1.986,2.527,4.007,3.811,6,.256.4.307.6-.162.9-2.042,1.308-4.047,2.676-6.075,4.008a7.225,7.225,0,0,1-8.973-.576,3.349,3.349,0,0,0-1.363-.741A8.935,8.935,0,0,1,1206.829-693.422Zm1.006-4.329a14.756,14.756,0,0,1,4.245-3.769c1.609-1,3.19-2.045,4.773-3.088.188-.125.652-.21.357-.586-.461-.588-.615-1.413-1.357-1.778-.04-.02-.14.077-.21.122-1.882,1.192-3.8,2.328-5.636,3.591C1208.1-701.943,1207.6-699.977,1207.834-697.75Zm8.969,13.606c1.859.911,3.751,1.228,5.615.084,1.566-.961,3.067-2.027,4.6-3.037,1.372-.9,1.362-.886.448-2.271-.252-.381-.417-.453-.825-.179-1.805,1.209-3.647,2.364-5.457,3.567A11.575,11.575,0,0,1,1216.8-684.144Z" transform="translate(-216.383 1272.576)" fill="#6264a7"/>
      <path id="Path_48301" data-name="Path 48301" d="M1185.16-526.092a9.634,9.634,0,0,1-9.486-9.8,9.622,9.622,0,0,1,9.937-9.416,9.608,9.608,0,0,1,9.307,9.867A9.63,9.63,0,0,1,1185.16-526.092Z" transform="translate(-194.702 1156.744)" fill="#7577b9"/>
      <path id="Path_48303" data-name="Path 48303" d="M1063.861-490.738a8.353,8.353,0,0,1-8.461,8.326,8.389,8.389,0,0,1-8.322-8.483,8.44,8.44,0,0,1,8.437-8.308A8.394,8.394,0,0,1,1063.861-490.738Z" transform="translate(-103.684 1124.113)" fill="#bdbde6"/>
      <path id="Path_48304" data-name="Path 48304" d="M1154.511-649.114c.449.066.562.413.739.685q3.827,5.9,7.648,11.8c.926,1.428,1.832,2.869,2.782,4.28.345.513.288.834-.232,1.157q-1.529.947-3.021,1.952a.625.625,0,0,1-1.029-.219q-5.312-8.224-10.643-16.435a.606.606,0,0,1,.19-.979c1.082-.689,2.158-1.387,3.239-2.077A2.858,2.858,0,0,1,1154.511-649.114Z" transform="translate(-176.946 1230.218)" fill="#6264a7"/>
      <path id="Path_48305" data-name="Path 48305" d="M1195.256-411.815a4.675,4.675,0,0,1-4.63-4.652,4.705,4.705,0,0,1,4.7-4.682,4.709,4.709,0,0,1,4.632,4.667A4.683,4.683,0,0,1,1195.256-411.815Z" transform="translate(-205.286 1068.868)" fill="#c6c6ec"/>
      <path id="Path_48306" data-name="Path 48306" d="M1061.374-384.406a4.173,4.173,0,0,1,4.237-4.158,4.193,4.193,0,0,1,4.128,4.191,4.228,4.228,0,0,1-4.161,4.174A4.208,4.208,0,0,1,1061.374-384.406Z" transform="translate(-113.803 1045.805)" fill="#6264a7"/>
      <path id="Path_48308" data-name="Path 48308" d="M1149.962-620.633c-.238.367-.676.471-.983.743-.442.392-.7.372-1.064-.191q-6.347-9.892-12.773-19.733c-.424-.648-.334-.94.3-1.214a.509.509,0,0,0,.137-.1c.542-.5.892-.443,1.309.237,1.267,2.068,2.615,4.086,3.934,6.123q4.388,6.775,8.778,13.549C1149.722-621.028,1149.837-620.836,1149.962-620.633Z" transform="translate(-165.831 1224.797)" fill="#6264a7" stroke="#000" stroke-width="0.1"/>
      <path id="Path_48310" data-name="Path 48310" d="M1060.789-427.5h8.8a2.724,2.724,0,0,1-.412,1.045q-1.785,3.863-3.6,7.713c-.088.186-.109.469-.406.467-.247,0-.281-.234-.361-.4q-2-4.269-3.994-8.541A1.015,1.015,0,0,1,1060.789-427.5Z" transform="translate(-113.39 1073.363)" fill="#bdbde6"/>
      <path id="Path_48311" data-name="Path 48311" d="M1191.277-638.987c-2.042.976-4.161,1.752-4.518,4.523l-5-7.716c2.631.8,4.216-.791,5.941-2.277A11.6,11.6,0,0,0,1191.277-638.987Z" transform="translate(-199.011 1226.922)" fill="#6264a7"/>
      <path id="Path_48312" data-name="Path 48312" d="M1176.592-465.5c.936.474,1.746,1.169,2.728,1.562.271.108.327.366.411.595,1.037,2.817,2.056,5.641,3.114,8.45.174.462.164.678-.341.864a6.344,6.344,0,0,0-1.727,1.1c-.724-2.1-1.423-4.117-2.113-6.136q-.985-2.88-1.953-5.766c-.074-.221-.273-.432-.1-.693Z" transform="translate(-195.317 1100.271)" fill="#c6c6ec"/>
      <path id="Path_48313" data-name="Path 48313" d="M1256.521-704.246c.25-.019.307.2.406.35q4.591,7.082,9.186,14.161c.4.607-.152.64-.411.82s-.53.62-.911.026q-4.56-7.1-9.162-14.176C1255.394-703.427,1255.986-704.2,1256.521-704.246Z" transform="translate(-251.256 1269.24)" fill="#6264a7"/>
      <path id="Path_48314" data-name="Path 48314" d="M1221.542-462.648c.148.16.027.32-.023.46q-1.967,5.546-3.949,11.086a1.853,1.853,0,0,1-.121.23c-.353-.245-.685-.5-1.037-.717-1.181-.736-1.182-.731-.667-2.074.886-2.312,1.786-4.619,2.643-6.942a1.565,1.565,0,0,1,.991-1.011c.744-.29,1.452-.67,2.176-1.011Z" transform="translate(-222.833 1098.24)" fill="#c6c6ec"/>
      <path id="Path_48315" data-name="Path 48315" d="M1202.245-456.155l-2.7,7.083c-.06.156-.113.314-.184.465-.079.169-.087.421-.333.433s-.3-.231-.359-.4c-.945-2.556-1.882-5.115-2.864-7.787a25.426,25.426,0,0,0,3.193.412A20.634,20.634,0,0,0,1202.245-456.155Z" transform="translate(-208.948 1093.793)" fill="#7577b9"/>
      <path id="Path_48318" data-name="Path 48318" d="M1049.493-416.547c-1.545-3.314-3.078-6.627-4.639-9.927-.2-.424-.057-.511.311-.614,1.759-.494,1.76-.5,2.53,1.142,1.181,2.525,2.346,5.058,3.547,7.573.225.47.218.7-.3.923A11.158,11.158,0,0,0,1049.493-416.547Z" transform="translate(-102.047 1073.277)" fill="#6264a7"/>
      <path id="Path_48319" data-name="Path 48319" d="M1086.167-416.274a5.376,5.376,0,0,0-1.135-.768c-.917-.315-.759-.771-.418-1.47,1.266-2.605,2.5-5.228,3.667-7.878a.949.949,0,0,1,1.263-.653c1.516.293,1.52.277.875,1.66C1089.006-422.357,1087.593-419.331,1086.167-416.274Z" transform="translate(-130.062 1073.07)" fill="#6264a7"/>
      <path id="Path_48320" data-name="Path 48320" d="M1176.49-465.744l-.115.007.031-.1.068.115Z" transform="translate(-195.199 1100.498)" fill="#f7850b"/>
      <path id="Path_48321" data-name="Path 48321" d="M1236.389-462.838l.094-.108c.005.027.023.058.015.08-.031.077-.076.078-.123.007Z" transform="translate(-237.666 1098.451)" fill="#f7850b"/>
      <g id="Group_17995" data-name="Group 17995" transform="translate(991.512 655.345)">
        <circle id="Ellipse_26" data-name="Ellipse 26" cx="16.894" cy="16.894" r="16.894" fill="#7577b9"/>
      </g>
      <line id="Line_3" data-name="Line 3" x2="5" y2="5" transform="translate(1000.154 672.739)" fill="none" stroke="#c6c6ec" stroke-linecap="round" stroke-width="3"/>
      <line id="Line_4" data-name="Line 4" x1="11" y2="11" transform="translate(1005.154 666.739)" fill="none" stroke="#c6c6ec" stroke-linecap="round" stroke-width="3"/>
    </g>
  </g>
</svg>
