<svg xmlns="http://www.w3.org/2000/svg" width="260" height="260" viewBox="0 0 260 260">
  <g id="Group_19117" data-name="Group 19117" transform="translate(-1330 -1051)">
    <g id="Group_19107" data-name="Group 19107">
      <g id="Rectangle_25561" data-name="Rectangle 25561" transform="translate(1330 1051)" fill="#fff" stroke="#6264a7" stroke-width="1">
        <rect width="260" height="260" rx="8" stroke="none"/>
        <rect x="0.5" y="0.5" width="259" height="259" rx="7.5" fill="none"/>
      </g>
      <g id="Group_19106" data-name="Group 19106">
        <g id="Group_19105" data-name="Group 19105" transform="translate(10)">
          <g id="Group_15806" data-name="Group 15806" transform="translate(379.695 1816.961)">
            <path id="Path_48297" data-name="Path 48297" d="M1183.368-585.75q-.463,7.835-.922,15.671a8.727,8.727,0,0,1-.508,2.39q-4.656,13.283-9.313,26.567c-.617,1.765-.456,3.626-.584,5.443-.65,9.232-1.235,18.468-1.847,27.7a1.816,1.816,0,0,1-1.981,1.884q-12.375-.065-24.75-.17c-1.149-.01-1.813-.725-1.9-1.983-.287-4.241-.558-8.484-.836-12.726-.415-6.331-.821-12.662-1.256-18.992a13.645,13.645,0,0,0-1.065-3.456q-4.213-12.139-8.468-24.263a15.037,15.037,0,0,1-.573-4.261c-.449-8.328-.863-16.657-1.288-24.986-.073-1.437-.165-2.874-.2-4.312a4,4,0,0,1,3.95-4.1,4.041,4.041,0,0,1,4.33,3.73c.354,5.909.655,11.82.978,17.731q.372,6.809.748,13.617a12.849,12.849,0,0,0,1.176,4.937c1.93,3.963,3.112,8.187,4.611,12.3,1.444,3.963,2.779,7.964,4.179,11.942a1.711,1.711,0,0,1-.011,1.3,7.793,7.793,0,0,0,2.636,9.221,8.251,8.251,0,0,0,9.7.068,7.792,7.792,0,0,0,2.784-9.1,1.868,1.868,0,0,1,.013-1.4q3.358-9.216,6.692-18.441a3.168,3.168,0,0,1,.476-.958c2.9-3.458,4-7.488,4.255-11.887.549-9.566,1.229-19.124,1.868-28.685.167-2.492,1.219-3.862,3.2-4.273a3.861,3.861,0,0,1,4.767,3.812c-.1,3.071-.319,6.14-.493,9.209-.122,2.155-.256,4.309-.385,6.464Z" transform="translate(-75.21 -68.175)" fill="#7577b9"/>
            <path id="Path_48298" data-name="Path 48298" d="M1021.625-393.372q0-8,0-15.992a5.744,5.744,0,0,0-.012-.784,1.186,1.186,0,0,0-1.157-1.143,1.2,1.2,0,0,0-1.35,1.045,4.46,4.46,0,0,0-.038.977c0,10.138-.015,20.276.023,30.414,0,.9-.255,1.155-1.112,1.045-.493-.063-1,.005-1.5-.025a4.106,4.106,0,0,1-4.135-4.269c-.011-9.189-.094-18.38.03-27.568.078-5.768,3-10.018,8.026-12.938.577-.335.793-.23,1.072.363q2.9,6.181,5.887,12.323a1.374,1.374,0,0,1,.028,1.191,7.217,7.217,0,0,0,2.523,8.411,7.651,7.651,0,0,0,8.879.136,7.26,7.26,0,0,0,2.786-8.341,1.655,1.655,0,0,1,.054-1.379q2.925-6.061,5.781-12.153c.3-.639.525-.749,1.14-.378,4.812,2.9,7.626,7.074,7.718,12.623.154,9.285.06,18.574.042,27.862a4.1,4.1,0,0,1-3.9,4.1c-2.876.262-2.876.262-2.876-2.48q0-14.471,0-28.942a6.835,6.835,0,0,0-.022-.98,1.129,1.129,0,0,0-1.142-1.033,1.144,1.144,0,0,0-1.295.973,5.184,5.184,0,0,0-.051,1.075q0,15.844,0,31.689c0,1.89-.552,2.463-2.489,2.481q-10.369.1-20.738.162c-1.507.01-2.161-.653-2.162-2.174Q1021.619-385.229,1021.625-393.372Z" transform="translate(0 -188.296)" fill="#bdbde6"/>
            <path id="Path_48300" data-name="Path 48300" d="M1206.931-690.775c.671-1.591-.417-3.317-.579-5.138a7.966,7.966,0,0,1,3.594-7.9c2.624-1.732,5.354-3.309,8.009-5,.685-.436.721.17.9.442q5.625,8.392,11.215,16.807c1.542,2.325,3.02,4.69,4.555,7.019.306.464.367.7-.193,1.049-2.441,1.531-4.838,3.132-7.261,4.69a8.777,8.777,0,0,1-10.724-.674,4.03,4.03,0,0,0-1.629-.867A10.489,10.489,0,0,1,1206.931-690.775Zm1.2-5.066a17.519,17.519,0,0,1,5.073-4.411c1.923-1.171,3.813-2.394,5.7-3.614.225-.146.78-.246.427-.686-.551-.688-.735-1.654-1.622-2.081-.048-.023-.167.09-.251.143-2.25,1.395-4.546,2.725-6.736,4.2C1208.445-700.747,1207.854-698.446,1208.133-695.841Zm10.72,15.924c2.222,1.066,4.483,1.437,6.711.1,1.871-1.125,3.665-2.373,5.5-3.554,1.64-1.055,1.628-1.037.536-2.658-.3-.446-.5-.53-.986-.21-2.157,1.416-4.358,2.767-6.522,4.174A13.993,13.993,0,0,1,1218.853-679.917Z" transform="translate(-126.245 0)" fill="#6264a7"/>
            <path id="Path_48301" data-name="Path 48301" d="M1187.012-522.819a11.386,11.386,0,0,1-11.337-11.464,11.4,11.4,0,0,1,11.876-11.021,11.35,11.35,0,0,1,11.123,11.548A11.4,11.4,0,0,1,1187.012-522.819Z" transform="translate(-106.31 -107.685)" fill="#7577b9"/>
            <path id="Path_48303" data-name="Path 48303" d="M1067.137-489.3a9.885,9.885,0,0,1-10.113,9.745,9.92,9.92,0,0,1-9.947-9.928,9.988,9.988,0,0,1,10.084-9.723A9.927,9.927,0,0,1,1067.137-489.3Z" transform="translate(-22.628 -138.022)" fill="#bdbde6"/>
            <path id="Path_48304" data-name="Path 48304" d="M1155.277-649.114c.536.078.671.483.883.8q4.574,6.9,9.141,13.806c1.106,1.671,2.19,3.357,3.325,5.01.412.6.345.976-.278,1.354q-1.827,1.108-3.611,2.285a.754.754,0,0,1-1.23-.256q-6.348-9.625-12.721-19.235a.7.7,0,0,1,.227-1.145c1.293-.806,2.579-1.623,3.871-2.431A3.5,3.5,0,0,1,1155.277-649.114Z" transform="translate(-89.986 -39.379)" fill="#6264a7"/>
            <path id="Path_48305" data-name="Path 48305" d="M1196.16-410.225a5.529,5.529,0,0,1-5.534-5.445,5.567,5.567,0,0,1,5.618-5.479,5.57,5.57,0,0,1,5.536,5.462A5.541,5.541,0,0,1,1196.16-410.225Z" transform="translate(-116.041 -189.381)" fill="#c6c6ec"/>
            <path id="Path_48306" data-name="Path 48306" d="M1061.374-383.7a4.938,4.938,0,0,1,5.064-4.866,4.959,4.959,0,0,1,4.935,4.9,5,5,0,0,1-4.974,4.885A4.978,4.978,0,0,1,1061.374-383.7Z" transform="translate(-31.932 -210.822)" fill="#6264a7"/>
            <path id="Path_48308" data-name="Path 48308" d="M1152.906-617.086c-.284.429-.808.551-1.175.869-.528.458-.84.435-1.272-.223q-7.587-11.577-15.267-23.095c-.506-.758-.4-1.1.36-1.421a.613.613,0,0,0,.164-.112c.648-.584,1.066-.519,1.565.277,1.515,2.42,3.126,4.783,4.7,7.166q5.245,7.929,10.491,15.858C1152.619-617.548,1152.756-617.323,1152.906-617.086Z" transform="translate(-79.767 -44.419)" fill="#6264a7" stroke="#000" stroke-width="0.1"/>
            <path id="Path_48310" data-name="Path 48310" d="M1060.789-427.5h10.518a3.146,3.146,0,0,1-.492,1.223q-2.133,4.521-4.3,9.027c-.1.218-.131.549-.485.546-.3,0-.336-.274-.431-.473q-2.39-5-4.774-10A1.17,1.17,0,0,1,1060.789-427.5Z" transform="translate(-31.551 -185.202)" fill="#bdbde6"/>
            <path id="Path_48311" data-name="Path 48311" d="M1193.135-638.055c-2.441,1.143-4.974,2.051-5.4,5.294l-5.975-9.031c3.144.94,5.039-.926,7.1-2.665A13.556,13.556,0,0,0,1193.135-638.055Z" transform="translate(-110.272 -42.444)" fill="#6264a7"/>
            <path id="Path_48312" data-name="Path 48312" d="M1176.6-465.492c1.119.555,2.086,1.368,3.26,1.828.324.127.391.429.491.7,1.24,3.3,2.458,6.6,3.721,9.89.208.541.2.793-.408,1.011a7.607,7.607,0,0,0-2.063,1.292c-.865-2.458-1.7-4.818-2.526-7.181q-1.177-3.371-2.333-6.749c-.089-.259-.326-.506-.124-.811Z" transform="translate(-106.876 -160.187)" fill="#c6c6ec"/>
            <path id="Path_48313" data-name="Path 48313" d="M1256.706-704.246c.3-.023.367.233.485.41q5.487,8.288,10.979,16.573c.474.711-.182.749-.491.96s-.633.726-1.089.03q-5.45-8.311-10.95-16.591C1255.359-703.287,1256.066-704.194,1256.706-704.246Z" transform="translate(-158.307 -3.102)" fill="#6264a7"/>
            <path id="Path_48314" data-name="Path 48314" d="M1222.736-462.648c.178.187.033.374-.027.539q-2.352,6.49-4.72,12.975a2.194,2.194,0,0,1-.145.269c-.422-.287-.818-.582-1.239-.839-1.411-.861-1.412-.855-.8-2.428,1.059-2.706,2.135-5.406,3.159-8.124a1.85,1.85,0,0,1,1.185-1.184c.889-.339,1.736-.784,2.6-1.184Z" transform="translate(-132.174 -162.074)" fill="#c6c6ec"/>
            <path id="Path_48315" data-name="Path 48315" d="M1203.5-456.119l-3.232,8.29c-.071.182-.135.368-.22.544-.094.2-.1.493-.4.506s-.353-.27-.43-.473c-1.129-2.992-2.25-5.987-3.422-9.113a31.026,31.026,0,0,0,3.816.482A25.179,25.179,0,0,0,1203.5-456.119Z" transform="translate(-119.408 -166.209)" fill="#7577b9"/>
            <path id="Path_48318" data-name="Path 48318" d="M1050.417-414.7c-1.846-3.879-3.679-7.755-5.545-11.618-.24-.5-.069-.6.372-.719,2.1-.578,2.1-.588,3.024,1.336,1.412,2.955,2.8,5.919,4.24,8.863.269.55.26.815-.362,1.08A13.388,13.388,0,0,0,1050.417-414.7Z" transform="translate(-21.123 -185.282)" fill="#6264a7"/>
            <path id="Path_48319" data-name="Path 48319" d="M1086.522-414.432a6.434,6.434,0,0,0-1.357-.9c-1.1-.368-.907-.9-.5-1.721,1.513-3.049,2.986-6.118,4.382-9.22a1.139,1.139,0,0,1,1.509-.764c1.811.343,1.816.324,1.046,1.943C1089.915-421.551,1088.227-418.01,1086.522-414.432Z" transform="translate(-46.88 -185.474)" fill="#6264a7"/>
            <path id="Path_48320" data-name="Path 48320" d="M1176.512-465.728l-.137.009.038-.118.081.135Z" transform="translate(-106.768 -159.975)" fill="#f7850b"/>
            <path id="Path_48321" data-name="Path 48321" d="M1236.392-462.819l.112-.127c.006.031.027.068.017.093-.037.091-.091.092-.146.009Z" transform="translate(-145.812 -161.878)" fill="#f7850b"/>
          </g>
        </g>
        <g id="Group_19115" data-name="Group 19115" transform="translate(-4 -7)">
          <g id="Group_19116" data-name="Group 19116">
            <g id="Group_19104" data-name="Group 19104" transform="translate(1478 1217)">
              <g id="Ellipse_2813" data-name="Ellipse 2813" fill="#fff" stroke="#fff" stroke-width="3" opacity="0">
                <ellipse cx="24" cy="24.5" rx="24" ry="24.5" stroke="none"/>
                <ellipse cx="24" cy="24.5" rx="22.5" ry="23" fill="none"/>
              </g>
              <g id="Ellipse_2814" data-name="Ellipse 2814" transform="translate(3 3)" fill="#7577b9" stroke="#fff" stroke-width="3">
                <ellipse cx="21" cy="21.5" rx="21" ry="21.5" stroke="none"/>
                <ellipse cx="21" cy="21.5" rx="19.5" ry="20" fill="none"/>
              </g>
            </g>
            <path id="Path_49212" data-name="Path 49212" d="M-16598.225-8861.12l6.619,5.218,12.875-17.544" transform="translate(18089.725 10106.174)" fill="none" stroke="#fff" stroke-linecap="round" stroke-width="3"/>
          </g>
        </g>
      </g>
    </g>
  </g>
</svg>
