<svg xmlns="http://www.w3.org/2000/svg" width="180" height="180" viewBox="0 0 180 180">
  <g id="Manage_Tournament_Actions" data-name="Manage Tournament Actions" transform="translate(-2314 -1177)">
    <circle id="Ellipse_2823" data-name="Ellipse 2823" cx="16.5" cy="16.5" r="16.5" transform="translate(2412 1278)" fill="#bdbde6"/>
    <g id="Rectangle_25562" data-name="Rectangle 25562" transform="translate(2314 1177)" fill="none" stroke="#6264a7" stroke-width="1">
      <rect width="180" height="180" rx="8" stroke="none"/>
      <rect x="0.5" y="0.5" width="179" height="179" rx="7.5" fill="none"/>
    </g>
    <path id="Path_48624" data-name="Path 48624" d="M3583.972-711.795a11.884,11.884,0,0,1,11.092,9.392,12.271,12.271,0,0,1,.25,2.689q-.006,12.312.008,24.625c0,.447-.107.473-.5.384-1.634-.367-3.307-.509-4.959-.77-.384-.061-.483-.206-.482-.583q.016-10.667.007-21.335a8.287,8.287,0,0,0-6.779-8.332,8.007,8.007,0,0,0-1.633-.15q-24.262,0-48.523,0a8.326,8.326,0,0,0-8.447,8.407c-.017,3.548,0,7.1,0,10.643q0,18.892,0,37.783a8.339,8.339,0,0,0,6.08,8.224,9.09,9.09,0,0,0,2.531.324q9.965,0,19.931-.009c.4,0,.551.087.6.508.186,1.582.412,3.16.637,4.738.1.692.115.689-.588.689q-11.539,0-23.077,0a11.706,11.706,0,0,1-9.126-4.1,11.64,11.64,0,0,1-2.817-6.241c-.015-.1.04-.233-.1-.3v-56.025a3.046,3.046,0,0,0,.237-1.051,11.864,11.864,0,0,1,11.367-9.515c.1.007.192.02.288.02l52.947,0C3583.264-711.781,3583.618-711.79,3583.972-711.795Z" transform="translate(-1159.156 1934.408)" fill="#7577b9"/>
    <path id="Path_48626" data-name="Path 48626" d="M3979.459-239.778c1.5.3,3.017.662,4.51,1.11a.523.523,0,0,0,.676-.231,15.1,15.1,0,0,1,1.869-2.086.494.494,0,0,0,.125-.658q-.851-2.072-1.545-4.2a.474.474,0,0,1,.187-.638,28.35,28.35,0,0,1,3.193-2.078.419.419,0,0,1,.577.057q1.692,1.485,3.243,3.115a.569.569,0,0,0,.748.157,15.736,15.736,0,0,1,2.7-.87.408.408,0,0,0,.369-.4c.2-1.482.466-2.955.757-4.423.067-.341.18-.494.561-.537a33.266,33.266,0,0,1,3.715-.2.449.449,0,0,1,.51.367c.482,1.432.892,2.885,1.254,4.35a.48.48,0,0,0,.474.425,15.886,15.886,0,0,1,2.874.612c.278.087.405-.041.551-.229q1.39-1.8,2.915-3.485a.446.446,0,0,1,.61-.126,31.892,31.892,0,0,1,3.347,1.707.475.475,0,0,1,.275.609c-.309,1.447-.655,2.884-1.072,4.3a.586.586,0,0,0,.268.755,13.146,13.146,0,0,1,1.981,1.768.577.577,0,0,0,.775.176q2.065-.866,4.2-1.539a.422.422,0,0,1,.561.17,32.435,32.435,0,0,1,2.117,3.227.419.419,0,0,1-.082.58q-1.494,1.683-3.118,3.24a.531.531,0,0,0-.156.7,13.2,13.2,0,0,1,.836,2.561.639.639,0,0,0,.661.581c1.438.17,2.862.435,4.28.731.3.063.439.176.47.481a36.65,36.65,0,0,1,.219,3.859c0,.317-.186.362-.4.434-1.431.486-2.885.895-4.352,1.254a.459.459,0,0,0-.418.469,14.341,14.341,0,0,1-.616,2.872c-.094.278.029.408.223.557q1.78,1.374,3.464,2.864a.5.5,0,0,1,.145.695,35.545,35.545,0,0,1-1.656,3.265.562.562,0,0,1-.725.317c-1.459-.327-2.91-.683-4.348-1.09a.408.408,0,0,0-.527.161,16.909,16.909,0,0,1-2,2.227.4.4,0,0,0-.09.54q.886,2.111,1.578,4.293a.454.454,0,0,1-.185.6,33.011,33.011,0,0,1-3.188,2.088.444.444,0,0,1-.614-.072c-1.1-.97-2.165-1.981-3.174-3.047a.636.636,0,0,0-.849-.2,11.125,11.125,0,0,1-2.425.782c-.469.087-.6.321-.655.757a42.042,42.042,0,0,1-.751,4.325c-.052.231-.136.324-.366.351a31.367,31.367,0,0,1-3.908.211c-.291,0-.381-.123-.462-.361-.49-1.447-.9-2.916-1.271-4.4a.438.438,0,0,0-.453-.387,14.265,14.265,0,0,1-2.828-.593.459.459,0,0,0-.6.192c-.927,1.2-1.887,2.369-2.908,3.491a.444.444,0,0,1-.607.134,33.135,33.135,0,0,1-3.354-1.691.513.513,0,0,1-.273-.661c.3-1.448.657-2.883,1.074-4.3a.5.5,0,0,0-.2-.648,15.827,15.827,0,0,1-2.151-1.94.44.44,0,0,0-.584-.1c-1.417.565-2.836,1.123-4.291,1.587a.418.418,0,0,1-.562-.159,32.8,32.8,0,0,1-2.1-3.182.51.51,0,0,1,.1-.708q1.507-1.671,3.13-3.229a.436.436,0,0,0,.124-.577,16.312,16.312,0,0,1-.908-2.791.442.442,0,0,0-.44-.4c-1.5-.195-2.99-.447-4.469-.772-.259-.057-.429-.128-.46-.442a33.691,33.691,0,0,1-.2-3.812.449.449,0,0,1,.362-.5c1.417-.476,2.85-.894,4.3-1.244.317-.076.469-.187.507-.554a13.928,13.928,0,0,1,.575-2.734.492.492,0,0,0-.2-.643c-1.177-.9-2.312-1.855-3.422-2.838a.5.5,0,0,1-.178-.688,26.778,26.778,0,0,1,1.733-3.386C3979.136-239.668,3979.182-239.878,3979.459-239.778Zm21.257-1.249a14.613,14.613,0,0,0-14.681,14.416,14.608,14.608,0,0,0,14.332,14.762,14.575,14.575,0,0,0,14.865-14.412A14.579,14.579,0,0,0,4000.716-241.027Z" transform="translate(-1572.149 1520.621)" fill="#6264a7"/>
    <path id="Path_48627" data-name="Path 48627" d="M3667.655-259.271q0,3.216,0,6.432a4.406,4.406,0,0,1-4.341,4.453q-6.6.05-13.2,0a4.369,4.369,0,0,1-4.317-4.281q-.067-6.649,0-13.3a4.385,4.385,0,0,1,4.331-4.275q6.6-.054,13.2,0a4.435,4.435,0,0,1,4.322,4.391c0,.048,0,.1,0,.145q0,3.216,0,6.432Z" transform="translate(-1274.475 1536.688)" fill="#bdbde6"/>
    <path id="Path_48628" data-name="Path 48628" d="M3656.825-555.8c-2.063,0-4.127,0-6.19,0a4.475,4.475,0,0,1-4.725-4.725q0-6.19,0-12.38a4.506,4.506,0,0,1,4.782-4.776q6.238,0,12.477,0a4.471,4.471,0,0,1,4.565,3.827,5.261,5.261,0,0,1,.05.915q.006,6.335,0,12.67a4.41,4.41,0,0,1-4.339,4.455c-2.208.04-4.416.008-6.625.008Z" transform="translate(-1274.608 1813.287)" fill="#bdbde6"/>
    <path id="Path_48629" data-name="Path 48629" d="M3976.352-555.8c-2.079,0-4.158,0-6.238,0a4.451,4.451,0,0,1-4.685-4.705q0-6.238,0-12.476a4.474,4.474,0,0,1,4.7-4.7q6.238,0,12.476,0a4.492,4.492,0,0,1,4.7,4.667q.009,6.286,0,12.573a4.466,4.466,0,0,1-4.616,4.64C3980.575-555.787,3978.464-555.8,3976.352-555.8Z" transform="translate(-1563.172 1813.283)" fill="#7577b9"/>
    <path id="Path_48631" data-name="Path 48631" d="M4180.461-43.9a6.234,6.234,0,0,1-6.261-6.251,6.253,6.253,0,0,1,6.255-6.265,6.239,6.239,0,0,1,6.256,6.258A6.224,6.224,0,0,1,4180.461-43.9Z" transform="translate(-1751.973 1344.344)" fill="#7577b9"/>
  </g>
</svg>
