<svg xmlns="http://www.w3.org/2000/svg" width="260" height="260" viewBox="0 0 260 260"><defs><style>.a,.g{fill:none;}.a{stroke:#6264a7;}.b{fill:#7577b9;}.c{fill:#6264a7;}.d{fill:#bdbde6;}.e{fill:#fff;}.f{stroke:none;}</style></defs><g transform="translate(-331 -706)"><g class="a" transform="translate(331 706)"><rect class="f" width="260" height="260" rx="8"/><rect class="g" x="0.5" y="0.5" width="259" height="259" rx="7.5"/></g><g transform="translate(-3125.072 1478.6)"><path class="b" d="M3613.276-711.793a17.168,17.168,0,0,1,16.024,13.568,17.679,17.679,0,0,1,.36,3.885q-.009,17.787.012,35.574c0,.646-.154.683-.727.554-2.361-.531-4.777-.735-7.165-1.112-.554-.087-.7-.3-.7-.842q.024-15.411.011-30.822a11.972,11.972,0,0,0-9.794-12.037,11.562,11.562,0,0,0-2.359-.216q-35.05.006-70.1,0a12.028,12.028,0,0,0-12.2,12.146c-.025,5.125-.005,10.251-.005,15.376q0,27.292,0,54.585a12.046,12.046,0,0,0,8.784,11.881,13.125,13.125,0,0,0,3.655.468q14.4,0,28.795-.013c.578,0,.8.125.867.734.269,2.286.6,4.566.92,6.845.142,1,.165,1-.85,1q-16.669,0-33.338,0a16.914,16.914,0,0,1-13.185-5.929,16.818,16.818,0,0,1-4.069-9.016c-.021-.148.058-.337-.143-.427v-80.938a4.4,4.4,0,0,0,.342-1.518,17.139,17.139,0,0,1,16.422-13.747c.139.01.277.029.416.029q38.246,0,76.491,0C3612.254-711.773,3612.765-711.786,3613.276-711.793Z" transform="translate(0 -0.689)"/><path class="b" d="M3637.851-712.488a.444.444,0,0,1,.01-.112h78.422a.562.562,0,0,0,.008.118c-.511.007-1.022.021-1.534.021q-38.246,0-76.491,0C3638.128-712.459,3637.989-712.478,3637.851-712.488Z" transform="translate(-103.014)"/><path class="c" d="M3981.278-234.493c2.169.427,4.358.956,6.515,1.6a.756.756,0,0,0,.977-.333,21.8,21.8,0,0,1,2.7-3.014.714.714,0,0,0,.181-.95q-1.23-2.994-2.233-6.074a.686.686,0,0,1,.27-.921,41,41,0,0,1,4.612-3,.6.6,0,0,1,.834.083q2.444,2.145,4.685,4.5a.822.822,0,0,0,1.08.226,22.735,22.735,0,0,1,3.9-1.256.59.59,0,0,0,.533-.585c.293-2.142.673-4.269,1.094-6.39.1-.493.26-.714.811-.776a48.05,48.05,0,0,1,5.366-.283.649.649,0,0,1,.737.531c.7,2.069,1.288,4.168,1.812,6.285a.694.694,0,0,0,.685.615,22.953,22.953,0,0,1,4.152.884c.4.125.586-.059.8-.331q2.008-2.6,4.211-5.035a.644.644,0,0,1,.88-.183,46.087,46.087,0,0,1,4.835,2.466.686.686,0,0,1,.4.88c-.447,2.09-.947,4.166-1.549,6.216a.847.847,0,0,0,.387,1.091,18.991,18.991,0,0,1,2.862,2.554.834.834,0,0,0,1.12.254q2.984-1.252,6.074-2.223a.61.61,0,0,1,.811.246,46.814,46.814,0,0,1,3.058,4.662.6.6,0,0,1-.119.839q-2.159,2.432-4.5,4.681a.767.767,0,0,0-.225,1.012,19.078,19.078,0,0,1,1.207,3.7.923.923,0,0,0,.955.84c2.078.246,4.134.628,6.183,1.056.436.091.635.254.679.695a53.03,53.03,0,0,1,.316,5.576c0,.458-.269.523-.575.627-2.067.7-4.167,1.292-6.287,1.812a.663.663,0,0,0-.6.677,20.7,20.7,0,0,1-.889,4.149c-.136.4.042.59.322.805q2.572,1.984,5,4.137a.726.726,0,0,1,.21,1,51.385,51.385,0,0,1-2.392,4.717.812.812,0,0,1-1.047.457c-2.107-.472-4.2-.987-6.281-1.574a.59.59,0,0,0-.76.232,24.435,24.435,0,0,1-2.89,3.218.584.584,0,0,0-.129.779q1.28,3.05,2.28,6.2a.656.656,0,0,1-.268.868,47.68,47.68,0,0,1-4.606,3.017.641.641,0,0,1-.887-.1c-1.593-1.4-3.128-2.862-4.585-4.4a.918.918,0,0,0-1.226-.282,16.069,16.069,0,0,1-3.5,1.13c-.678.125-.872.464-.946,1.093a60.79,60.79,0,0,1-1.085,6.248c-.074.333-.2.468-.529.507a45.32,45.32,0,0,1-5.646.3c-.42,0-.551-.178-.667-.521-.708-2.09-1.3-4.212-1.837-6.352a.633.633,0,0,0-.655-.559,20.615,20.615,0,0,1-4.085-.857.663.663,0,0,0-.865.277c-1.338,1.732-2.726,3.423-4.2,5.043a.642.642,0,0,1-.876.193,47.8,47.8,0,0,1-4.845-2.443.741.741,0,0,1-.4-.955c.437-2.092.949-4.166,1.552-6.215a.726.726,0,0,0-.289-.936,22.886,22.886,0,0,1-3.108-2.8.635.635,0,0,0-.844-.15c-2.047.816-4.1,1.622-6.2,2.293a.6.6,0,0,1-.812-.23,47.409,47.409,0,0,1-3.029-4.6.737.737,0,0,1,.14-1.023q2.177-2.414,4.521-4.665a.63.63,0,0,0,.179-.834,23.6,23.6,0,0,1-1.312-4.031.639.639,0,0,0-.636-.577c-2.167-.281-4.32-.645-6.455-1.115-.375-.083-.62-.185-.664-.639a48.693,48.693,0,0,1-.292-5.507.649.649,0,0,1,.522-.726c2.047-.687,4.117-1.292,6.215-1.8.458-.11.678-.27.732-.8a20.111,20.111,0,0,1,.831-3.95.711.711,0,0,0-.289-.929c-1.7-1.3-3.339-2.68-4.944-4.1a.73.73,0,0,1-.257-.994,38.71,38.71,0,0,1,2.5-4.892C3980.813-234.333,3980.878-234.637,3981.278-234.493Zm30.709-1.8a21.111,21.111,0,0,0-21.209,20.827,21.1,21.1,0,0,0,20.7,21.327,21.056,21.056,0,0,0,21.476-20.821A21.062,21.062,0,0,0,4011.987-236.3Z" transform="translate(-393.293 -393.867)"/><path class="d" d="M3677.391-254.381q0,4.646,0,9.292a6.365,6.365,0,0,1-6.271,6.433q-9.535.072-19.072,0a6.312,6.312,0,0,1-6.237-6.184q-.1-9.605,0-19.212a6.335,6.335,0,0,1,6.256-6.175q9.536-.079,19.072,0a6.407,6.407,0,0,1,6.243,6.344c0,.07,0,.14,0,.21q0,4.646,0,9.292Z" transform="translate(-109.818 -378.927)"/><path class="d" d="M3661.68-546.069c-2.981,0-5.962.005-8.943,0a6.465,6.465,0,0,1-6.826-6.826q0-8.942,0-17.885a6.51,6.51,0,0,1,6.909-6.9q9.012,0,18.025,0a6.459,6.459,0,0,1,6.6,5.529,7.612,7.612,0,0,1,.072,1.321q.008,9.152.006,18.3a6.371,6.371,0,0,1-6.268,6.436c-3.189.057-6.38.012-9.571.012Z" transform="translate(-109.945 -116.033)"/><path class="b" d="M3981.21-546.066c-3,0-6.008.007-9.012,0a6.43,6.43,0,0,1-6.769-6.8q-.006-9.012,0-18.023a6.464,6.464,0,0,1,6.793-6.79q9.012,0,18.023,0a6.49,6.49,0,0,1,6.785,6.742q.013,9.082,0,18.163a6.452,6.452,0,0,1-6.669,6.7C3987.312-546.051,3984.261-546.066,3981.21-546.066Z" transform="translate(-384.744 -116.036)"/><path class="e" d="M4106.685-141.862a21.062,21.062,0,0,1,20.971,21.333,21.056,21.056,0,0,1-21.476,20.821,21.1,21.1,0,0,1-20.7-21.327A21.111,21.111,0,0,1,4106.685-141.862Zm.253,30.04a8.992,8.992,0,0,0,9.03-9.041,9.014,9.014,0,0,0-9.039-9.04,9.033,9.033,0,0,0-9.037,9.052A9.006,9.006,0,0,0,4106.938-111.821Z" transform="translate(-487.989 -488.302)"/><path class="b" d="M4183.245-38.336a9.006,9.006,0,0,1-9.045-9.03,9.033,9.033,0,0,1,9.037-9.052,9.013,9.013,0,0,1,9.038,9.04A8.992,8.992,0,0,1,4183.245-38.336Z" transform="translate(-564.297 -562.377)"/></g></g></svg>