<svg xmlns="http://www.w3.org/2000/svg" width="260" height="260" viewBox="0 0 260 260"><defs><style>.a,.f,.h{fill:none;}.a{stroke:#6264a7;}.b{fill:#c7c7ec;}.c{fill:#bdbde6;}.d{fill:#fff;}.e{fill:#6264a7;}.f{stroke:#bdbde6;stroke-linecap:round;stroke-width:5px;}.g{stroke:none;}</style></defs><g transform="translate(-1385 -709)"><g class="a" transform="translate(1385 709)"><rect class="g" width="260" height="260" rx="8"/><rect class="h" x="0.5" y="0.5" width="259" height="259" rx="7.5"/></g><g transform="translate(7.529 9.333)"><g transform="translate(1439.471 759.667)"><g transform="translate(0 0)"><path class="b" d="M107.938,102.238c-4.8-1.684-12.651-1.768-16.124-3.072-2.4-.926-6.218-1.936-7.462-3.409s-1.244-12-1.244-12a19.406,19.406,0,0,0,4.245-5.892C88.6,74.8,89.412,66.294,89.412,66.294s2.83,1.178,3.945-4.377c.943-4.8,2.745-7.323,2.273-10.859-.515-3.535-2.487-2.694-2.487-2.694s2.487-3.578,2.487-15.741c0-12.542-9.649-24.874-27.7-24.874-18.011,0-27.745,12.374-27.745,24.874,0,12.164,2.444,15.741,2.444,15.741s-2.015-.842-2.487,2.694c-.515,3.535,1.287,6.061,2.273,10.859,1.115,5.6,3.945,4.377,3.945,4.377s.815,8.46,2.058,11.574a19.405,19.405,0,0,0,4.245,5.892s0,10.522-1.244,12-5.06,2.483-7.462,3.367c-3.431,1.3-11.278,1.473-16.124,3.157-4.8,1.684-19.64,9.344-19.64,28.284H127.535C127.578,111.581,112.741,103.921,107.938,102.238Z" transform="translate(-8.191 -7.531)"/><path class="c" d="M112.429,102.207c-4.714-1.684-12.416-1.768-15.825-3.072-2.357-.926-6.1-1.936-7.323-3.409s-1.221-12-1.221-12a19.377,19.377,0,0,0,4.167-5.892c1.221-3.072,2.02-11.574,2.02-11.574s2.778,1.178,3.872-4.377c.926-4.8,2.694-7.323,2.231-10.859-.505-3.535-2.441-2.694-2.441-2.694s2.441-3.578,2.441-15.741c0-12.542-11.312-32.362-40.427-22.371-.657,11.479,32.3,120.312,32.3,120.312h39.437A29.645,29.645,0,0,0,112.429,102.207Z" transform="translate(-12.319 -7.501)"/></g><g transform="translate(80 83)"><circle class="d" cx="28.5" cy="28.5" r="28.5"/><g transform="translate(4 4)"><circle class="e" cx="25" cy="25" r="25"/></g></g></g><path class="f" d="M-15912.242,14499.021l9.578,9.3s12.543-25.3,19.32-25.3" transform="translate(17444.604 -13623.728)"/></g></g></svg>