<svg xmlns="http://www.w3.org/2000/svg" width="260" height="260" viewBox="0 0 260 260"><defs><style>.a,.f{fill:none;}.a{stroke:#6264a7;}.b{fill:#7577b9;}.c{fill:#bdbde6;}.d{fill:#6264a7;}.e{stroke:none;}</style></defs><g transform="translate(-671 -319)"><g class="a" transform="translate(671 319)"><rect class="e" width="260" height="260" rx="8"/><rect class="f" x="0.5" y="0.5" width="259" height="259" rx="7.5"/></g><g transform="translate(-1171.906 110.157)"><path class="b" d="M2068.477,376.861q0,18.29-.006,36.58c-.01,5.644-2.349,8-7.97,8q-22.862.03-45.724,0c-5.359-.008-7.877-2.469-7.883-7.777q-.038-36.763,0-73.526c.006-5.1,2.507-7.564,7.655-7.575q23.046-.048,46.091,0c5.594.01,7.826,2.341,7.832,8.084Q2068.492,358.754,2068.477,376.861Z" transform="translate(-27.591 -14.623)"/><path class="c" d="M1903.923,301.08c0-8.784-.019-17.569.007-26.354.016-5.422,2.394-7.853,7.743-7.862q23.059-.038,46.119,0c5.143.01,7.7,2.5,7.711,7.586q.058,26.538,0,53.075c-.01,5.188-2.451,7.607-7.611,7.616q-23.243.037-46.486,0c-5.123-.009-7.46-2.435-7.477-7.706C1903.9,318.65,1903.923,309.865,1903.923,301.08Z" transform="translate(-0.003 0)"/><path class="d" d="M1934.484,433.9c-7.554,0-15.108.019-22.662-.007-5.438-.018-7.882-2.379-7.893-7.694q-.045-19.737,0-39.475c.011-4.734,2.334-7.463,7.007-7.5q23.756-.2,47.514,0c4.609.04,7.035,2.848,7.051,7.529q.069,19.737,0,39.475c-.016,5.095-2.563,7.632-7.628,7.66C1950.079,433.933,1942.281,433.9,1934.484,433.9Z" transform="translate(0 -27.07)"/><path class="d" d="M2037.845,266.854c7.679,0,15.359-.029,23.038.01,5.114.027,7.545,2.493,7.575,7.649q.055,9.509,0,19.016c-.033,4.689-2.429,7.317-7.125,7.346q-23.586.143-47.173,0c-4.711-.027-7.214-2.652-7.266-7.268q-.11-9.69,0-19.382c.053-4.826,2.649-7.336,7.551-7.363C2022.242,266.822,2030.043,266.854,2037.845,266.854Z" transform="translate(-27.581)"/></g></g></svg>