<svg xmlns="http://www.w3.org/2000/svg" xmlns:xlink="http://www.w3.org/1999/xlink" width="180" height="180" viewBox="0 0 180 180">
  <defs>
    <clipPath id="clip-path">
      <rect id="Rectangle_26893" data-name="Rectangle 26893" width="96.405" height="99.188" transform="translate(0 0)" fill="none"/>
    </clipPath>
  </defs>
  <g id="Tournaments_Report" data-name="Tournaments Report" transform="translate(-534 -1088)">
    <g id="Rectangle_26894" data-name="Rectangle 26894" transform="translate(534 1088)" fill="none" stroke="#6264a7" stroke-width="1">
      <rect width="180" height="180" rx="8" stroke="none"/>
      <rect x="0.5" y="0.5" width="179" height="179" rx="7.5" fill="none"/>
    </g>
    <g id="Group_19134" data-name="Group 19134" transform="translate(567.539 1128.154)">
      <g id="Group_19132" data-name="Group 19132" transform="translate(0 0)" clip-path="url(#clip-path)">
        <path id="Path_49246" data-name="Path 49246" d="M71.064,99.184H26.84c-.126-.172-.331-.117-.5-.153a8.934,8.934,0,0,1-6.989-6.348,10.263,10.263,0,0,1-.349-3.5c.008-.3-.071-.395-.379-.386a13.112,13.112,0,0,1-2.008-.159,18.387,18.387,0,0,1-10.4-4.855,18.842,18.842,0,0,1-3.961-22.9c3.462-6.45,8.992-9.829,16.32-10.184.446-.022.43-.212.429-.528Q19,29.855,19,9.537c0-.337,0-.674.019-1.01A8.992,8.992,0,0,1,25.5.349,8.019,8.019,0,0,0,26.84,0H88.313c.024.07.08.076.143.081A7.107,7.107,0,0,1,91.17.834a8.839,8.839,0,0,1,5.215,8.418q.015,31.076.005,62.152c0,.168.009.336.014.5a12.559,12.559,0,0,1-.255,2.457,10.6,10.6,0,0,1-2.774,4.726C88.071,84.8,82.6,90.356,77.036,95.817a13.5,13.5,0,0,1-3.643,2.659,13.675,13.675,0,0,1-2.329.708m20.652-58.29H91.7q0-15.8,0-31.592a5.174,5.174,0,0,0-.232-1.671,4.355,4.355,0,0,0-4.389-2.948H28.322c-.168,0-.337,0-.5.009a4.264,4.264,0,0,0-2.23.739,4.355,4.355,0,0,0-1.9,3.808Q23.7,30.018,23.7,50.8a.942.942,0,0,1,0,.138c-.036.242.066.347.307.406a13.6,13.6,0,0,1,1.358.4A18.973,18.973,0,0,1,37.94,72.437a18.553,18.553,0,0,1-7.881,12.875,18.152,18.152,0,0,1-5.966,2.814c-.156.042-.4,0-.4.285a15.135,15.135,0,0,0,.074,2.566,4.3,4.3,0,0,0,4.4,3.516q20.849,0,41.7.022a4.469,4.469,0,0,0,2.714-.865.755.755,0,0,0,.358-.712c-.012-3.627-.007-7.255-.007-10.882a7.736,7.736,0,0,1,.182-1.822,6.638,6.638,0,0,1,6.419-5.106c3.578-.017,7.156,0,10.734-.01.157,0,.36.089.467-.088a4.44,4.44,0,0,0,.984-2.314Q91.7,56.8,91.716,40.894M15.14,79.541l.245-.233,7.769-7.446c2.621-2.511,5.4-5.167,8.172-7.821.238-.228.216-.338,0-.561Q29.168,61.258,27.044,59c-.258-.275-.387-.277-.661-.013Q20.951,64.232,15.5,69.454c-.21.2-.311.215-.519,0-.939-.965-1.9-1.9-2.844-2.867-.185-.189-.283-.182-.464,0Q9.429,68.855,7.165,71.1c-.176.174-.207.274-.013.467q3.9,3.887,7.786,7.789c.063.063.131.12.2.185" transform="translate(0 0.004)" fill="#6264a7"/>
        <path id="Path_49247" data-name="Path 49247" d="M325.821,87.234q0,15.911.008,31.821a4.44,4.44,0,0,1-.984,2.314c-.107.177-.31.088-.467.088-3.578.006-7.156-.007-10.734.01a6.638,6.638,0,0,0-6.419,5.106,7.735,7.735,0,0,0-.182,1.822c0,3.627,0,7.255.007,10.882a.755.755,0,0,1-.358.712,4.469,4.469,0,0,1-2.714.865q-20.849-.049-41.7-.023a4.3,4.3,0,0,1-4.4-3.516,15.14,15.14,0,0,1-.075-2.566c-.007-.281.24-.243.4-.285a18.152,18.152,0,0,0,5.966-2.814,18.553,18.553,0,0,0,7.881-12.875,18.973,18.973,0,0,0-12.581-20.693,13.608,13.608,0,0,0-1.358-.4c-.241-.059-.343-.163-.307-.406a.936.936,0,0,0,0-.138q0-20.778-.005-41.556a4.355,4.355,0,0,1,1.9-3.808,4.264,4.264,0,0,1,2.23-.739c.168-.011.336-.009.5-.009h58.763a4.355,4.355,0,0,1,4.389,2.948,5.175,5.175,0,0,1,.232,1.671q0,15.8,0,31.592ZM297.461,97.588q10.205,0,20.41.009c.359,0,.456-.089.446-.448-.026-.979-.036-1.96,0-2.938.018-.451-.113-.545-.55-.545q-19.172.019-38.344.01c-.8,0-1.59.013-2.385-.007-.292-.008-.358.088-.354.365.016,1.025.031,2.052-.006,3.075-.015.425.124.487.507.486q10.136-.018,20.273-.009m0,7.247h15.092c1.789,0,3.578,0,5.367,0,.271,0,.4-.029.4-.36-.024-1.071-.018-2.143,0-3.214,0-.281-.073-.368-.358-.361-.795.019-1.59.007-2.385.007q-19.152,0-38.3-.009c-.438,0-.612.065-.588.56.047.962.039,1.929,0,2.892-.016.42.116.49.5.489q10.138-.019,20.276-.009m.045,8.011q10.181,0,20.362.008c.359,0,.457-.087.448-.448-.026-.994-.035-1.99,0-2.983.017-.428-.128-.485-.507-.484q-14.079.016-28.158.008c-4.173,0-8.346,0-12.52-.008-.358,0-.46.087-.45.449.027.948.009,1.9.009,2.846,0,.612,0,.612.589.612h20.224m-21.05-48.293c0-1.867,0-3.735.005-5.6,0-.266-.028-.374-.342-.329a14.527,14.527,0,0,0-2.406.543,12.229,12.229,0,0,0-5.757,19.168c.229.287.33.259.566.021q3.83-3.86,7.686-7.694a.812.812,0,0,0,.252-.643c-.01-1.821-.005-3.643-.005-5.464m1.207,18.553c.534-.021,1.067-.036,1.6-.1a12.312,12.312,0,0,0,10.518-10.623c.049-.413-.081-.426-.4-.426q-5.32.013-10.64,0a1.109,1.109,0,0,0-.877.355q-3.827,3.861-7.686,7.691c-.264.262-.226.363.046.567a12.116,12.116,0,0,0,7.444,2.541m40.644-12.57c0-3.917,0-7.834.008-11.751,0-.337-.07-.436-.42-.427-1.023.027-2.048.021-3.072,0-.3-.006-.419.044-.413.387.023,1.315.009,2.632.009,3.948q0,9.755-.008,19.509c0,.336.069.438.42.429,1.023-.027,2.049-.03,3.072,0,.369.011.412-.117.411-.437q-.016-5.83-.007-11.66M284.29,69.6c1.727,0,3.454-.005,5.18.005.277,0,.359-.048.316-.355a11.41,11.41,0,0,0-.586-2.491,12.085,12.085,0,0,0-9.965-8.131c-.353-.058-.431.029-.43.382q.021,5.071,0,10.142c0,.344.066.463.44.458,1.681-.023,3.362-.01,5.043-.01m25.227,5.611c0-2.356,0-4.713,0-7.069,0-.272-.03-.41-.365-.4-1.069.024-2.14.017-3.21,0-.263,0-.331.077-.33.335q.011,7.115,0,14.229c0,.273.091.322.338.319,1.039-.012,2.079-.02,3.118,0,.346.007.458-.069.455-.441-.019-2.325-.01-4.651-.01-6.977m-12.7,4.334c0,.918,0,1.836,0,2.754,0,.209.008.332.281.328q1.673-.024,3.348,0c.267,0,.291-.115.29-.331-.006-1.806-.008-3.611,0-5.417,0-.267-.085-.332-.34-.329q-1.628.019-3.256,0c-.264,0-.331.078-.327.334.015.887.006,1.775.006,2.662" transform="translate(-234.105 -46.335)" fill="#bdbde5"/>
        <path id="Path_49249" data-name="Path 49249" d="M484.266,519.186q-10.136,0-20.273.009c-.383,0-.522-.062-.507-.486.037-1.024.021-2.05.006-3.075,0-.276.062-.372.354-.365.794.021,1.59.007,2.385.007q19.172,0,38.344-.01c.437,0,.568.094.55.545-.039.978-.029,1.959,0,2.938.009.359-.087.448-.446.448q-10.205-.017-20.41-.009" transform="translate(-420.911 -467.934)" fill="#6264a7"/>
        <path id="Path_49250" data-name="Path 49250" d="M484.243,597.974q-10.138,0-20.276.009c-.388,0-.521-.069-.5-.49.037-.963.045-1.93,0-2.892-.024-.495.15-.56.587-.56q19.152.017,38.3.009c.8,0,1.591.013,2.385-.007.286-.007.363.08.359.36-.016,1.071-.021,2.143,0,3.214.007.33-.125.361-.4.359-1.789-.01-3.578,0-5.367,0H484.243" transform="translate(-420.886 -539.474)" fill="#6264a7"/>
        <path id="Path_49251" data-name="Path 49251" d="M484.357,685.43H464.133c-.589,0-.589,0-.589-.612,0-.949.018-1.9-.009-2.846-.01-.362.092-.45.45-.449,4.173.013,8.346.008,12.52.008q14.079,0,28.158-.008c.38,0,.524.056.507.484-.039.993-.029,1.989,0,2.983.009.36-.089.448-.448.448q-10.181-.017-20.362-.009" transform="translate(-420.955 -618.921)" fill="#fff"/>
        <path id="Path_49252" data-name="Path 49252" d="M351.056,139.576c0,1.821,0,3.643.005,5.464a.812.812,0,0,1-.252.643q-3.853,3.837-7.685,7.694c-.236.238-.337.266-.566-.021a12.229,12.229,0,0,1,5.757-19.168,14.526,14.526,0,0,1,2.406-.543c.314-.045.343.063.342.329-.01,1.867-.005,3.734-.005,5.6" transform="translate(-308.704 -121.359)" fill="#7577b9"/>
        <path id="Path_49253" data-name="Path 49253" d="M398.376,290.014a12.116,12.116,0,0,1-7.444-2.541c-.272-.2-.309-.3-.045-.567q3.859-3.829,7.686-7.691a1.109,1.109,0,0,1,.877-.355q5.32.02,10.64,0c.324,0,.454.013.4.426a12.312,12.312,0,0,1-10.518,10.623c-.533.068-1.066.083-1.6.1" transform="translate(-354.819 -253.244)" fill="#7577b9"/>
        <path id="Path_49254" data-name="Path 49254" d="M878.135,143.043q0,5.83.007,11.66c0,.32-.043.449-.411.437-1.023-.031-2.049-.028-3.072,0-.351.009-.42-.092-.42-.429q.016-9.755.008-19.509c0-1.316.013-2.632-.009-3.948-.006-.343.111-.392.413-.387,1.024.019,2.049.025,3.072,0,.35-.009.421.09.42.427-.013,3.917-.008,7.834-.008,11.751" transform="translate(-793.933 -118.842)" fill="#fff"/>
        <path id="Path_49255" data-name="Path 49255" d="M492.115,144.65c-1.681,0-3.362-.013-5.043.01-.375.005-.441-.113-.44-.458q.019-5.071,0-10.142c0-.353.077-.44.43-.382a12.085,12.085,0,0,1,9.965,8.131,11.414,11.414,0,0,1,.586,2.491c.043.307-.039.356-.316.355-1.727-.01-3.454-.005-5.18-.005" transform="translate(-441.93 -121.384)" fill="#fff"/>
        <path id="Path_49256" data-name="Path 49256" d="M782.4,240.5c0,2.326-.01,4.651.01,6.977,0,.372-.109.448-.455.441-1.039-.022-2.079-.015-3.118,0-.247,0-.338-.046-.338-.319q.013-7.115,0-14.229c0-.257.067-.338.33-.335,1.07.014,2.14.021,3.21,0,.335-.008.365.13.365.4-.008,2.356,0,4.713,0,7.069" transform="translate(-706.984 -211.619)" fill="#6264a7"/>
        <path id="Path_49257" data-name="Path 49257" d="M682.688,331.921c0-.887.009-1.775-.006-2.662,0-.255.063-.337.327-.334q1.628.022,3.256,0c.255,0,.342.062.34.329-.011,1.806-.008,3.611,0,5.417,0,.216-.023.334-.29.331q-1.674-.021-3.348,0c-.274,0-.283-.12-.281-.328.008-.918,0-1.836,0-2.754" transform="translate(-619.973 -298.71)" fill="#6264a7"/>
      </g>
    </g>
    <g id="Group_19139" data-name="Group 19139" transform="translate(567.312 1178.492)">
      <ellipse id="Ellipse_2821" data-name="Ellipse 2821" cx="20" cy="19.5" rx="20" ry="19.5" transform="translate(-0.312 -0.492)" fill="#6264a7"/>
    </g>
    <line id="Line_5" data-name="Line 5" x2="5" y2="5" transform="translate(579 1197.739)" fill="none" stroke="#fff" stroke-linecap="round" stroke-width="3"/>
    <line id="Line_6" data-name="Line 6" x1="11" y2="11" transform="translate(584 1191.739)" fill="none" stroke="#fff" stroke-linecap="round" stroke-width="3"/>
  </g>
</svg>
