<svg xmlns="http://www.w3.org/2000/svg" xmlns:xlink="http://www.w3.org/1999/xlink" width="260" height="260" viewBox="0 0 260 260">
  <defs>
    <clipPath id="clip-path">
      <rect id="Rectangle_26893" data-name="Rectangle 26893" width="139.251" height="143.271" transform="translate(0 0)" fill="none"/>
    </clipPath>
  </defs>
  <g id="Group_19137" data-name="Group 19137" transform="translate(-1012 -1446)">
    <g id="Rectangle_26894" data-name="Rectangle 26894" transform="translate(1012 1446)" fill="none" stroke="#6264a7" stroke-width="1">
      <rect width="260" height="260" rx="8" stroke="none"/>
      <rect x="0.5" y="0.5" width="259" height="259" rx="7.5" fill="none"/>
    </g>
    <g id="Group_19134" data-name="Group 19134" transform="translate(1072 1504.004)">
      <g id="Group_19132" data-name="Group 19132" transform="translate(0 -0.004)" clip-path="url(#clip-path)">
        <path id="Path_49246" data-name="Path 49246" d="M102.648,143.267H38.769c-.183-.249-.478-.169-.716-.221a12.9,12.9,0,0,1-10.1-9.169,14.824,14.824,0,0,1-.5-5.054c.011-.428-.1-.57-.548-.558a18.939,18.939,0,0,1-2.9-.23,26.558,26.558,0,0,1-15.027-7.012A27.216,27.216,0,0,1,3.257,87.946c5-9.316,12.989-14.2,23.573-14.71.644-.031.62-.306.62-.763q-.01-29.349,0-58.7c0-.486,0-.973.027-1.459A12.989,12.989,0,0,1,36.829.506,11.583,11.583,0,0,0,38.769,0h88.794c.034.1.116.11.207.116a10.266,10.266,0,0,1,3.921,1.093,12.768,12.768,0,0,1,7.533,12.159q.021,44.888.008,89.775c0,.243.013.485.02.728a18.14,18.14,0,0,1-.368,3.549,15.307,15.307,0,0,1-4.006,6.827c-7.663,8.253-15.566,16.273-23.6,24.161a19.5,19.5,0,0,1-5.263,3.841,19.753,19.753,0,0,1-3.364,1.022m29.831-84.2h-.016q0-22.816,0-45.632a7.474,7.474,0,0,0-.335-2.414,6.291,6.291,0,0,0-6.34-4.258H40.91c-.243,0-.486,0-.729.014A6.159,6.159,0,0,0,36.96,7.848a6.291,6.291,0,0,0-2.741,5.5q.02,30.013.008,60.025a1.361,1.361,0,0,1,0,.2c-.053.35.095.5.443.586a19.64,19.64,0,0,1,1.961.584A27.406,27.406,0,0,1,54.8,104.633a26.8,26.8,0,0,1-11.384,18.6,26.219,26.219,0,0,1-8.618,4.064c-.225.061-.581.006-.572.412a21.862,21.862,0,0,0,.108,3.706,6.209,6.209,0,0,0,6.358,5.079q30.116,0,60.231.032a6.455,6.455,0,0,0,3.921-1.249,1.09,1.09,0,0,0,.517-1.028c-.017-5.24-.011-10.479-.011-15.719a11.174,11.174,0,0,1,.263-2.632,9.588,9.588,0,0,1,9.272-7.375c5.168-.025,10.337-.007,15.5-.015.227,0,.521.129.675-.127.63-1.045,1.423-1.993,1.421-3.343q-.028-22.982-.012-45.964M21.87,114.895l.354-.337c3.668-3.515,7.335-7.03,11.223-10.756,3.786-3.627,7.793-7.464,11.8-11.3.344-.329.312-.489,0-.81q-3.118-3.209-6.186-6.466c-.373-.4-.559-.4-.954-.019q-7.846,7.571-15.719,15.114c-.3.292-.449.311-.75,0-1.356-1.394-2.748-2.751-4.108-4.142-.267-.273-.409-.262-.67,0q-3.242,3.273-6.513,6.517c-.254.252-.3.4-.019.675q5.634,5.615,11.246,11.251c.091.091.19.173.294.267" transform="translate(0 0.004)" fill="#6264a7"/>
        <path id="Path_49247" data-name="Path 49247" d="M356.059,103.327q0,22.982.012,45.964c0,1.35-.792,2.3-1.422,3.343-.154.256-.448.127-.675.127-5.168.008-10.337-.01-15.505.015a9.588,9.588,0,0,0-9.272,7.375,11.173,11.173,0,0,0-.263,2.632c0,5.24-.006,10.479.011,15.719a1.09,1.09,0,0,1-.517,1.028,6.456,6.456,0,0,1-3.921,1.249q-30.116-.07-60.231-.032a6.209,6.209,0,0,1-6.358-5.079,21.872,21.872,0,0,1-.108-3.706c-.01-.406.347-.351.572-.412A26.219,26.219,0,0,0,267,167.485a26.8,26.8,0,0,0,11.384-18.6A27.406,27.406,0,0,0,260.212,119a19.66,19.66,0,0,0-1.961-.584c-.349-.085-.5-.236-.443-.586a1.353,1.353,0,0,0,0-.2q0-30.013-.008-60.025a6.291,6.291,0,0,1,2.74-5.5,6.159,6.159,0,0,1,3.221-1.068c.242-.016.486-.014.729-.014h84.881a6.29,6.29,0,0,1,6.34,4.258,7.474,7.474,0,0,1,.335,2.414q-.006,22.816,0,45.632Zm-40.965,14.956q14.741,0,29.482.012c.519,0,.658-.129.645-.647-.038-1.414-.052-2.831,0-4.243.026-.651-.163-.787-.8-.787q-27.693.028-55.386.015c-1.148,0-2.3.019-3.445-.01-.422-.011-.517.128-.511.527.022,1.481.045,2.963-.008,4.442-.022.614.178.7.732.7q14.642-.026,29.283-.012m0,10.467h21.8c2.584,0,5.168-.007,7.753.007.391,0,.582-.042.572-.519-.034-1.547-.026-3.1,0-4.642.006-.406-.1-.531-.518-.521-1.148.028-2.3.01-3.445.01q-27.664,0-55.328-.014c-.632,0-.884.094-.849.808.068,1.39.057,2.786,0,4.177-.023.607.168.708.729.707q14.644-.027,29.287-.013m.065,11.571q14.706,0,29.411.012c.518,0,.661-.126.647-.647-.038-1.436-.051-2.874,0-4.309.024-.618-.184-.7-.733-.7q-20.336.023-40.672.012c-6.028,0-12.056.007-18.084-.012-.517,0-.665.125-.65.648.039,1.369.013,2.74.013,4.111,0,.884,0,.884.851.884h29.213M284.755,70.565c0-2.7-.007-5.394.008-8.091,0-.384-.04-.541-.494-.476a20.983,20.983,0,0,0-3.475.785A17.664,17.664,0,0,0,272.48,90.47c.331.415.477.374.818.03q5.533-5.575,11.1-11.114a1.172,1.172,0,0,0,.364-.929c-.014-2.631-.008-5.262-.008-7.892m1.743,26.8c.771-.03,1.541-.052,2.311-.15A17.784,17.784,0,0,0,304,81.871c.071-.6-.117-.616-.585-.615q-7.684.019-15.369,0a1.6,1.6,0,0,0-1.267.513q-5.528,5.578-11.1,11.11c-.381.378-.326.525.066.819a17.5,17.5,0,0,0,10.753,3.67m58.709-18.156c0-5.658-.007-11.316.012-16.974,0-.487-.1-.63-.607-.617-1.478.039-2.959.031-4.438,0-.437-.008-.606.063-.6.558.033,1.9.013,3.8.013,5.7q0,14.09-.012,28.18c0,.485.1.632.606.619,1.478-.039,2.959-.043,4.437,0,.533.016.6-.169.594-.632q-.023-8.421-.01-16.842M296.07,77.859c2.494,0,4.989-.007,7.483.007.4,0,.519-.069.457-.512a16.48,16.48,0,0,0-.846-3.6,17.456,17.456,0,0,0-14.394-11.745c-.51-.083-.622.042-.62.552q.03,7.324,0,14.649c0,.5.095.668.636.661,2.428-.033,4.856-.014,7.284-.014m36.439,8.1c0-3.4,0-6.807.006-10.21,0-.393-.043-.592-.527-.581-1.545.035-3.091.025-4.636,0-.38-.005-.478.111-.477.483q.016,10.277,0,20.554c0,.394.132.466.488.461,1.5-.018,3-.028,4.5,0,.5.011.662-.1.657-.637-.028-3.359-.014-6.718-.014-10.078m-18.339,6.26c0,1.326.006,2.652,0,3.979,0,.3.011.48.407.474q2.417-.035,4.836,0c.386,0,.42-.167.419-.478-.009-2.608-.012-5.216,0-7.825,0-.386-.123-.48-.492-.476q-2.351.028-4.7,0c-.381-.005-.479.113-.473.482.021,1.282.008,2.564.008,3.846" transform="translate(-223.581 -44.252)" fill="#bdbde5"/>
        <path id="Path_49248" data-name="Path 49248" d="M88.148,670.073c-.1-.094-.2-.176-.294-.267q-5.62-5.628-11.246-11.251c-.279-.279-.235-.423.019-.675q3.27-3.244,6.513-6.517c.261-.263.4-.274.67,0,1.359,1.39,2.752,2.748,4.108,4.142.3.309.447.29.75,0q7.852-7.565,15.719-15.114c.395-.381.581-.378.954.019q3.062,3.262,6.186,6.466c.312.321.345.481,0,.81Q100,658.7,88.5,669.736l-.354.337" transform="translate(-66.278 -555.175)" fill="#fff"/>
        <path id="Path_49249" data-name="Path 49249" d="M493.5,520.929q-14.641,0-29.283.013c-.554,0-.754-.089-.732-.7.054-1.479.031-2.962.009-4.442-.006-.4.089-.537.511-.527,1.148.03,2.3.01,3.445.01q27.693,0,55.386-.015c.632,0,.821.135.8.786-.056,1.413-.042,2.829,0,4.243.014.518-.125.648-.645.647q-14.741-.025-29.482-.012" transform="translate(-401.989 -446.898)" fill="#6264a7"/>
        <path id="Path_49250" data-name="Path 49250" d="M493.48,599.721q-14.644,0-29.287.013c-.561,0-.752-.1-.729-.707.054-1.391.065-2.787,0-4.177-.035-.714.216-.809.849-.808q27.664.025,55.328.014c1.149,0,2.3.018,3.445-.01.413-.01.524.115.518.521-.022,1.547-.03,3.1,0,4.642.01.477-.18.521-.572.519-2.584-.014-5.168-.007-7.752-.007h-21.8" transform="translate(-401.965 -515.222)" fill="#6264a7"/>
        <path id="Path_49251" data-name="Path 49251" d="M493.612,687.167H464.4c-.85,0-.851,0-.851-.884,0-1.37.026-2.741-.013-4.111-.015-.523.133-.65.65-.648,6.028.019,12.056.012,18.084.012q20.336,0,40.672-.012c.548,0,.757.081.733.7-.056,1.434-.042,2.873,0,4.309.014.52-.129.648-.647.647q-14.705-.025-29.411-.012" transform="translate(-402.031 -591.097)" fill="#fff"/>
        <path id="Path_49252" data-name="Path 49252" d="M356,142.216c0,2.631-.007,5.262.008,7.892a1.172,1.172,0,0,1-.364.929q-5.566,5.542-11.1,11.114c-.341.344-.486.385-.818-.03a17.664,17.664,0,0,1,8.315-27.687,20.98,20.98,0,0,1,3.475-.785c.453-.065.5.091.494.476-.015,2.7-.008,5.394-.008,8.091" transform="translate(-294.826 -115.904)" fill="#7577b9"/>
        <path id="Path_49253" data-name="Path 49253" d="M401.785,294.972a17.5,17.5,0,0,1-10.752-3.67c-.392-.294-.447-.44-.066-.819q5.575-5.531,11.1-11.11a1.6,1.6,0,0,1,1.267-.513q7.684.028,15.369,0c.468,0,.655.018.585.615A17.784,17.784,0,0,1,404.1,294.822c-.77.1-1.539.12-2.311.15" transform="translate(-338.868 -241.859)" fill="#7577b9"/>
        <path id="Path_49254" data-name="Path 49254" d="M879.868,148.456q0,8.421.01,16.842c0,.463-.062.648-.594.632-1.478-.045-2.959-.04-4.437,0-.507.013-.607-.133-.606-.619q.023-14.09.011-28.18c0-1.9.02-3.8-.013-5.7-.009-.5.16-.566.6-.558,1.479.027,2.959.036,4.437,0,.506-.013.609.13.607.617-.018,5.658-.012,11.316-.012,16.974" transform="translate(-758.241 -113.5)" fill="#fff"/>
        <path id="Path_49255" data-name="Path 49255" d="M494.552,149.534c-2.428,0-4.856-.019-7.284.014-.541.007-.638-.164-.636-.661q.027-7.325,0-14.649c0-.51.111-.635.62-.552a17.456,17.456,0,0,1,14.394,11.745,16.486,16.486,0,0,1,.846,3.6c.062.443-.057.515-.457.512-2.494-.015-4.989-.007-7.483-.007" transform="translate(-422.063 -115.927)" fill="#fff"/>
        <path id="Path_49256" data-name="Path 49256" d="M784.129,243.817c0,3.359-.014,6.719.014,10.078,0,.538-.157.648-.657.637-1.5-.032-3-.022-4.5,0-.356,0-.489-.067-.488-.461q.019-10.277,0-20.553c0-.372.1-.488.477-.483,1.545.021,3.091.03,4.636,0,.484-.011.528.188.527.581-.011,3.4-.006,6.807-.006,10.21" transform="translate(-675.201 -202.106)" fill="#6264a7"/>
        <path id="Path_49257" data-name="Path 49257" d="M682.69,333.253c0-1.282.013-2.564-.008-3.846-.006-.369.091-.487.472-.482q2.351.032,4.7,0c.368,0,.494.09.492.476-.015,2.608-.012,5.216,0,7.825,0,.312-.033.483-.419.478q-2.418-.03-4.836,0c-.4.006-.409-.173-.407-.474.011-1.326,0-2.652,0-3.979" transform="translate(-592.102 -285.282)" fill="#6264a7"/>
      </g>
    </g>
  </g>
</svg>
